<svg width="352" height="352" viewBox="0 0 352 352" fill="none" xmlns="http://www.w3.org/2000/svg">
<path d="M272.251 89.6966C257.157 76.4614 241.979 62.4237 225.153 51.7651C198.106 34.6298 160.181 28.2234 135.485 53.0112C127.882 60.6496 126.333 71.1885 123.306 81.0656C119.997 91.9635 113.83 100.017 103.974 105.917C94.8218 111.394 84.4871 114.463 74.6381 118.54C62.0154 123.763 50.3642 131.395 44.3662 144.116C37.2487 159.273 40.5294 172.67 50.1953 185.596C59.5866 198.113 73.9201 209.792 71.6391 226.977C70.6817 234.319 67.7178 241.219 65.3735 248.237C63.0292 255.256 61.2481 262.782 62.825 270.019C67.8868 293.674 104.467 299.812 123.58 291.963C156.668 278.376 189.263 296.891 222.605 297.644C246.041 298.179 276.454 291.491 283.578 265.598C289.71 243.331 267.717 218.747 284.916 199.316C298.341 184.152 311.33 164.708 309.838 143.51C308.38 122.932 292.681 107.318 277.918 94.6246C276.031 93.0242 274.142 91.3815 272.251 89.6966Z" fill="#636C3F"/>
<path opacity="0.7" d="M272.251 89.6966C257.157 76.4614 241.979 62.4237 225.153 51.7651C198.106 34.6298 160.181 28.2234 135.485 53.0112C127.882 60.6496 126.333 71.1885 123.306 81.0656C119.997 91.9635 113.83 100.017 103.974 105.917C94.8218 111.394 84.4871 114.463 74.6381 118.54C62.0154 123.763 50.3642 131.395 44.3662 144.116C37.2487 159.273 40.5294 172.67 50.1953 185.596C59.5866 198.113 73.9201 209.792 71.6391 226.977C70.6817 234.319 67.7178 241.219 65.3735 248.237C63.0292 255.256 61.2481 262.782 62.825 270.019C67.8868 293.674 104.467 299.812 123.58 291.963C156.668 278.376 189.263 296.891 222.605 297.644C246.041 298.179 276.454 291.491 283.578 265.598C289.71 243.331 267.717 218.747 284.916 199.316C298.341 184.152 311.33 164.708 309.838 143.51C308.38 122.932 292.681 107.318 277.918 94.6246C276.031 93.0242 274.142 91.3815 272.251 89.6966Z" fill="white"/>
<path d="M125.495 314.047C143.423 314.047 157.957 311.141 157.957 307.556C157.957 303.972 143.423 301.066 125.495 301.066C107.567 301.066 93.0337 303.972 93.0337 307.556C93.0337 311.141 107.567 314.047 125.495 314.047Z" fill="#636C3F"/>
<path opacity="0.5" d="M125.495 314.047C143.423 314.047 157.957 311.141 157.957 307.556C157.957 303.972 143.423 301.066 125.495 301.066C107.567 301.066 93.0337 303.972 93.0337 307.556C93.0337 311.141 107.567 314.047 125.495 314.047Z" fill="white"/>
<path d="M250.1 245.143C288.549 206.694 288.549 144.356 250.1 105.907C211.651 67.4581 149.313 67.4581 110.864 105.907C72.4155 144.356 72.4155 206.694 110.864 245.143C149.313 283.591 211.651 283.591 250.1 245.143Z" fill="#636C3F" stroke="#2E353A" stroke-miterlimit="10" stroke-linecap="round"/>
<path d="M180.484 265.422C230.135 265.422 270.385 225.172 270.385 175.521C270.385 125.87 230.135 85.6205 180.484 85.6205C130.833 85.6205 90.5835 125.87 90.5835 175.521C90.5835 225.172 130.833 265.422 180.484 265.422Z" fill="#2E353A" stroke="#2E353A" stroke-miterlimit="10" stroke-linecap="round"/>
<path d="M180.484 258.706C226.426 258.706 263.669 221.463 263.669 175.521C263.669 129.58 226.426 92.3366 180.484 92.3366C134.543 92.3366 97.2998 129.58 97.2998 175.521C97.2998 221.463 134.543 258.706 180.484 258.706Z" fill="white" stroke="#2E353A" stroke-miterlimit="10" stroke-linecap="round"/>
<path d="M180.484 100.313C165.608 100.313 151.066 104.724 138.696 112.99C126.327 121.255 116.686 133.002 110.994 146.746C105.301 160.49 103.812 175.614 106.715 190.205C109.618 204.795 116.782 218.197 127.302 228.716C137.821 239.235 151.224 246.398 165.815 249.299C180.406 252.201 195.529 250.71 209.273 245.016C223.017 239.322 234.763 229.681 243.027 217.311C251.291 204.941 255.701 190.398 255.7 175.521C255.7 165.644 253.754 155.864 249.974 146.739C246.194 137.614 240.654 129.322 233.669 122.338C226.685 115.355 218.393 109.815 209.268 106.036C200.142 102.257 190.362 100.312 180.484 100.313ZM180.484 244.633C166.81 244.633 153.442 240.578 142.072 232.981C130.702 225.384 121.841 214.585 116.608 201.952C111.375 189.318 110.005 175.416 112.673 162.005C115.341 148.593 121.926 136.273 131.595 126.604C141.265 116.934 153.584 110.35 166.996 107.682C180.408 105.014 194.309 106.383 206.943 111.616C219.577 116.849 230.375 125.711 237.972 137.081C245.569 148.451 249.624 161.819 249.624 175.493C249.628 184.575 247.842 193.569 244.369 201.96C240.896 210.352 235.804 217.977 229.384 224.401C222.963 230.824 215.34 235.919 206.95 239.395C198.559 242.872 189.566 244.661 180.484 244.661V244.633Z" fill="#636C3F" stroke="#2E353A" stroke-miterlimit="10" stroke-linecap="round"/>
<path d="M180.484 134.119C172.294 134.119 164.288 136.548 157.478 141.098C150.668 145.649 145.36 152.116 142.226 159.683C139.092 167.25 138.273 175.577 139.871 183.609C141.47 191.642 145.414 199.021 151.206 204.812C156.998 210.603 164.377 214.546 172.41 216.143C180.443 217.74 188.769 216.919 196.336 213.783C203.902 210.648 210.369 205.34 214.918 198.529C219.467 191.718 221.895 183.712 221.894 175.521C221.894 170.084 220.822 164.699 218.741 159.676C216.66 154.652 213.61 150.088 209.765 146.243C205.919 142.398 201.354 139.349 196.33 137.269C191.306 135.188 185.922 134.118 180.484 134.119ZM180.484 213.58C172.957 213.58 165.599 211.347 159.34 207.166C153.082 202.984 148.204 197.04 145.323 190.086C142.442 183.131 141.689 175.479 143.157 168.096C144.626 160.714 148.25 153.933 153.573 148.61C158.896 143.287 165.677 139.663 173.059 138.194C180.442 136.726 188.094 137.479 195.049 140.36C202.003 143.241 207.947 148.119 212.129 154.377C216.31 160.636 218.542 167.994 218.542 175.521C218.542 185.615 214.533 195.295 207.395 202.433C200.258 209.57 190.578 213.58 180.484 213.58Z" fill="#636C3F" stroke="#2E353A" stroke-miterlimit="10" stroke-linecap="round"/>
<path d="M180.484 151.585C175.75 151.585 171.122 152.989 167.186 155.619C163.25 158.249 160.182 161.988 158.37 166.361C156.559 170.735 156.085 175.548 157.008 180.191C157.932 184.834 160.212 189.099 163.559 192.447C166.907 195.794 171.172 198.074 175.815 198.997C180.458 199.921 185.271 199.447 189.644 197.635C194.018 195.824 197.756 192.756 200.386 188.819C203.017 184.883 204.42 180.255 204.42 175.521C204.42 172.378 203.801 169.265 202.598 166.361C201.395 163.457 199.632 160.819 197.41 158.596C195.187 156.373 192.548 154.61 189.644 153.407C186.74 152.204 183.628 151.585 180.484 151.585ZM182.322 155.338C186.54 155.715 190.532 157.409 193.734 160.181L182.336 171.593L182.322 155.338ZM178.654 171.593L167.242 160.181C170.443 157.408 174.436 155.713 178.654 155.338V171.593ZM176.063 174.184H160.258C160.527 170.027 162.077 166.055 164.694 162.814L176.063 174.184ZM176.063 177.844L165.144 188.771C162.48 185.696 160.809 181.887 160.35 177.844H176.063ZM178.654 180.442V195.712C174.673 195.359 170.887 193.83 167.777 191.319L178.654 180.442ZM182.322 180.442L193.199 191.319C190.092 193.826 186.312 195.355 182.336 195.712L182.322 180.442ZM184.913 177.844H200.64C200.178 181.886 198.507 185.694 195.846 188.771L184.913 177.844ZM184.913 174.184L196.275 162.814C198.892 166.055 200.441 170.027 200.71 174.184H184.913Z" fill="#636C3F" stroke="#2E353A" stroke-miterlimit="10" stroke-linecap="round"/>
<path d="M180.484 189.08C187.973 189.08 194.043 183.01 194.043 175.521C194.043 168.033 187.973 161.962 180.484 161.962C172.996 161.962 166.925 168.033 166.925 175.521C166.925 183.01 172.996 189.08 180.484 189.08Z" fill="white" stroke="#2E353A" stroke-miterlimit="10" stroke-linecap="round"/>
<g style="mix-blend-mode:multiply">
<path d="M278.453 185.307C178.485 154.225 109.908 202.034 91.3298 217.325C100.484 236.835 115.786 252.804 134.888 262.781C153.991 272.758 175.839 276.192 197.081 272.558C218.324 268.923 237.787 258.42 252.486 242.659C267.184 226.898 276.307 206.751 278.453 185.307Z" fill="#636C3F"/>
</g>
<path d="M270.343 93.5616H268.548C265.671 93.5616 263.338 95.894 263.338 98.7712V109.12C263.338 111.997 265.671 114.33 268.548 114.33H270.343C273.22 114.33 275.553 111.997 275.553 109.12V98.7712C275.553 95.894 273.22 93.5616 270.343 93.5616Z" fill="#2E353A" stroke="#2E353A" stroke-miterlimit="10" stroke-linecap="round"/>
<path d="M270.343 239.536H268.548C265.671 239.536 263.338 241.868 263.338 244.746V255.094C263.338 257.972 265.671 260.304 268.548 260.304H270.343C273.22 260.304 275.553 257.972 275.553 255.094V244.746C275.553 241.868 273.22 239.536 270.343 239.536Z" fill="#2E353A" stroke="#2E353A" stroke-miterlimit="10" stroke-linecap="round"/>
<path d="M181.385 93.5616H179.59C176.713 93.5616 174.381 95.894 174.381 98.7712V109.12C174.381 111.997 176.713 114.33 179.59 114.33H181.385C184.263 114.33 186.595 111.997 186.595 109.12V98.7712C186.595 95.894 184.263 93.5616 181.385 93.5616Z" fill="#2E353A" stroke="#2E353A" stroke-miterlimit="10" stroke-linecap="round"/>
<path d="M181.385 239.536H179.59C176.713 239.536 174.381 241.868 174.381 244.746V255.094C174.381 257.972 176.713 260.304 179.59 260.304H181.385C184.263 260.304 186.595 257.972 186.595 255.094V244.746C186.595 241.868 184.263 239.536 181.385 239.536Z" fill="#2E353A" stroke="#2E353A" stroke-miterlimit="10" stroke-linecap="round"/>
<path d="M180.484 72.1248C181.581 72.1248 182.47 71.236 182.47 70.1395C182.47 69.0431 181.581 68.1542 180.484 68.1542C179.388 68.1542 178.499 69.0431 178.499 70.1395C178.499 71.236 179.388 72.1248 180.484 72.1248Z" fill="white" stroke="#2E353A" stroke-miterlimit="10" stroke-linecap="round"/>
<path d="M146.312 75.8138C146.177 75.4452 145.937 75.1249 145.62 74.8932C145.303 74.6614 144.925 74.5287 144.533 74.5118C144.141 74.4948 143.753 74.5944 143.418 74.798C143.082 75.0015 142.815 75.2999 142.649 75.6554C142.483 76.0109 142.426 76.4076 142.485 76.7955C142.544 77.1833 142.717 77.5449 142.982 77.8345C143.247 78.1241 143.591 78.3288 143.972 78.4228C144.353 78.5167 144.753 78.4956 145.122 78.3622C145.368 78.2734 145.594 78.1369 145.787 77.9607C145.98 77.7844 146.136 77.5718 146.246 77.335C146.357 77.0983 146.42 76.842 146.431 76.5809C146.442 76.3199 146.402 76.0592 146.312 75.8138Z" fill="white" stroke="#2E353A" stroke-miterlimit="10" stroke-linecap="round"/>
<path d="M114.266 93.5194C114.012 93.2217 113.675 93.006 113.298 92.8992C112.922 92.7924 112.522 92.7994 112.149 92.9193C111.776 93.0392 111.447 93.2667 111.204 93.573C110.96 93.8794 110.812 94.251 110.779 94.6411C110.746 95.0312 110.829 95.4225 111.017 95.7656C111.206 96.1087 111.492 96.3884 111.839 96.5694C112.186 96.7505 112.579 96.8249 112.968 96.7833C113.358 96.7416 113.726 96.5858 114.027 96.3354C114.23 96.1677 114.397 95.9613 114.519 95.7282C114.641 95.4951 114.716 95.2399 114.738 94.9777C114.76 94.7154 114.73 94.4513 114.649 94.2009C114.568 93.9505 114.438 93.7188 114.266 93.5194Z" fill="white" stroke="#2E353A" stroke-miterlimit="10" stroke-linecap="round"/>
<path d="M90.2175 121.088C89.8791 120.889 89.4893 120.794 89.0972 120.817C88.7052 120.839 88.3286 120.977 88.0151 121.214C87.7015 121.45 87.4652 121.774 87.3359 122.145C87.2065 122.516 87.1901 122.917 87.2885 123.297C87.387 123.677 87.596 124.019 87.8891 124.281C88.1822 124.542 88.5462 124.71 88.9351 124.765C89.324 124.819 89.7203 124.757 90.0738 124.587C90.4274 124.416 90.7224 124.144 90.9215 123.805C91.1866 123.351 91.2613 122.811 91.1294 122.302C90.9975 121.793 90.6698 121.356 90.2175 121.088Z" fill="white" stroke="#2E353A" stroke-miterlimit="10" stroke-linecap="round"/>
<path d="M77.0457 155.267C76.6591 155.199 76.2611 155.248 75.902 155.406C75.5429 155.565 75.2388 155.826 75.0281 156.157C74.8174 156.488 74.7096 156.874 74.7183 157.267C74.7269 157.659 74.8517 158.04 75.0769 158.362C75.302 158.683 75.6174 158.931 75.9832 159.073C76.3489 159.215 76.7487 159.246 77.1319 159.161C77.5151 159.076 77.8646 158.88 78.1362 158.597C78.4078 158.313 78.5893 157.956 78.6578 157.569C78.7034 157.312 78.6979 157.049 78.6415 156.794C78.5851 156.539 78.479 156.298 78.3292 156.084C78.1795 155.87 77.989 155.688 77.7688 155.548C77.5485 155.408 77.3028 155.312 77.0457 155.267Z" fill="white" stroke="#2E353A" stroke-miterlimit="10" stroke-linecap="round"/>
<path d="M76.3557 191.868C75.9693 191.937 75.6118 192.118 75.3285 192.39C75.0452 192.661 74.8487 193.011 74.7639 193.394C74.6791 193.777 74.7098 194.177 74.8522 194.543C74.9945 194.909 75.242 195.224 75.5635 195.449C75.885 195.674 76.266 195.799 76.6584 195.808C77.0508 195.816 77.4369 195.709 77.7681 195.498C78.0992 195.287 78.3604 194.983 78.5188 194.624C78.6772 194.265 78.7256 193.867 78.6578 193.48C78.6128 193.223 78.5174 192.977 78.3773 192.757C78.2372 192.537 78.055 192.347 77.8411 192.197C77.6273 192.047 77.386 191.941 77.1312 191.885C76.8763 191.828 76.6128 191.823 76.3557 191.868Z" fill="white" stroke="#2E353A" stroke-miterlimit="10" stroke-linecap="round"/>
<path d="M88.2253 226.498C87.8868 226.697 87.615 226.992 87.4442 227.346C87.2734 227.699 87.2113 228.096 87.2658 228.484C87.3202 228.873 87.4888 229.237 87.7501 229.53C88.0115 229.823 88.3539 230.032 88.734 230.131C89.1141 230.229 89.5149 230.213 89.8857 230.084C90.2565 229.954 90.5806 229.718 90.817 229.404C91.0534 229.091 91.1915 228.714 91.2139 228.322C91.2363 227.93 91.1419 227.54 90.9427 227.202C90.8111 226.977 90.6363 226.78 90.4282 226.622C90.2202 226.465 89.9831 226.35 89.7305 226.284C89.4779 226.219 89.2149 226.204 88.9565 226.241C88.6982 226.277 88.4497 226.365 88.2253 226.498Z" fill="white" stroke="#2E353A" stroke-miterlimit="10" stroke-linecap="round"/>
<path d="M111.232 254.975C110.982 255.276 110.827 255.645 110.787 256.034C110.746 256.424 110.822 256.816 111.004 257.163C111.186 257.51 111.466 257.795 111.81 257.983C112.153 258.17 112.544 258.252 112.934 258.218C113.324 258.184 113.696 258.035 114.001 257.791C114.307 257.546 114.534 257.217 114.653 256.844C114.772 256.471 114.778 256.071 114.67 255.695C114.563 255.318 114.346 254.982 114.048 254.728C113.848 254.558 113.615 254.429 113.365 254.349C113.114 254.269 112.85 254.24 112.588 254.263C112.326 254.286 112.072 254.36 111.839 254.483C111.606 254.605 111.4 254.772 111.232 254.975Z" fill="white" stroke="#2E353A" stroke-miterlimit="10" stroke-linecap="round"/>
<path d="M142.574 273.856C142.441 274.225 142.42 274.625 142.514 275.006C142.607 275.387 142.812 275.732 143.102 275.996C143.391 276.261 143.753 276.434 144.141 276.493C144.529 276.553 144.925 276.496 145.281 276.33C145.636 276.164 145.935 275.896 146.138 275.561C146.342 275.225 146.441 274.837 146.425 274.445C146.408 274.053 146.275 273.675 146.043 273.358C145.811 273.042 145.491 272.801 145.123 272.666C144.877 272.576 144.616 272.534 144.355 272.545C144.094 272.556 143.837 272.619 143.6 272.729C143.363 272.84 143.15 272.997 142.974 273.19C142.798 273.383 142.662 273.61 142.574 273.856Z" fill="white" stroke="#2E353A" stroke-miterlimit="10" stroke-linecap="round"/>
<path d="M178.499 280.896C178.498 281.291 178.613 281.677 178.832 282.006C179.05 282.334 179.361 282.591 179.726 282.742C180.09 282.894 180.491 282.934 180.878 282.857C181.265 282.781 181.621 282.591 181.9 282.312C182.179 282.033 182.369 281.677 182.446 281.29C182.522 280.903 182.482 280.502 182.331 280.137C182.179 279.773 181.923 279.462 181.594 279.244C181.265 279.025 180.879 278.909 180.484 278.911C179.958 278.911 179.453 279.12 179.081 279.492C178.708 279.865 178.499 280.369 178.499 280.896Z" fill="white" stroke="#2E353A" stroke-miterlimit="10" stroke-linecap="round"/>
<path d="M214.664 275.264C214.798 275.633 215.039 275.953 215.356 276.185C215.672 276.416 216.051 276.549 216.442 276.566C216.834 276.583 217.223 276.483 217.558 276.28C217.894 276.076 218.161 275.778 218.327 275.422C218.493 275.067 218.55 274.67 218.491 274.282C218.431 273.894 218.258 273.533 217.994 273.243C217.729 272.954 217.384 272.749 217.004 272.655C216.623 272.561 216.222 272.582 215.853 272.716C215.608 272.804 215.382 272.941 215.189 273.117C214.996 273.293 214.84 273.506 214.729 273.743C214.619 273.979 214.556 274.236 214.545 274.497C214.534 274.758 214.574 275.019 214.664 275.264Z" fill="white" stroke="#2E353A" stroke-miterlimit="10" stroke-linecap="round"/>
<path d="M246.703 257.53C246.957 257.831 247.294 258.05 247.672 258.159C248.05 258.268 248.452 258.263 248.827 258.144C249.202 258.025 249.533 257.798 249.78 257.49C250.026 257.183 250.175 256.81 250.209 256.418C250.244 256.026 250.161 255.633 249.972 255.288C249.783 254.943 249.496 254.661 249.148 254.479C248.799 254.297 248.404 254.222 248.013 254.264C247.621 254.306 247.251 254.462 246.949 254.714C246.746 254.882 246.579 255.088 246.457 255.321C246.335 255.554 246.26 255.809 246.237 256.071C246.214 256.333 246.243 256.597 246.323 256.847C246.403 257.098 246.532 257.33 246.703 257.53Z" fill="white" stroke="#2E353A" stroke-miterlimit="10" stroke-linecap="round"/>
<path d="M270.758 229.94C271.097 230.14 271.487 230.234 271.879 230.212C272.271 230.189 272.647 230.051 272.961 229.815C273.274 229.578 273.511 229.254 273.64 228.883C273.769 228.513 273.786 228.112 273.687 227.732C273.589 227.352 273.38 227.009 273.087 226.748C272.794 226.487 272.43 226.318 272.041 226.264C271.652 226.209 271.256 226.271 270.902 226.442C270.548 226.613 270.253 226.885 270.054 227.223C269.789 227.677 269.715 228.218 269.846 228.727C269.978 229.236 270.306 229.672 270.758 229.94Z" fill="white" stroke="#2E353A" stroke-miterlimit="10" stroke-linecap="round"/>
<path d="M283.923 195.782C284.31 195.85 284.708 195.802 285.067 195.643C285.426 195.485 285.73 195.224 285.941 194.893C286.151 194.562 286.259 194.175 286.251 193.783C286.242 193.391 286.117 193.01 285.892 192.688C285.667 192.367 285.351 192.119 284.986 191.977C284.62 191.834 284.22 191.804 283.837 191.888C283.454 191.973 283.104 192.17 282.833 192.453C282.561 192.736 282.38 193.094 282.311 193.48C282.265 193.737 282.271 194.001 282.327 194.256C282.384 194.511 282.49 194.752 282.64 194.966C282.789 195.18 282.98 195.362 283.2 195.502C283.42 195.642 283.666 195.737 283.923 195.782Z" fill="white" stroke="#2E353A" stroke-miterlimit="10" stroke-linecap="round"/>
<path d="M284.613 159.181C285 159.113 285.357 158.931 285.64 158.66C285.924 158.388 286.12 158.039 286.205 157.655C286.29 157.272 286.259 156.873 286.117 156.507C285.974 156.141 285.727 155.826 285.405 155.6C285.084 155.375 284.703 155.251 284.31 155.242C283.918 155.233 283.532 155.341 283.201 155.552C282.87 155.762 282.608 156.066 282.45 156.426C282.292 156.785 282.243 157.183 282.311 157.569C282.356 157.826 282.451 158.072 282.592 158.292C282.732 158.513 282.914 158.703 283.128 158.853C283.342 159.003 283.583 159.109 283.838 159.165C284.093 159.221 284.356 159.227 284.613 159.181Z" fill="white" stroke="#2E353A" stroke-miterlimit="10" stroke-linecap="round"/>
<path d="M272.744 124.552C273.083 124.353 273.356 124.059 273.528 123.705C273.7 123.352 273.763 122.955 273.709 122.566C273.655 122.176 273.487 121.812 273.226 121.518C272.964 121.224 272.622 121.015 272.241 120.916C271.861 120.817 271.46 120.833 271.088 120.963C270.717 121.092 270.393 121.329 270.156 121.643C269.92 121.957 269.782 122.334 269.76 122.727C269.738 123.119 269.833 123.509 270.033 123.848C270.3 124.299 270.735 124.627 271.243 124.759C271.751 124.891 272.29 124.816 272.744 124.552Z" fill="white" stroke="#2E353A" stroke-miterlimit="10" stroke-linecap="round"/>
<path d="M249.751 96.0749C250.004 95.7733 250.162 95.4036 250.204 95.0124C250.247 94.6212 250.173 94.2261 249.992 93.8768C249.811 93.5276 249.53 93.2399 249.185 93.05C248.841 92.8602 248.447 92.7766 248.055 92.81C247.663 92.8433 247.29 92.992 246.982 93.2373C246.674 93.4826 246.446 93.8136 246.326 94.1884C246.206 94.5633 246.2 94.9652 246.309 95.3435C246.417 95.7218 246.635 96.0596 246.935 96.3142C247.135 96.4842 247.367 96.6128 247.617 96.6928C247.867 96.7728 248.131 96.8025 248.393 96.7803C248.654 96.758 248.909 96.6843 249.142 96.5632C249.375 96.4421 249.582 96.2762 249.751 96.0749Z" fill="white" stroke="#2E353A" stroke-miterlimit="10" stroke-linecap="round"/>
<path d="M218.395 77.1725C218.529 76.8033 218.55 76.4027 218.456 76.0213C218.363 75.6399 218.158 75.2949 217.868 75.03C217.578 74.765 217.216 74.5919 216.828 74.5327C216.44 74.4735 216.042 74.5308 215.687 74.6973C215.331 74.8638 215.033 75.1321 214.83 75.4682C214.626 75.8043 214.527 76.1931 214.545 76.5854C214.563 76.9778 214.697 77.356 214.93 77.6723C215.163 77.9886 215.484 78.2287 215.853 78.3622C216.098 78.4518 216.358 78.4921 216.619 78.4807C216.88 78.4693 217.135 78.4066 217.371 78.296C217.608 78.1854 217.82 78.0292 217.995 77.8364C218.171 77.6436 218.307 77.418 218.395 77.1725Z" fill="white" stroke="#2E353A" stroke-miterlimit="10" stroke-linecap="round"/>
<path d="M276.778 123.489V106.388H167.967V133.492H199.647C201.051 133.492 202.44 133.769 203.737 134.306C205.033 134.843 206.212 135.63 207.204 136.623C208.196 137.615 208.983 138.793 209.521 140.09C210.058 141.386 210.334 142.776 210.334 144.179V207.335C210.332 210.168 209.205 212.885 207.201 214.887C205.198 216.89 202.48 218.015 199.647 218.015H167.967V246.879H276.778V229.764H249.462C247.122 229.763 244.879 228.832 243.224 227.176C241.57 225.521 240.641 223.276 240.641 220.936V132.352C240.641 130.012 241.57 127.767 243.224 126.112C244.879 124.457 247.122 123.526 249.462 123.524L276.778 123.489Z" fill="white" stroke="#2E353A" stroke-miterlimit="10" stroke-linecap="round"/>
<path d="M215.656 179.295V207.335C215.651 211.585 213.96 215.659 210.955 218.664C207.95 221.669 203.876 223.36 199.626 223.365H173.311V241.514H271.434V235.136H249.462C245.705 235.132 242.102 233.638 239.446 230.981C236.789 228.324 235.294 224.722 235.291 220.964V180.639C228.782 179.769 222.223 179.32 215.656 179.295Z" fill="#636C3F"/>
<path d="M173.311 122.123C186.412 118.462 204.47 114.611 228.596 111.739H173.311V122.123Z" fill="#636C3F"/>
<path d="M237.72 124.39C226.864 126.502 216.881 128.748 208.482 130.824C210.689 132.289 212.499 134.276 213.751 136.61C215.003 138.944 215.657 141.552 215.656 144.2V151.839C222.443 148.678 229.032 145.855 235.291 143.348V132.352C235.283 129.514 236.129 126.74 237.72 124.39Z" fill="#636C3F"/>
<path d="M179.879 51.2653V46.9005" stroke="#2E353A" stroke-miterlimit="10" stroke-linecap="round"/>
<path d="M179.879 64.5497V53.856" stroke="#2E353A" stroke-miterlimit="10" stroke-linecap="round"/>
<path d="M179.879 297.496V286.042" stroke="#2E353A" stroke-miterlimit="10" stroke-linecap="round"/>
<path d="M282.227 176.056H299.791" stroke="#2E353A" stroke-miterlimit="10" stroke-linecap="round"/>
<path d="M56.0664 176.056H78.5029" stroke="#2E353A" stroke-miterlimit="10" stroke-linecap="round"/>
<path d="M50.8076 176.056H52.814" stroke="#2E353A" stroke-miterlimit="10" stroke-linecap="round"/>
<path d="M303.614 176.056H307.711" stroke="#2E353A" stroke-miterlimit="10" stroke-linecap="round"/>
<path d="M138.899 304.128C137.478 303.542 136.101 302.853 134.781 302.065C134.781 302.065 142.398 264.204 142.68 251.772C142.961 239.339 144.658 213.608 144.658 213.608H110.528C110.528 213.608 112.225 239.332 112.506 251.772C112.788 264.211 118.842 302.065 118.842 302.065C117.519 302.852 116.14 303.541 114.717 304.128C112.886 304.832 110.598 305.726 111.739 306.184C113.288 306.689 114.93 306.848 116.547 306.648C118.94 306.012 121.248 305.087 123.418 303.896C124.334 303.192 125.53 229.441 125.53 229.441H127.973C127.973 229.441 129.254 303.213 130.17 303.896C132.341 305.086 134.648 306.01 137.041 306.648C138.658 306.848 140.3 306.689 141.849 306.184C143.018 305.747 140.73 304.832 138.899 304.128Z" fill="#2E353A" stroke="#2E353A" stroke-linecap="round" stroke-linejoin="round"/>
<path d="M108.416 166.665C107.233 166.771 106.095 167.167 105.102 167.82C104.11 168.472 103.294 169.359 102.728 170.403C100.82 173.987 99.8625 190.932 100.581 192.847C101.299 194.762 102.967 196.662 106.304 194.036C109.641 191.411 109.887 188.785 109.887 188.785L108.416 166.665Z" fill="white" stroke="#2E353A" stroke-linecap="round" stroke-linejoin="round"/>
<path d="M147.214 166.271C147.214 166.271 152.142 165.391 153.113 169.213C154.085 173.036 158.126 184.251 156.696 188.785C155.267 193.318 149.769 193.086 145.953 190.692C142.138 188.299 147.214 166.271 147.214 166.271Z" fill="white" stroke="#2E353A" stroke-linecap="round" stroke-linejoin="round"/>
<path d="M124.714 160.188L108.43 166.665L110.556 213.629H144.658L147.214 166.271L132.831 160.406L124.714 160.188Z" fill="white" stroke="#2E353A" stroke-linecap="round" stroke-linejoin="round"/>
<path d="M122.742 174.212H111.45V176.028H122.742V174.212Z" fill="#2E353A" stroke="#2E353A" stroke-linecap="round" stroke-linejoin="round"/>
<path d="M144.721 174.212H133.429V176.028H144.721V174.212Z" fill="#2E353A" stroke="#2E353A" stroke-linecap="round" stroke-linejoin="round"/>
<path d="M144.756 207.884H110.556V213.629H144.756V207.884Z" fill="#2E353A" stroke="#2E353A" stroke-linecap="round" stroke-linejoin="round"/>
<path d="M130.669 207.645H125.178V210.749H130.669V207.645Z" fill="white" stroke="#2E353A" stroke-miterlimit="10" stroke-linecap="round"/>
<path d="M131.212 166.566L128.079 165.13L125.699 166.25L127.671 172.677L124.312 206.842L127.495 210.271L131.212 206.701L128.945 172.677L131.212 166.566Z" fill="#636C3F"/>
<path d="M135.626 161.836L147.819 166.32L146.15 168.96L135.048 165.074L135.626 161.836Z" fill="#2E353A" stroke="#2E353A" stroke-linecap="round" stroke-linejoin="round"/>
<path d="M126.375 166.848L121.841 171.149C121.841 171.149 119.215 163.75 119.215 162.554C119.215 161.357 122.313 157.78 122.313 157.78L134.013 157.541L138.308 162.793L134.731 170.91L129.719 167.087L126.375 166.848Z" fill="white" stroke="#2E353A" stroke-linecap="round" stroke-linejoin="round"/>
<path d="M119.215 162.525L107.015 167.017L108.684 169.657L119.786 165.771L119.215 162.525Z" fill="#2E353A" stroke="#2E353A" stroke-linecap="round" stroke-linejoin="round"/>
<path d="M134.605 163.504L128.586 168.77L122.693 163.504V149.466H134.605V163.504Z" fill="white"/>
<mask id="mask0_126_13048" style="mask-type:alpha" maskUnits="userSpaceOnUse" x="122" y="149" width="13" height="20">
<path d="M134.605 163.504L128.586 168.77L122.693 163.504V149.466H134.605V163.504Z" fill="white"/>
</mask>
<g mask="url(#mask0_126_13048)">
<g style="mix-blend-mode:multiply">
<path d="M122.51 158.52L126.776 163.469H130.662L134.605 159.118L134.225 154.993L122.693 154.444L122.51 158.52Z" fill="#636C3F"/>
</g>
</g>
<path d="M134.605 163.504L128.586 168.77L122.693 163.504V149.466H134.605V163.504Z" stroke="#2E353A" stroke-linecap="round" stroke-linejoin="round"/>
<path d="M121.405 145.728C121.405 145.728 119.201 145.151 119.42 146.692C119.638 148.234 120.307 151.114 121.405 151.775L122.51 152.437L121.405 145.728Z" fill="white" stroke="#2E353A" stroke-linecap="round" stroke-linejoin="round"/>
<path d="M136.189 145.728C136.189 145.728 138.399 145.151 138.174 146.692C137.949 148.234 137.294 151.114 136.189 151.775L135.083 152.437L136.189 145.728Z" fill="white" stroke="#2E353A" stroke-linecap="round" stroke-linejoin="round"/>
<path d="M137.231 143.172C137.232 141.96 136.971 140.762 136.465 139.661C135.959 138.56 135.22 137.581 134.3 136.792C133.379 136.003 132.299 135.423 131.133 135.092C129.967 134.761 128.743 134.686 127.546 134.873C126.348 135.059 125.205 135.504 124.196 136.174C123.186 136.845 122.334 137.726 121.697 138.758C121.061 139.79 120.655 140.947 120.509 142.15C120.363 143.353 120.478 144.574 120.849 145.728L122.961 155.774L126.861 161.251H130.627L134.415 156.478L136.731 145.96C137.055 145.066 137.224 144.123 137.231 143.172Z" fill="white" stroke="#2E353A" stroke-linecap="round" stroke-linejoin="round"/>
<path d="M122.496 144.841C122.496 144.841 123.841 143.384 125.059 143.869C126.277 144.355 125.798 145.819 129.325 146.186C131.311 146.428 133.325 146.216 135.217 145.566L135.407 142.511L122.496 140.701V144.841Z" fill="#636C3F"/>
<path d="M135.422 142.511C134.952 143.562 134.655 144.681 134.542 145.827C134.542 147.15 135.647 149.797 135.647 149.797C135.647 149.797 138.294 144.278 138.076 142.292C137.857 140.307 135.203 141.849 135.422 142.511Z" fill="#2E353A" stroke="#2E353A" stroke-linecap="round" stroke-linejoin="round"/>
<path d="M121.51 149.361C121.51 149.361 121.51 149.016 121.567 148.502C121.693 147.094 122.024 144.327 122.834 143.834C123.939 143.172 123.827 139.695 123.827 139.695C123.827 139.695 122.285 141.434 127.586 143.215C132.887 144.996 137.189 144.292 140.061 140.54C142.933 136.787 140.279 134.133 139.843 135.457C139.406 136.78 138.512 138.554 136.97 137.224C135.429 135.893 132.993 133.253 128.579 133.253C124.165 133.253 122.172 137.224 122.172 137.224C121.464 137.571 120.864 138.104 120.436 138.766C120.008 139.429 119.769 140.195 119.743 140.983C119.743 143.616 121.51 149.361 121.51 149.361Z" fill="#2E353A" stroke="#2E353A" stroke-linecap="round" stroke-linejoin="round"/>
<path d="M137.048 142.37C133.922 142.497 131.261 140.392 128.543 138.533C125.826 136.675 123.989 138.533 123.989 138.533C124.199 137.523 124.737 136.611 125.518 135.938C126.3 135.265 127.281 134.868 128.311 134.809C132 134.57 133.239 139.638 136.639 140.082" stroke="white" stroke-width="0.5" stroke-linecap="round" stroke-linejoin="round"/>
<path d="M128.234 149.178H120.849L121.63 151.613C121.704 151.844 121.85 152.046 122.046 152.189C122.242 152.332 122.479 152.409 122.721 152.409H126.537C126.791 152.409 127.038 152.323 127.239 152.166C127.439 152.009 127.581 151.79 127.642 151.543L128.234 149.178Z" fill="#2E353A" stroke="#2E353A" stroke-linecap="round" stroke-linejoin="round"/>
<path d="M136.435 149.178H129.043L129.825 151.613C129.899 151.844 130.045 152.046 130.241 152.189C130.437 152.332 130.673 152.409 130.916 152.409H134.732C134.987 152.409 135.235 152.324 135.436 152.167C135.638 152.01 135.781 151.791 135.844 151.543L136.435 149.178Z" fill="#2E353A" stroke="#2E353A" stroke-linecap="round" stroke-linejoin="round"/>
<path d="M120.849 149.178L120.476 145.566" stroke="#2E353A" stroke-linecap="round" stroke-linejoin="round"/>
<path d="M136.435 149.178L137.273 145.749" stroke="#2E353A" stroke-linecap="round" stroke-linejoin="round"/>
<path d="M128.234 149.178H129.043" stroke="#2E353A" stroke-linecap="round" stroke-linejoin="round"/>
<path d="M128.03 150.325H129.339" stroke="#2E353A" stroke-linecap="round" stroke-linejoin="round"/>
<path d="M130.177 154.993C130.177 154.993 129.62 155.83 128.966 155.83C128.311 155.83 127.755 154.993 127.755 154.993" stroke="#2E353A" stroke-linecap="round" stroke-linejoin="round"/>
<path d="M110.38 210.031C110.38 210.031 104.41 212.657 104.41 214.333C104.41 216.008 106.318 226.744 107.515 229.117C108.712 231.489 109.662 232.461 111.809 231.025C113.957 229.588 110.38 210.031 110.38 210.031Z" fill="#2E353A" stroke="#2E353A" stroke-linecap="round" stroke-linejoin="round"/>
<path d="M147.622 204.54H144.278V225.308H147.622V204.54Z" fill="#2E353A" stroke="#2E353A" stroke-linecap="round" stroke-linejoin="round"/>
<path d="M149.29 200.246H142.609V206.455H149.29V200.246Z" fill="#2E353A" stroke="#2E353A" stroke-linecap="round" stroke-linejoin="round"/>
<path d="M156.457 184.969C156.457 184.969 157.865 190.221 154.303 192.129C152.958 192.833 146.664 191.65 139.265 189.742C131.866 187.834 127.804 186.398 127.804 186.398L107.036 185.919C107.036 185.919 105.128 182.104 107.994 179.949C110.859 177.795 121.37 180.907 121.37 180.907L142.856 181.386C142.856 181.386 147.389 179.274 153.599 181.146" fill="white"/>
<path d="M156.457 184.969C156.457 184.969 157.865 190.221 154.303 192.129C152.958 192.833 146.664 191.65 139.265 189.742C131.866 187.834 127.804 186.398 127.804 186.398L107.036 185.919C107.036 185.919 105.128 182.104 107.994 179.949C110.859 177.795 121.37 180.907 121.37 180.907L142.856 181.386C142.856 181.386 147.389 179.274 153.599 181.146" stroke="#2E353A" stroke-linecap="round" stroke-linejoin="round"/>
<path d="M104.192 186.398C104.192 186.398 109.205 182.343 113.027 180.907C116.85 179.471 138.097 178.999 138.097 178.999C138.097 178.999 144.06 180.907 142.87 181.386C141.68 181.864 136.9 182.343 134.753 183.293C132.606 184.244 120.187 192.847 105.185 194.994C101.89 195.466 101.123 195.233 100.412 191.889" fill="white"/>
<path d="M104.192 186.398C104.192 186.398 109.205 182.343 113.027 180.907C116.85 179.471 138.097 178.999 138.097 178.999C138.097 178.999 144.06 180.907 142.87 181.386C141.68 181.864 136.9 182.343 134.753 183.293C132.606 184.244 120.187 192.847 105.185 194.994C101.89 195.466 101.123 195.233 100.412 191.889" stroke="#2E353A" stroke-linecap="round" stroke-linejoin="round"/>
<path d="M134.64 179.252L135.041 182.681H136.456L136.654 179.055L134.64 179.252Z" fill="#2E353A" stroke="#2E353A" stroke-linecap="round" stroke-linejoin="round"/>
</svg>
