<svg width="270" height="270" viewBox="0 0 270 270" fill="none" xmlns="http://www.w3.org/2000/svg">
<path d="M241.92 68.7474C241.92 68.7474 226.233 37.3356 191.587 32.6808C156.94 28.026 132.727 50.7114 107.249 62.3484C93.9006 68.4396 78.6294 66.0744 64.476 69.0228C19.143 78.4512 2.06819 137.527 20.9466 171.121C37.2924 200.205 66.0528 215.325 109.858 218.819C153.662 222.313 184.378 226.379 223.609 197.878C262.84 169.376 260.215 110.047 241.92 68.7474Z" fill="#636C3F"/>
<path opacity="0.7" d="M241.92 68.7474C241.92 68.7474 226.233 37.3356 191.587 32.6808C156.94 28.026 132.727 50.7114 107.249 62.3484C93.9006 68.4396 78.6294 66.0744 64.476 69.0228C19.143 78.4512 2.06819 137.527 20.9466 171.121C37.2924 200.205 66.0528 215.325 109.858 218.819C153.662 222.313 184.378 226.379 223.609 197.878C262.84 169.376 260.215 110.047 241.92 68.7474Z" fill="white"/>
<path d="M234.781 207.171C236.65 196.43 254.394 175.883 249.259 163.274C244.123 150.665 231.509 190.814 226.838 191.295C222.167 191.776 226.373 173.081 232.913 155.336C239.452 137.592 244.588 118.908 232.913 111.904C221.238 104.9 221.702 160.472 218.9 158.603C216.097 156.735 220.768 133.385 217.501 118.908C214.234 104.431 206.761 116.105 206.761 132.948C206.761 149.791 211.896 159.1 208.159 160.488C204.422 161.876 192.958 156.654 193.217 174.965C193.477 193.277 207.695 215.131 202.554 212.328C197.413 209.525 188.077 198.785 189.945 216.065C191.268 228.28 200.745 240.019 206.199 245.857H231.169C234.976 241.942 242.374 233.69 247.369 224.003C254.394 210.443 232.913 217.917 234.781 207.171Z" fill="#636C3F"/>
<path d="M204.422 244.766C199.8 238.14 197.64 230.04 195.48 222.48C194.4 217.62 194.4 212.22 198.18 208.98C201.96 206.28 204.12 211.14 206.28 213.3C207.9 212.22 206.82 210.6 206.82 209.52C205.743 200.922 205.202 192.265 205.2 183.6C205.2 178.2 207.36 173.88 209.52 169.02C210.6 167.4 211.68 165.78 213.3 165.24C214.92 164.7 216.54 165.24 217.08 166.86C218.16 170.64 218.16 174.42 218.7 178.2C219.78 177.12 219.24 175.5 219.24 174.42C221.4 158.76 219.78 143.64 224.64 128.52C225.18 127.44 226.8 126.36 227.88 126.9C231.66 127.44 231.66 132.3 231.66 135.54C233.82 151.2 228.96 166.32 227.34 181.98C227.34 183.06 226.8 184.14 227.88 185.22C228.42 181.44 230.58 177.66 231.66 173.88C232.2 172.26 233.28 170.1 234.9 169.02C235.98 168.48 237.06 169.02 238.14 170.1C240.3 173.34 240.84 176.58 240.3 180.36C238.68 189.54 235.44 197.1 231.66 205.2L230.04 210.06C229.5 213.3 227.34 217.08 229.5 219.78C233.28 219.24 234.36 214.92 237.6 212.76C240.84 210.6 241.92 213.3 242.46 215.46C244.62 226.26 240.84 235.98 235.397 244.744" stroke="#263238" stroke-linecap="round" stroke-linejoin="round"/>
<path d="M219.548 242.703C219.548 242.703 218.29 217.469 221.443 194.449" stroke="#263238" stroke-linecap="round" stroke-linejoin="round"/>
<path d="M209.142 226.616L219.548 237.973L228.695 230.083" stroke="#263238" stroke-linecap="round" stroke-linejoin="round"/>
<path d="M216.707 198.234L219.548 212.738L227.75 198.234" stroke="#263238" stroke-linecap="round" stroke-linejoin="round"/>
<path d="M221.756 190.663L223.646 177.104" stroke="#263238" stroke-linecap="round" stroke-linejoin="round"/>
<path d="M72.279 80.0874H38.2698V122.602H72.279V80.0874Z" stroke="#263238" stroke-linecap="round" stroke-linejoin="round"/>
<path d="M114.793 80.0874H80.7839V122.602H114.793V80.0874Z" stroke="#263238" stroke-linecap="round" stroke-linejoin="round"/>
<path d="M72.279 129.557H38.2698V172.071H72.279V129.557Z" stroke="#263238" stroke-linecap="round" stroke-linejoin="round"/>
<path d="M114.793 129.557H80.7839V172.071H114.793V129.557Z" stroke="#263238" stroke-linecap="round" stroke-linejoin="round"/>
<path d="M72.279 179.026H38.2698V221.54H72.279V179.026Z" stroke="#263238" stroke-linecap="round" stroke-linejoin="round"/>
<path d="M114.793 179.026H80.7839V221.54H114.793V179.026Z" stroke="#263238" stroke-linecap="round" stroke-linejoin="round"/>
<path d="M76.9176 36.0288C66.8724 36.0288 57.2385 40.0193 50.1355 47.1223C43.0324 54.2254 39.042 63.8592 39.042 73.9044H114.793C114.793 63.8592 110.803 54.2254 103.7 47.1223C96.5966 40.0193 86.9628 36.0288 76.9176 36.0288V36.0288Z" stroke="#263238" stroke-linecap="round" stroke-linejoin="round"/>
<path d="M125.901 56.3328C125.901 56.3328 125.901 48.2328 111.996 49.8528C98.091 51.4728 92.2644 63.7578 88.0632 66.3444C83.862 68.931 76.0968 71.2044 75.7728 75.0762C75.4488 78.948 79.0128 80.5734 75.4488 83.484C71.8848 86.3946 66.42 88.9974 67.689 92.88C68.958 96.7626 72.549 100.64 70.929 103.232C69.309 105.824 64.7838 108.405 68.985 111.332C73.1862 114.259 75.1302 114.89 75.1302 118.768C75.1302 122.645 73.5102 125.248 77.3982 126.533C81.2862 127.818 83.538 125.237 85.806 130.086C88.074 134.935 90.3312 136.231 94.2138 135.259C98.0964 134.287 103.588 132.673 105.554 133.969C107.519 135.265 113.654 138.829 116.224 136.879C118.795 134.93 121.084 132.019 124.956 133.639C128.828 135.259 132.073 137.522 133.688 134.611C135.302 131.701 133.688 131.053 139.833 129.751C145.978 128.45 148.241 128.785 148.241 123.611C148.241 118.438 147.917 117.131 150.827 114.88C153.738 112.628 156.325 113.584 155.358 108.086C154.391 102.589 152.447 101.293 153.414 95.796C154.381 90.2988 151.794 88.3602 149.855 86.7402C147.917 85.1202 145.654 82.215 146.302 79.3044C146.95 76.3938 151.799 76.0644 146.945 70.8966C142.09 65.7288 139.833 67.338 138.845 63.4554C137.857 59.5728 134.633 51.1596 125.901 56.3328Z" fill="#263238" stroke="#263238" stroke-linecap="round" stroke-linejoin="round"/>
<path d="M113.486 66.069C111.494 69.2226 109.955 72.7812 106.747 75.789C102.114 80.109 90.2448 83.889 89.667 87.9498C89.0892 92.0106 91.1142 94.3164 87.0642 97.7886C83.0142 101.261 76.6422 102.109 76.6422 105.608C76.6422 109.107 78.3756 110.241 77.5116 112.844" stroke="#616161" stroke-miterlimit="10"/>
<path d="M122.094 62.181C122.094 62.181 120.647 58.401 116.591 62.181C116.278 62.4726 115.981 62.775 115.7 63.0828" stroke="#616161" stroke-miterlimit="10"/>
<path d="M89.3916 78.7266C85.8276 79.5906 83.0142 80.2116 82.7226 82.7388C82.1394 87.6582 83.0088 90.8388 79.5366 92.2914C76.0644 93.744 71.4366 96.0714 72.8784 98.9496C74.3202 101.828 74.6118 102.73 74.3256 103.869" stroke="#616161" stroke-miterlimit="10"/>
<path d="M121.5 57.5478C121.5 57.5478 113.4 52.3422 109.08 56.97C104.76 61.5978 106.763 67.392 100.105 73.764C98.4141 75.3386 96.4182 76.5497 94.2407 77.3226" stroke="#616161" stroke-miterlimit="10"/>
<path d="M149.672 98.604C150.158 99.3584 150.829 99.9757 151.621 100.397" stroke="#616161" stroke-miterlimit="10"/>
<path d="M127.305 64.8C127.305 64.8 134.541 62.4834 136.274 66.5334C138.008 70.5834 138.883 77.8248 142.069 78.9858C145.255 80.1468 146.696 81.8802 146.696 88.2468C146.693 90.2987 146.998 92.3395 147.604 94.3002" stroke="#616161" stroke-miterlimit="10"/>
<path d="M80.406 116.316C82.7226 112.536 85.9032 114.005 86.1948 109.949C86.4864 105.894 84.1698 104.738 86.481 102.136C88.7922 99.5329 92.5614 98.3557 92.5614 98.3557" stroke="#616161" stroke-miterlimit="10"/>
<path d="M83.5865 124.427C82.5169 123.541 81.5883 122.498 80.8325 121.333" stroke="#616161" stroke-miterlimit="10"/>
<path d="M163.739 245.84C163.739 245.84 164.705 232.583 158.879 219.321C153.052 206.059 151.74 205.103 151.74 201.22C151.74 197.338 155.639 192.807 156.287 184.075C156.935 175.343 156.611 171.115 156.611 171.115C156.611 171.115 170.516 193.104 180.22 194.4C189.923 195.696 195.745 186.64 192.186 174.35C188.627 162.059 173.102 152.037 166.963 143.948C160.823 135.859 146.907 135.848 139.795 135.848C132.683 135.848 129.125 133.261 127.829 128.412C126.533 123.563 126.538 113.832 126.538 113.832C126.538 113.832 118.125 119.005 103.896 113.184C103.896 113.184 105.192 130.972 103.572 133.558C101.952 136.145 99.7055 138.78 90.0017 138.78C80.2979 138.78 72.2141 140.724 67.6889 145.26C63.1637 149.796 44.4041 167.897 39.5549 175.014C34.7057 182.131 37.2869 189.891 43.1081 192.802C48.9293 195.712 54.7505 193.12 58.9571 189.243C63.1637 185.366 76.4207 173.07 76.4207 173.07C76.4207 173.07 76.4207 180.511 79.9793 191.182C83.5379 201.852 86.4593 200.561 83.8565 208.321C81.2537 216.081 76.0967 218.349 74.4821 228.371C73.515 234.141 73.0812 239.986 73.1861 245.835" fill="#636C3F"/>
<mask id="mask0_126_13137" style="mask-type:alpha" maskUnits="userSpaceOnUse" x="37" y="113" width="157" height="133">
<path d="M163.739 245.84C163.739 245.84 164.705 232.583 158.879 219.321C153.052 206.059 151.74 205.103 151.74 201.22C151.74 197.338 155.639 192.807 156.287 184.075C156.935 175.343 156.611 171.115 156.611 171.115C156.611 171.115 170.516 193.104 180.22 194.4C189.923 195.696 195.745 186.64 192.186 174.35C188.627 162.059 173.102 152.037 166.963 143.948C160.823 135.859 146.907 135.848 139.795 135.848C132.683 135.848 129.125 133.261 127.829 128.412C126.533 123.563 126.538 113.832 126.538 113.832C126.538 113.832 118.125 119.005 103.896 113.184C103.896 113.184 105.192 130.972 103.572 133.558C101.952 136.145 99.7055 138.78 90.0017 138.78C80.2979 138.78 72.2141 140.724 67.6889 145.26C63.1637 149.796 44.4041 167.897 39.5549 175.014C34.7057 182.131 37.2869 189.891 43.1081 192.802C48.9293 195.712 54.7505 193.12 58.9571 189.243C63.1637 185.366 76.4207 173.07 76.4207 173.07C76.4207 173.07 76.4207 180.511 79.9793 191.182C83.5379 201.852 86.4593 200.561 83.8565 208.321C81.2537 216.081 76.0967 218.349 74.4821 228.371C73.515 234.141 73.0812 239.986 73.1861 245.835" fill="white"/>
</mask>
<g mask="url(#mask0_126_13137)">
<g opacity="0.2">
<path d="M142.517 145.989C142.295 145.989 141.485 146.529 142.517 148.1C143.548 146.54 142.738 145.989 142.517 145.989Z" fill="black"/>
<path d="M168.437 145.989C168.215 145.989 167.405 146.529 168.437 148.1C169.468 146.54 168.658 145.989 168.437 145.989Z" fill="black"/>
<path d="M168.437 158.949C168.215 158.949 167.405 159.489 168.437 161.06C169.468 159.5 168.658 158.949 168.437 158.949Z" fill="black"/>
<path d="M142.517 158.949C142.295 158.949 141.485 159.489 142.517 161.06C143.548 159.5 142.738 158.949 142.517 158.949Z" fill="black"/>
<path d="M155.477 152.469C155.255 152.469 154.445 153.009 155.477 154.58C156.508 153.02 155.698 152.469 155.477 152.469Z" fill="black"/>
<path d="M155.477 139.509C155.255 139.509 154.445 140.049 155.477 141.62C156.508 140.06 155.698 139.509 155.477 139.509Z" fill="black"/>
<path d="M143.1 148.424C144.968 148.527 145.033 147.55 144.925 147.344C144.817 147.139 143.905 146.745 143.1 148.424Z" fill="black"/>
<path d="M170.602 148.052L169.884 147.312C169.49 147.592 169.183 147.978 168.998 148.424C169.561 148.517 170.138 148.383 170.602 148.052Z" fill="black"/>
<path d="M156.06 154.904C157.928 155.007 157.993 154.03 157.885 153.824C157.777 153.619 156.865 153.225 156.06 154.904Z" fill="black"/>
<path d="M156.06 141.944C157.928 142.047 157.993 141.07 157.885 140.864C157.777 140.659 156.865 140.265 156.06 141.944Z" fill="black"/>
<path d="M166.05 147.361C165.942 147.55 166.012 148.527 167.875 148.441C167.049 146.745 166.163 147.166 166.05 147.361Z" fill="black"/>
<path d="M166.05 160.321C166.012 160.458 166.019 160.603 166.069 160.736C166.12 160.869 166.211 160.983 166.331 161.06C166.79 161.35 167.338 161.465 167.875 161.384C167.824 161.273 167.766 161.165 167.702 161.06C166.93 159.764 166.158 160.137 166.05 160.321Z" fill="black"/>
<path d="M153.09 153.841C152.982 154.03 153.052 155.007 154.915 154.921C154.089 153.225 153.203 153.646 153.09 153.841Z" fill="black"/>
<path d="M153.09 140.881C152.982 141.07 153.052 142.047 154.915 141.961C154.089 140.265 153.203 140.686 153.09 140.881Z" fill="black"/>
<path d="M142.517 184.869C142.295 184.869 141.485 185.409 142.517 186.98C143.548 185.42 142.738 184.869 142.517 184.869Z" fill="black"/>
<path d="M168.437 184.869C168.275 184.869 167.81 185.161 167.956 185.911C168.183 186.154 168.41 186.397 168.642 186.635C169.344 185.339 168.642 184.869 168.437 184.869Z" fill="black"/>
<path d="M142.517 197.829C142.295 197.829 141.485 198.369 142.517 199.94C143.548 198.38 142.738 197.829 142.517 197.829Z" fill="black"/>
<path d="M181.397 191.349C181.175 191.349 180.365 191.889 181.397 193.46C182.428 191.9 181.618 191.349 181.397 191.349Z" fill="black"/>
<path d="M142.517 171.909C142.295 171.909 141.485 172.449 142.517 174.02C143.548 172.46 142.738 171.909 142.517 171.909Z" fill="black"/>
<path d="M168.437 171.909C168.215 171.909 167.405 172.449 168.437 174.02C169.468 172.46 168.658 171.909 168.437 171.909Z" fill="black"/>
<path d="M155.477 178.389C155.255 178.389 154.445 178.929 155.477 180.5C156.508 178.94 155.698 178.389 155.477 178.389Z" fill="black"/>
<path d="M181.397 178.389C181.175 178.389 180.365 178.929 181.397 180.5C182.428 178.94 181.618 178.389 181.397 178.389Z" fill="black"/>
<path d="M155.477 165.429C155.255 165.429 154.445 165.969 155.477 167.54C156.508 165.98 155.698 165.429 155.477 165.429Z" fill="black"/>
<path d="M181.397 165.429C181.175 165.429 180.365 165.969 181.397 167.54C182.428 165.98 181.618 165.429 181.397 165.429Z" fill="black"/>
<path d="M143.1 187.304C144.968 187.407 145.033 186.43 144.925 186.224C144.817 186.019 143.905 185.625 143.1 187.304Z" fill="black"/>
<path d="M169.101 187.11L169.295 187.31C170.867 187.31 170.915 186.419 170.824 186.23C170.732 186.041 169.895 185.663 169.101 187.11Z" fill="black"/>
<path d="M144.493 199.006C144.257 199.001 144.027 199.082 143.845 199.233C143.735 199.32 143.634 199.418 143.543 199.525C143.434 199.655 143.337 199.794 143.251 199.94C143.253 199.951 143.253 199.962 143.251 199.973C143.203 200.059 143.149 200.156 143.1 200.264C143.637 200.346 144.185 200.231 144.644 199.94C144.683 199.911 144.719 199.878 144.752 199.843C144.806 199.785 144.852 199.72 144.887 199.649C144.94 199.587 144.972 199.51 144.979 199.429C144.987 199.348 144.969 199.266 144.928 199.196C144.887 199.126 144.825 199.07 144.751 199.036C144.677 199.002 144.595 198.991 144.515 199.006H144.493Z" fill="black"/>
<path d="M181.98 193.784C183.843 193.887 183.913 192.91 183.805 192.704C183.697 192.499 182.785 192.105 181.98 193.784Z" fill="black"/>
<path d="M143.1 174.344C144.968 174.447 145.033 173.47 144.925 173.264C144.817 173.059 143.905 172.665 143.1 174.344Z" fill="black"/>
<path d="M170.823 173.281C170.71 173.086 169.824 172.665 168.998 174.361C170.861 174.447 170.931 173.47 170.823 173.281Z" fill="black"/>
<path d="M156.06 180.824C156.216 180.833 156.373 180.833 156.53 180.824C156.53 180.554 156.557 180.284 156.568 180.036C156.363 180.274 156.192 180.54 156.06 180.824Z" fill="black"/>
<path d="M181.98 180.824C183.843 180.927 183.913 179.95 183.805 179.744C183.697 179.539 182.785 179.145 181.98 180.824Z" fill="black"/>
<path d="M156.06 167.864C157.928 167.967 157.993 166.99 157.885 166.784C157.777 166.579 156.865 166.185 156.06 167.864Z" fill="black"/>
<path d="M181.98 167.864C183.843 167.967 183.913 166.99 183.805 166.784C183.697 166.579 182.785 166.185 181.98 167.864Z" fill="black"/>
<path d="M154.057 193.741L154.354 192.937C153.727 192.289 153.176 192.569 153.09 192.721C153.004 192.872 153.031 193.552 154.057 193.741Z" fill="black"/>
<path d="M191.97 186.241C191.93 186.395 191.943 186.559 192.009 186.704C192.075 186.85 192.189 186.968 192.332 187.04C192.445 186.727 192.542 186.403 192.634 186.073C192.519 186.034 192.395 186.029 192.277 186.059C192.16 186.089 192.053 186.152 191.97 186.241Z" fill="black"/>
<path d="M179.01 192.721C178.897 192.91 178.972 193.887 180.835 193.801C180.009 192.105 179.123 192.526 179.01 192.721Z" fill="black"/>
<path d="M166.05 173.281C165.942 173.47 166.012 174.447 167.875 174.361C167.049 172.665 166.163 173.086 166.05 173.281Z" fill="black"/>
<path d="M153.09 179.761C152.982 179.95 153.052 180.927 154.915 180.841C154.089 179.145 153.203 179.566 153.09 179.761Z" fill="black"/>
<path d="M179.01 179.761C178.897 179.95 178.972 180.927 180.835 180.841C180.009 179.145 179.123 179.566 179.01 179.761Z" fill="black"/>
<path d="M153.09 166.801C152.982 166.99 153.052 167.967 154.915 167.881C154.089 166.185 153.203 166.606 153.09 166.801Z" fill="black"/>
<path d="M179.01 166.801C178.897 166.99 178.972 167.967 180.835 167.881C180.009 166.185 179.123 166.606 179.01 166.801Z" fill="black"/>
<path d="M170.543 161.06C170.662 160.983 170.754 160.869 170.804 160.736C170.855 160.603 170.861 160.458 170.823 160.321C170.715 160.137 169.943 159.781 169.171 161.06C169.107 161.165 169.049 161.273 168.998 161.384C169.535 161.466 170.084 161.351 170.543 161.06Z" fill="black"/>
<path d="M144.623 161.06C144.742 160.983 144.834 160.869 144.884 160.736C144.935 160.603 144.941 160.458 144.904 160.321C144.796 160.137 144.023 159.781 143.251 161.06C143.187 161.165 143.129 161.273 143.078 161.384C143.615 161.466 144.164 161.351 144.623 161.06Z" fill="black"/>
<path d="M142.517 223.749C142.295 223.749 141.485 224.289 142.517 225.86C143.548 224.3 142.738 223.749 142.517 223.749Z" fill="black"/>
<path d="M142.517 236.709C142.295 236.709 141.485 237.249 142.517 238.82C143.548 237.26 142.738 236.709 142.517 236.709Z" fill="black"/>
<path d="M155.477 230.229C155.255 230.229 154.445 230.769 155.477 232.34C156.508 230.78 155.698 230.229 155.477 230.229Z" fill="black"/>
<path d="M142.517 210.789C142.295 210.789 141.485 211.329 142.517 212.9C143.548 211.34 142.738 210.789 142.517 210.789Z" fill="black"/>
<path d="M155.477 217.269C155.255 217.269 154.445 217.809 155.477 219.38C156.508 217.82 155.698 217.269 155.477 217.269Z" fill="black"/>
<path d="M143.1 226.184C144.968 226.287 145.033 225.31 144.925 225.104C144.817 224.899 143.905 224.505 143.1 226.184Z" fill="black"/>
<path d="M144.493 237.886H144.38C144.24 237.896 144.106 237.939 143.986 238.01L143.845 238.108C143.605 238.304 143.403 238.544 143.251 238.815C143.187 238.919 143.129 239.028 143.078 239.139C143.615 239.22 144.164 239.105 144.623 238.815C144.742 238.738 144.834 238.624 144.884 238.491C144.935 238.358 144.941 238.212 144.904 238.075C144.853 238.016 144.79 237.968 144.719 237.936C144.648 237.903 144.571 237.886 144.493 237.886Z" fill="black"/>
<path d="M156.06 232.664C157.928 232.767 157.993 231.79 157.885 231.584C157.777 231.379 156.865 230.985 156.06 232.664Z" fill="black"/>
<path d="M143.1 213.224C144.968 213.327 145.033 212.35 144.925 212.144C144.817 211.939 143.905 211.545 143.1 213.224Z" fill="black"/>
<path d="M156.06 219.704C157.928 219.807 157.993 218.83 157.885 218.624C157.777 218.419 156.865 218.025 156.06 219.704Z" fill="black"/>
<path d="M153.09 231.601C152.982 231.79 153.052 232.767 154.915 232.681C154.089 230.985 153.203 231.406 153.09 231.601Z" fill="black"/>
<path d="M153.09 218.641C152.982 218.83 153.052 219.807 154.915 219.721C154.089 218.025 153.203 218.446 153.09 218.641Z" fill="black"/>
<path d="M155.477 243.189C155.255 243.189 154.445 243.729 155.477 245.3C156.508 243.74 155.698 243.189 155.477 243.189Z" fill="black"/>
<path d="M156.06 245.624C157.928 245.727 157.993 244.75 157.885 244.544C157.777 244.339 156.865 243.945 156.06 245.624Z" fill="black"/>
<path d="M153.09 244.561C152.982 244.75 153.052 245.727 154.915 245.641C154.089 243.945 153.203 244.366 153.09 244.561Z" fill="black"/>
<path d="M116.597 120.069C116.375 120.069 115.565 120.609 116.597 122.18C117.628 120.62 116.818 120.069 116.597 120.069Z" fill="black"/>
<path d="M103.945 113.767C103.945 114.059 103.988 114.464 104.02 114.971C104.123 114.784 104.17 114.572 104.157 114.358C104.143 114.145 104.07 113.94 103.945 113.767Z" fill="black"/>
<path d="M118.573 121.246C118.337 121.241 118.107 121.322 117.925 121.473C117.815 121.56 117.714 121.658 117.623 121.765C117.514 121.895 117.417 122.034 117.331 122.18V122.213C117.283 122.299 117.229 122.396 117.18 122.504C117.717 122.586 118.265 122.471 118.724 122.18C118.763 122.151 118.799 122.118 118.832 122.083C118.886 122.025 118.932 121.96 118.967 121.889C119.005 121.821 119.029 121.746 119.035 121.669C119.042 121.592 119.031 121.514 119.005 121.441C118.953 121.378 118.886 121.327 118.812 121.294C118.737 121.26 118.655 121.244 118.573 121.246Z" fill="black"/>
<path d="M104.22 116.024C106.088 116.127 106.153 115.15 106.045 114.944C105.937 114.739 105.025 114.345 104.22 116.024Z" fill="black"/>
<path d="M91.1735 146.588C91.164 146.506 91.1402 146.425 91.1033 146.351C91.0877 146.317 91.0696 146.285 91.0493 146.254C91.015 146.201 90.9732 146.154 90.9251 146.113C90.8863 146.08 90.8426 146.052 90.7955 146.032C90.7622 146.015 90.7252 146.006 90.6875 146.006C90.6499 146.006 90.6128 146.015 90.5795 146.032C90.3311 146.14 89.9261 146.572 90.3797 147.577C90.4696 147.764 90.5725 147.944 90.6875 148.117C90.8026 147.944 90.9054 147.764 90.9953 147.577C91.1227 147.323 91.1928 147.045 91.2005 146.761C91.2034 146.711 91.2034 146.66 91.2005 146.61L91.1735 146.588Z" fill="black"/>
<path d="M116.597 145.989C116.375 145.989 115.565 146.529 116.597 148.1C117.628 146.54 116.818 145.989 116.597 145.989Z" fill="black"/>
<path d="M116.597 158.949C116.375 158.949 115.565 159.489 116.597 161.06C117.628 159.5 116.818 158.949 116.597 158.949Z" fill="black"/>
<path d="M91.1735 159.548C91.164 159.466 91.1402 159.385 91.1033 159.311C91.0877 159.277 91.0696 159.245 91.0493 159.214C91.015 159.161 90.9732 159.114 90.9251 159.073C90.8863 159.04 90.8426 159.012 90.7955 158.992C90.7622 158.975 90.7252 158.966 90.6875 158.966C90.6499 158.966 90.6128 158.975 90.5795 158.992C90.3311 159.1 89.9261 159.532 90.3797 160.537C90.4696 160.724 90.5725 160.904 90.6875 161.077C90.8026 160.904 90.9054 160.724 90.9953 160.537C91.1227 160.283 91.1928 160.005 91.2005 159.721C91.2034 159.671 91.2034 159.62 91.2005 159.57L91.1735 159.548Z" fill="black"/>
<path d="M103.637 152.469C103.415 152.469 102.605 153.009 103.637 154.58C104.668 153.02 103.858 152.469 103.637 152.469Z" fill="black"/>
<path d="M129.557 152.469C129.335 152.469 128.525 153.009 129.557 154.58C130.588 153.02 129.778 152.469 129.557 152.469Z" fill="black"/>
<path d="M116.597 133.029C116.375 133.029 115.565 133.569 116.597 135.14C117.628 133.58 116.818 133.029 116.597 133.029Z" fill="black"/>
<path d="M103.637 139.509C103.415 139.509 102.605 140.049 103.637 141.62C104.668 140.06 103.858 139.509 103.637 139.509Z" fill="black"/>
<path d="M129.557 139.509C129.335 139.509 128.525 140.049 129.557 141.62C130.588 140.06 129.778 139.509 129.557 139.509Z" fill="black"/>
<path d="M91.26 148.424C93.1284 148.527 93.1932 147.55 93.0852 147.344C92.9772 147.139 92.0646 146.745 91.26 148.424Z" fill="black"/>
<path d="M117.18 148.424C119.043 148.527 119.113 147.55 119.005 147.344C118.897 147.139 117.985 146.745 117.18 148.424Z" fill="black"/>
<path d="M104.22 154.904C106.088 155.007 106.153 154.03 106.045 153.824C105.937 153.619 105.025 153.225 104.22 154.904Z" fill="black"/>
<path d="M130.14 154.904C132.003 155.007 132.073 154.03 131.965 153.824C131.857 153.619 130.944 153.225 130.14 154.904Z" fill="black"/>
<path d="M117.18 135.464C119.043 135.567 119.113 134.59 119.005 134.384C118.897 134.179 117.985 133.785 117.18 135.464Z" fill="black"/>
<path d="M104.22 141.944C106.088 142.047 106.153 141.07 106.045 140.864C105.937 140.659 105.025 140.265 104.22 141.944Z" fill="black"/>
<path d="M130.14 141.944C132.003 142.047 132.073 141.07 131.965 140.864C131.857 140.659 130.944 140.265 130.14 141.944Z" fill="black"/>
<path d="M106.024 127.921C105.916 127.737 105.127 127.381 104.344 128.704C104.344 128.801 104.344 128.893 104.344 128.984C106.061 129.06 106.132 128.104 106.024 127.921Z" fill="black"/>
<path d="M114.21 147.361C114.102 147.55 114.172 148.527 116.035 148.441C115.209 146.745 114.323 147.166 114.21 147.361Z" fill="black"/>
<path d="M114.21 160.321C114.172 160.458 114.179 160.603 114.229 160.736C114.28 160.869 114.371 160.983 114.491 161.06C114.95 161.35 115.498 161.465 116.035 161.384C115.984 161.273 115.926 161.165 115.862 161.06C115.09 159.764 114.318 160.137 114.21 160.321Z" fill="black"/>
<path d="M101.25 153.841C101.142 154.03 101.212 155.007 103.075 154.921C102.249 153.225 101.363 153.646 101.25 153.841Z" fill="black"/>
<path d="M140.13 147.361C140.017 147.55 140.092 148.527 141.955 148.441C141.129 146.745 140.243 147.166 140.13 147.361Z" fill="black"/>
<path d="M141.782 161.06C141.01 159.764 140.238 160.137 140.13 160.321C140.092 160.458 140.099 160.603 140.149 160.736C140.2 160.869 140.291 160.983 140.411 161.06C140.87 161.351 141.418 161.466 141.955 161.384C141.904 161.273 141.847 161.165 141.782 161.06Z" fill="black"/>
<path d="M127.17 153.841C127.057 154.03 127.132 155.007 128.995 154.921C128.169 153.225 127.283 153.646 127.17 153.841Z" fill="black"/>
<path d="M114.21 134.401C114.102 134.59 114.172 135.567 116.035 135.481C115.209 133.785 114.323 134.206 114.21 134.401Z" fill="black"/>
<path d="M101.25 140.881C101.142 141.07 101.212 142.047 103.075 141.961C102.249 140.265 101.363 140.686 101.25 140.881Z" fill="black"/>
<path d="M127.17 140.881C127.057 141.07 127.132 142.047 128.995 141.961C128.169 140.265 127.283 140.686 127.17 140.881Z" fill="black"/>
<path d="M127.98 128.903C127.931 128.752 127.883 128.606 127.84 128.45C127.796 128.293 127.721 127.98 127.667 127.726C127.574 127.716 127.481 127.728 127.394 127.762C127.308 127.796 127.231 127.85 127.17 127.921C127.084 128.066 127.111 128.682 127.98 128.903Z" fill="black"/>
<path d="M115.862 122.18C115.777 122.034 115.679 121.895 115.571 121.765C115.481 121.657 115.38 121.559 115.268 121.473C115.087 121.322 114.857 121.241 114.62 121.246C114.542 121.247 114.465 121.265 114.394 121.298C114.323 121.332 114.26 121.38 114.21 121.441C114.184 121.514 114.173 121.592 114.18 121.669C114.187 121.746 114.21 121.821 114.248 121.889C114.283 121.96 114.329 122.025 114.383 122.083L114.491 122.18C114.95 122.47 115.498 122.585 116.035 122.504C115.987 122.396 115.933 122.299 115.884 122.213L115.862 122.18Z" fill="black"/>
<path d="M91.1735 185.468C91.164 185.386 91.1402 185.305 91.1033 185.231C91.0877 185.197 91.0696 185.165 91.0493 185.134C91.015 185.081 90.9732 185.034 90.9251 184.993C90.8863 184.96 90.8426 184.932 90.7955 184.912C90.7622 184.895 90.7252 184.886 90.6875 184.886C90.6499 184.886 90.6128 184.895 90.5795 184.912C90.3311 185.02 89.9261 185.452 90.3797 186.457C90.4696 186.644 90.5725 186.824 90.6875 186.997C90.8026 186.824 90.9054 186.644 90.9953 186.457C91.1227 186.203 91.1928 185.925 91.2005 185.641C91.2034 185.591 91.2034 185.54 91.2005 185.49L91.1735 185.468Z" fill="black"/>
<path d="M116.597 184.869C116.375 184.869 115.565 185.409 116.597 186.98C117.628 185.42 116.818 184.869 116.597 184.869Z" fill="black"/>
<path d="M116.597 197.829C116.375 197.829 115.565 198.369 116.597 199.94C117.628 198.38 116.818 197.829 116.597 197.829Z" fill="black"/>
<path d="M91.1735 198.428C91.164 198.346 91.1402 198.265 91.1033 198.191C91.0877 198.157 91.0696 198.125 91.0493 198.094C91.015 198.041 90.9732 197.994 90.9251 197.953C90.8863 197.92 90.8426 197.892 90.7955 197.872C90.7624 197.854 90.7253 197.845 90.6875 197.845C90.6498 197.845 90.6127 197.854 90.5795 197.872C90.3311 197.98 89.9261 198.412 90.3797 199.417C90.4696 199.604 90.5725 199.784 90.6875 199.957C90.8026 199.784 90.9054 199.604 90.9953 199.417C91.1227 199.163 91.1928 198.885 91.2005 198.601C91.2034 198.551 91.2034 198.5 91.2005 198.45L91.1735 198.428Z" fill="black"/>
<path d="M103.637 191.349C103.415 191.349 102.605 191.889 103.637 193.46C104.668 191.9 103.858 191.349 103.637 191.349Z" fill="black"/>
<path d="M129.557 191.349C129.335 191.349 128.525 191.889 129.557 193.46C130.588 191.9 129.778 191.349 129.557 191.349Z" fill="black"/>
<path d="M91.1735 172.508C91.164 172.426 91.1402 172.345 91.1033 172.271C91.0877 172.237 91.0696 172.205 91.0493 172.174C91.015 172.121 90.9732 172.074 90.9251 172.033C90.8863 172 90.8426 171.972 90.7955 171.952C90.7622 171.935 90.7252 171.926 90.6875 171.926C90.6499 171.926 90.6128 171.935 90.5795 171.952C90.3311 172.06 89.9261 172.492 90.3797 173.497C90.4696 173.684 90.5725 173.864 90.6875 174.037C90.8026 173.864 90.9054 173.684 90.9953 173.497C91.1227 173.243 91.1928 172.965 91.2005 172.681C91.2034 172.631 91.2034 172.58 91.2005 172.53L91.1735 172.508Z" fill="black"/>
<path d="M116.597 171.909C116.375 171.909 115.565 172.449 116.597 174.02C117.628 172.46 116.818 171.909 116.597 171.909Z" fill="black"/>
<path d="M103.637 178.389C103.415 178.389 102.605 178.929 103.637 180.5C104.668 178.94 103.858 178.389 103.637 178.389Z" fill="black"/>
<path d="M129.557 178.389C129.335 178.389 128.525 178.929 129.557 180.5C130.588 178.94 129.778 178.389 129.557 178.389Z" fill="black"/>
<path d="M103.637 165.429C103.415 165.429 102.605 165.969 103.637 167.54C104.668 165.98 103.858 165.429 103.637 165.429Z" fill="black"/>
<path d="M129.557 165.429C129.335 165.429 128.525 165.969 129.557 167.54C130.588 165.98 129.778 165.429 129.557 165.429Z" fill="black"/>
<path d="M91.26 187.304C93.1284 187.407 93.1932 186.43 93.0852 186.224C92.9772 186.019 92.0646 185.625 91.26 187.304Z" fill="black"/>
<path d="M117.18 187.304C119.043 187.407 119.113 186.43 119.005 186.224C118.897 186.019 117.985 185.625 117.18 187.304Z" fill="black"/>
<path d="M118.573 199.006C118.337 199.001 118.107 199.082 117.925 199.233C117.815 199.32 117.714 199.418 117.623 199.525C117.514 199.655 117.417 199.794 117.331 199.94V199.973C117.283 200.059 117.229 200.156 117.18 200.264C117.717 200.346 118.265 200.231 118.724 199.94C118.763 199.911 118.799 199.878 118.832 199.843C118.886 199.785 118.932 199.72 118.967 199.649C119.005 199.581 119.029 199.506 119.035 199.429C119.042 199.352 119.031 199.274 119.005 199.201C118.953 199.138 118.886 199.087 118.812 199.054C118.737 199.02 118.655 199.004 118.573 199.006Z" fill="black"/>
<path d="M92.6532 199.006C92.417 199.001 92.1869 199.082 92.0052 199.233C91.8952 199.32 91.7939 199.418 91.7028 199.525C91.5943 199.655 91.4968 199.794 91.4112 199.94V199.973C91.3626 200.059 91.3086 200.156 91.26 200.264C91.797 200.346 92.3454 200.231 92.8044 199.94C92.8428 199.911 92.8789 199.878 92.9124 199.843C92.9663 199.785 93.0118 199.72 93.0474 199.649C93.1001 199.587 93.1322 199.51 93.1395 199.429C93.1467 199.348 93.1287 199.266 93.0878 199.196C93.047 199.126 92.9854 199.07 92.9114 199.036C92.8375 199.002 92.7548 198.991 92.6748 199.006H92.6532Z" fill="black"/>
<path d="M104.22 193.784C106.088 193.887 106.153 192.91 106.045 192.704C105.937 192.499 105.025 192.105 104.22 193.784Z" fill="black"/>
<path d="M130.14 193.784C132.003 193.887 132.073 192.91 131.965 192.704C131.857 192.499 130.944 192.105 130.14 193.784Z" fill="black"/>
<path d="M91.26 174.344C93.1284 174.447 93.1932 173.47 93.0852 173.264C92.9772 173.059 92.0646 172.665 91.26 174.344Z" fill="black"/>
<path d="M117.18 174.344C119.043 174.447 119.113 173.47 119.005 173.264C118.897 173.059 117.985 172.665 117.18 174.344Z" fill="black"/>
<path d="M104.22 180.824C106.088 180.927 106.153 179.95 106.045 179.744C105.937 179.539 105.025 179.145 104.22 180.824Z" fill="black"/>
<path d="M130.14 180.824C132.003 180.927 132.073 179.95 131.965 179.744C131.857 179.539 130.944 179.145 130.14 180.824Z" fill="black"/>
<path d="M104.22 167.864C106.088 167.967 106.153 166.99 106.045 166.784C105.937 166.579 105.025 166.185 104.22 167.864Z" fill="black"/>
<path d="M130.14 167.864C132.003 167.967 132.073 166.99 131.965 166.784C131.857 166.579 130.944 166.185 130.14 167.864Z" fill="black"/>
<path d="M114.21 186.241C114.102 186.43 114.172 187.407 116.035 187.321C115.209 185.625 114.323 186.046 114.21 186.241Z" fill="black"/>
<path d="M101.25 192.721C101.142 192.91 101.212 193.887 103.075 193.801C102.249 192.105 101.363 192.526 101.25 192.721Z" fill="black"/>
<path d="M140.13 186.241C140.017 186.43 140.092 187.407 141.955 187.321C141.129 185.625 140.243 186.046 140.13 186.241Z" fill="black"/>
<path d="M127.17 192.721C127.057 192.91 127.132 193.887 128.995 193.801C128.169 192.105 127.283 192.526 127.17 192.721Z" fill="black"/>
<path d="M93.7385 201.56C93.7385 201.56 107.779 205.162 125.415 191.484C143.051 177.806 149.899 183.2 149.175 192.92C148.451 202.64 133.337 211.642 126.857 212.722C116.203 214.499 106.699 217.404 93.7385 201.56Z" fill="black"/>
<path d="M114.21 173.281C114.102 173.47 114.172 174.447 116.035 174.361C115.209 172.665 114.323 173.086 114.21 173.281Z" fill="black"/>
<path d="M101.25 179.761C101.142 179.95 101.212 180.927 103.075 180.841C102.249 179.145 101.363 179.566 101.25 179.761Z" fill="black"/>
<path d="M140.13 173.281C140.017 173.47 140.092 174.447 141.955 174.361C141.129 172.665 140.243 173.086 140.13 173.281Z" fill="black"/>
<path d="M127.17 179.761C127.057 179.95 127.132 180.927 128.995 180.841C128.169 179.145 127.283 179.566 127.17 179.761Z" fill="black"/>
<path d="M101.25 166.801C101.142 166.99 101.212 167.967 103.075 167.881C102.249 166.185 101.363 166.606 101.25 166.801Z" fill="black"/>
<path d="M127.17 166.801C127.057 166.99 127.132 167.967 128.995 167.881C128.169 166.185 127.283 166.606 127.17 166.801Z" fill="black"/>
<path d="M118.703 161.06C118.822 160.983 118.914 160.869 118.964 160.736C119.015 160.603 119.021 160.458 118.984 160.321C118.876 160.137 118.103 159.781 117.331 161.06C117.267 161.165 117.209 161.273 117.158 161.384C117.695 161.466 118.244 161.351 118.703 161.06Z" fill="black"/>
<path d="M92.7828 161.06C92.9021 160.983 92.9937 160.869 93.0442 160.736C93.0947 160.603 93.1015 160.458 93.0636 160.321C92.9556 160.137 92.1834 159.781 91.4112 161.06C91.3471 161.165 91.2894 161.273 91.2384 161.384C91.7754 161.466 92.3238 161.351 92.7828 161.06Z" fill="black"/>
<path d="M91.1735 224.348C91.164 224.266 91.1402 224.185 91.1033 224.111C91.0877 224.077 91.0696 224.045 91.0493 224.014C91.015 223.961 90.9732 223.914 90.9251 223.873C90.8863 223.84 90.8426 223.812 90.7955 223.792C90.7624 223.774 90.7253 223.765 90.6875 223.765C90.6498 223.765 90.6127 223.774 90.5795 223.792C90.3311 223.9 89.9261 224.332 90.3797 225.337C90.4696 225.524 90.5725 225.704 90.6875 225.877C90.8026 225.704 90.9054 225.524 90.9953 225.337C91.1227 225.083 91.1928 224.805 91.2005 224.521C91.2034 224.471 91.2034 224.42 91.2005 224.37L91.1735 224.348Z" fill="black"/>
<path d="M116.597 223.749C116.375 223.749 115.565 224.289 116.597 225.86C117.628 224.3 116.818 223.749 116.597 223.749Z" fill="black"/>
<path d="M116.597 236.709C116.375 236.709 115.565 237.249 116.597 238.82C117.628 237.26 116.818 236.709 116.597 236.709Z" fill="black"/>
<path d="M91.1735 237.308C91.164 237.226 91.1402 237.145 91.1033 237.071C91.0877 237.037 91.0696 237.005 91.0493 236.974C91.015 236.921 90.9732 236.874 90.9251 236.833C90.8863 236.8 90.8426 236.772 90.7955 236.752C90.7624 236.734 90.7253 236.725 90.6875 236.725C90.6498 236.725 90.6127 236.734 90.5795 236.752C90.3311 236.86 89.9261 237.292 90.3797 238.297C90.4696 238.484 90.5725 238.664 90.6875 238.837C90.8026 238.664 90.9054 238.484 90.9953 238.297C91.1227 238.043 91.1928 237.765 91.2005 237.481C91.2034 237.431 91.2034 237.38 91.2005 237.33L91.1735 237.308Z" fill="black"/>
<path d="M103.637 230.229C103.415 230.229 102.605 230.769 103.637 232.34C104.668 230.78 103.858 230.229 103.637 230.229Z" fill="black"/>
<path d="M129.557 230.229C129.335 230.229 128.525 230.769 129.557 232.34C130.588 230.78 129.778 230.229 129.557 230.229Z" fill="black"/>
<path d="M91.1735 211.388C91.164 211.306 91.1402 211.225 91.1033 211.151C91.0877 211.117 91.0696 211.085 91.0493 211.054C91.015 211.001 90.9732 210.954 90.9251 210.913C90.8863 210.88 90.8426 210.852 90.7955 210.832C90.7624 210.814 90.7253 210.805 90.6875 210.805C90.6498 210.805 90.6127 210.814 90.5795 210.832C90.3311 210.94 89.9261 211.372 90.3797 212.377C90.4696 212.564 90.5725 212.744 90.6875 212.917C90.8026 212.744 90.9054 212.564 90.9953 212.377C91.1227 212.123 91.1928 211.845 91.2005 211.561C91.2034 211.511 91.2034 211.46 91.2005 211.41L91.1735 211.388Z" fill="black"/>
<path d="M116.597 210.789C116.375 210.789 115.565 211.329 116.597 212.9C117.628 211.34 116.818 210.789 116.597 210.789Z" fill="black"/>
<path d="M103.637 217.269C103.415 217.269 102.605 217.809 103.637 219.38C104.668 217.82 103.858 217.269 103.637 217.269Z" fill="black"/>
<path d="M129.557 217.269C129.335 217.269 128.525 217.809 129.557 219.38C130.588 217.82 129.778 217.269 129.557 217.269Z" fill="black"/>
<path d="M103.637 204.309C103.415 204.309 102.605 204.849 103.637 206.42C104.668 204.86 103.858 204.309 103.637 204.309Z" fill="black"/>
<path d="M129.557 204.309C129.335 204.309 128.525 204.849 129.557 206.42C130.588 204.86 129.778 204.309 129.557 204.309Z" fill="black"/>
<path d="M91.26 226.184C93.1284 226.287 93.1932 225.31 93.0852 225.104C92.9772 224.899 92.0646 224.505 91.26 226.184Z" fill="black"/>
<path d="M117.18 226.184C119.043 226.287 119.113 225.31 119.005 225.104C118.897 224.899 117.985 224.505 117.18 226.184Z" fill="black"/>
<path d="M118.573 237.886H118.46C118.32 237.896 118.185 237.939 118.066 238.01L117.925 238.108C117.685 238.304 117.483 238.544 117.331 238.815C117.267 238.919 117.209 239.028 117.158 239.139C117.695 239.22 118.244 239.105 118.703 238.815C118.822 238.738 118.914 238.624 118.964 238.491C119.015 238.358 119.021 238.212 118.984 238.075C118.933 238.016 118.87 237.968 118.799 237.936C118.728 237.903 118.651 237.886 118.573 237.886Z" fill="black"/>
<path d="M92.6532 237.886H92.5398C92.4005 237.896 92.2655 237.939 92.1456 238.01L92.0052 238.108C91.7649 238.304 91.5634 238.544 91.4112 238.815C91.3471 238.919 91.2894 239.028 91.2384 239.139C91.7754 239.22 92.3238 239.105 92.7828 238.815C92.9021 238.738 92.9937 238.624 93.0442 238.491C93.0947 238.358 93.1015 238.212 93.0636 238.075C93.0129 238.016 92.95 237.968 92.8791 237.936C92.8083 237.903 92.7312 237.886 92.6532 237.886Z" fill="black"/>
<path d="M104.22 232.664C106.088 232.767 106.153 231.79 106.045 231.584C105.937 231.379 105.025 230.985 104.22 232.664Z" fill="black"/>
<path d="M130.14 232.664C132.003 232.767 132.073 231.79 131.965 231.584C131.857 231.379 130.944 230.985 130.14 232.664Z" fill="black"/>
<path d="M91.26 213.224C93.1284 213.327 93.1932 212.35 93.0852 212.144C92.9772 211.939 92.0646 211.545 91.26 213.224Z" fill="black"/>
<path d="M117.18 213.224C119.043 213.327 119.113 212.35 119.005 212.144C118.897 211.939 117.985 211.545 117.18 213.224Z" fill="black"/>
<path d="M104.22 219.704C106.088 219.807 106.153 218.83 106.045 218.624C105.937 218.419 105.025 218.025 104.22 219.704Z" fill="black"/>
<path d="M130.14 219.704C132.003 219.807 132.073 218.83 131.965 218.624C131.857 218.419 130.944 218.025 130.14 219.704Z" fill="black"/>
<path d="M104.22 206.744C106.088 206.847 106.153 205.87 106.045 205.664C105.937 205.459 105.025 205.065 104.22 206.744Z" fill="black"/>
<path d="M130.14 206.744C132.003 206.847 132.073 205.87 131.965 205.664C131.857 205.459 130.944 205.065 130.14 206.744Z" fill="black"/>
<path d="M114.21 225.121C114.102 225.31 114.172 226.287 116.035 226.201C115.209 224.505 114.323 224.926 114.21 225.121Z" fill="black"/>
<path d="M115.268 238.14L115.128 238.043C115.008 237.971 114.873 237.928 114.734 237.919H114.62C114.542 237.919 114.465 237.937 114.394 237.971C114.323 238.004 114.26 238.053 114.21 238.113C114.172 238.25 114.179 238.396 114.229 238.529C114.28 238.662 114.371 238.775 114.491 238.853C114.95 239.142 115.498 239.257 116.035 239.177C115.984 239.065 115.926 238.957 115.862 238.853C115.712 238.579 115.511 238.337 115.268 238.14Z" fill="black"/>
<path d="M101.25 231.601C101.142 231.79 101.212 232.767 103.075 232.681C102.249 230.985 101.363 231.406 101.25 231.601Z" fill="black"/>
<path d="M140.13 225.121C140.017 225.31 140.092 226.287 141.955 226.201C141.129 224.505 140.243 224.926 140.13 225.121Z" fill="black"/>
<path d="M141.782 238.82C141.63 238.55 141.429 238.31 141.188 238.113L141.048 238.016C140.928 237.944 140.793 237.902 140.654 237.892H140.54C140.462 237.892 140.385 237.91 140.314 237.944C140.243 237.977 140.18 238.026 140.13 238.086C140.092 238.223 140.099 238.369 140.149 238.502C140.2 238.635 140.291 238.748 140.411 238.826C140.87 239.116 141.418 239.231 141.955 239.15C141.904 239.038 141.847 238.93 141.782 238.826V238.82Z" fill="black"/>
<path d="M127.17 231.601C127.057 231.79 127.132 232.767 128.995 232.681C128.169 230.985 127.283 231.406 127.17 231.601Z" fill="black"/>
<path d="M114.21 212.161C114.102 212.35 114.172 213.327 116.035 213.241C115.209 211.545 114.323 211.966 114.21 212.161Z" fill="black"/>
<path d="M101.25 218.641C101.142 218.83 101.212 219.807 103.075 219.721C102.249 218.025 101.363 218.446 101.25 218.641Z" fill="black"/>
<path d="M140.13 212.161C140.017 212.35 140.092 213.327 141.955 213.241C141.129 211.545 140.243 211.966 140.13 212.161Z" fill="black"/>
<path d="M127.17 218.641C127.057 218.83 127.132 219.807 128.995 219.721C128.169 218.025 127.283 218.446 127.17 218.641Z" fill="black"/>
<path d="M101.25 205.681C101.142 205.87 101.212 206.847 103.075 206.761C102.249 205.065 101.363 205.486 101.25 205.681Z" fill="black"/>
<path d="M127.17 205.681C127.057 205.87 127.132 206.847 128.995 206.761C128.169 205.065 127.283 205.486 127.17 205.681Z" fill="black"/>
<path d="M115.862 199.94C115.777 199.794 115.679 199.655 115.571 199.525C115.481 199.417 115.38 199.319 115.268 199.233C115.087 199.082 114.857 199.001 114.62 199.006C114.542 199.007 114.465 199.025 114.394 199.058C114.323 199.092 114.26 199.14 114.21 199.201C114.184 199.274 114.173 199.352 114.18 199.429C114.187 199.506 114.21 199.581 114.248 199.649C114.283 199.72 114.329 199.785 114.383 199.843L114.491 199.94C114.95 200.23 115.498 200.345 116.035 200.264C115.987 200.156 115.933 200.059 115.884 199.973L115.862 199.94Z" fill="black"/>
<path d="M141.782 199.94C141.697 199.794 141.599 199.655 141.491 199.525C141.4 199.418 141.298 199.32 141.188 199.233C141.007 199.082 140.777 199.001 140.54 199.006C140.462 199.007 140.385 199.025 140.314 199.058C140.243 199.092 140.18 199.14 140.13 199.201C140.104 199.274 140.093 199.352 140.1 199.429C140.106 199.506 140.13 199.581 140.168 199.649C140.203 199.72 140.249 199.785 140.303 199.843C140.336 199.878 140.372 199.911 140.411 199.94C140.87 200.231 141.418 200.346 141.955 200.264C141.907 200.156 141.853 200.059 141.804 199.973C141.795 199.963 141.788 199.952 141.782 199.94Z" fill="black"/>
<path d="M103.637 243.189C103.415 243.189 102.605 243.729 103.637 245.3C104.668 243.74 103.858 243.189 103.637 243.189Z" fill="black"/>
<path d="M129.557 243.189C129.335 243.189 128.525 243.729 129.557 245.3C130.588 243.74 129.778 243.189 129.557 243.189Z" fill="black"/>
<path d="M104.22 245.624C106.088 245.727 106.153 244.75 106.045 244.544C105.937 244.339 105.025 243.945 104.22 245.624Z" fill="black"/>
<path d="M130.14 245.624C132.003 245.727 132.073 244.75 131.965 244.544C131.857 244.339 130.944 243.945 130.14 245.624Z" fill="black"/>
<path d="M101.25 244.561C101.142 244.75 101.212 245.727 103.075 245.641C102.249 243.945 101.363 244.366 101.25 244.561Z" fill="black"/>
<path d="M127.17 244.561C127.057 244.75 127.132 245.727 128.995 245.641C128.169 243.945 127.283 244.366 127.17 244.561Z" fill="black"/>
<path d="M64.7568 158.949C64.5354 158.949 63.7254 159.489 64.7568 161.06C65.7882 159.5 64.9782 158.949 64.7568 158.949Z" fill="black"/>
<path d="M77.7168 152.469C77.4954 152.469 76.6854 153.009 77.7168 154.58C78.7482 153.02 77.9382 152.469 77.7168 152.469Z" fill="black"/>
<path d="M78.1919 140.006L77.2037 140.26C77.2368 140.754 77.4152 141.227 77.7167 141.62C78.2189 140.864 78.2999 140.341 78.1919 140.006Z" fill="black"/>
<path d="M65.34 148.424C67.203 148.527 67.2732 147.55 67.1652 147.344C67.0572 147.139 66.1446 146.745 65.34 148.424Z" fill="black"/>
<path d="M78.2999 154.904C80.1629 155.007 80.2331 154.03 80.1251 153.824C80.0171 153.619 79.1045 153.225 78.2999 154.904Z" fill="black"/>
<path d="M78.2999 141.944C80.1629 142.047 80.2331 141.07 80.1251 140.864C80.0171 140.659 79.1045 140.265 78.2999 141.944Z" fill="black"/>
<path d="M62.37 160.321C62.3321 160.458 62.3389 160.603 62.3894 160.736C62.4399 160.869 62.5314 160.983 62.6508 161.06C63.1102 161.35 63.6582 161.465 64.1952 161.384C64.1442 161.273 64.0865 161.165 64.0224 161.06C63.2502 159.764 62.478 160.137 62.37 160.321Z" fill="black"/>
<path d="M88.29 147.361C88.1766 147.55 88.2522 148.527 90.1152 148.441C89.289 146.745 88.4034 147.166 88.29 147.361Z" fill="black"/>
<path d="M89.9423 161.06C89.1701 159.764 88.3979 160.137 88.2899 160.321C88.252 160.458 88.2588 160.603 88.3093 160.736C88.3598 160.869 88.4514 160.983 88.5707 161.06C89.0297 161.351 89.5781 161.466 90.1151 161.384C90.0642 161.273 90.0064 161.165 89.9423 161.06Z" fill="black"/>
<path d="M75.33 153.841C75.2166 154.03 75.2922 155.007 77.1552 154.921C76.329 153.225 75.4434 153.646 75.33 153.841Z" fill="black"/>
<path d="M75.7242 140.692L75.4434 140.778C75.3986 140.804 75.3599 140.839 75.33 140.881C75.2166 141.07 75.2922 142.047 77.1552 141.961C76.6314 140.875 76.086 140.659 75.7242 140.692Z" fill="black"/>
<path d="M38.8368 184.869C38.6154 184.869 37.8054 185.409 38.8368 186.98C39.8682 185.42 39.0582 184.869 38.8368 184.869Z" fill="black"/>
<path d="M51.7967 191.349C51.5753 191.349 50.7653 191.889 51.7967 193.46C52.8281 191.9 52.0181 191.349 51.7967 191.349Z" fill="black"/>
<path d="M64.7568 171.909C64.5354 171.909 63.7254 172.449 64.7568 174.02C65.7882 172.46 64.9782 171.909 64.7568 171.909Z" fill="black"/>
<path d="M51.7967 178.389C51.5753 178.389 50.7653 178.929 51.7967 180.5C52.8281 178.94 52.0181 178.389 51.7967 178.389Z" fill="black"/>
<path d="M77.7168 178.389C77.4954 178.389 76.6854 178.929 77.7168 180.5C78.7482 178.94 77.9382 178.389 77.7168 178.389Z" fill="black"/>
<path d="M51.7967 165.429C51.5753 165.429 50.7653 165.969 51.7967 167.54C52.8281 165.98 52.0181 165.429 51.7967 165.429Z" fill="black"/>
<path d="M77.7168 165.429C77.4954 165.429 76.6854 165.969 77.7168 167.54C78.7482 165.98 77.9382 165.429 77.7168 165.429Z" fill="black"/>
<path d="M39.4199 187.304C41.2883 187.407 41.3585 186.43 41.2451 186.224C41.1317 186.019 40.2245 185.625 39.4199 187.304Z" fill="black"/>
<path d="M52.677 193.234C53.1576 193.055 53.6274 192.856 54.0918 192.629C53.865 192.478 53.2818 192.375 52.677 193.234Z" fill="black"/>
<path d="M41.2235 173.281C41.1598 173.199 41.0703 173.142 40.9697 173.119C40.6349 173.545 40.3163 173.95 40.0409 174.334C41.2775 174.204 41.3207 173.448 41.2235 173.281Z" fill="black"/>
<path d="M65.34 174.344C67.203 174.447 67.2732 173.47 67.1652 173.264C67.0572 173.059 66.1446 172.665 65.34 174.344Z" fill="black"/>
<path d="M52.38 180.824C54.2484 180.927 54.3132 179.95 54.2052 179.744C54.0972 179.539 53.1846 179.145 52.38 180.824Z" fill="black"/>
<path d="M78.2999 180.824C80.1629 180.927 80.2331 179.95 80.1251 179.744C80.0171 179.539 79.1045 179.145 78.2999 180.824Z" fill="black"/>
<path d="M52.38 167.864C54.2484 167.967 54.3132 166.99 54.2052 166.784C54.0972 166.579 53.1846 166.185 52.38 167.864Z" fill="black"/>
<path d="M78.2999 167.864C80.1629 167.967 80.2331 166.99 80.1251 166.784C80.0171 166.579 79.1045 166.185 78.2999 167.864Z" fill="black"/>
<path d="M49.4099 192.721C49.3073 192.893 49.3613 193.714 50.7815 193.801L51.1865 193.709C50.3765 192.127 49.5233 192.532 49.4099 192.721Z" fill="black"/>
<path d="M88.29 186.241C88.1766 186.43 88.2522 187.407 90.1152 187.321C89.289 185.625 88.4034 186.046 88.29 186.241Z" fill="black"/>
<path d="M62.37 173.281C62.262 173.47 62.3322 174.447 64.1952 174.361C63.369 172.665 62.4834 173.086 62.37 173.281Z" fill="black"/>
<path d="M49.41 179.761C49.302 179.95 49.3722 180.927 51.2352 180.841C50.409 179.145 49.5234 179.566 49.41 179.761Z" fill="black"/>
<path d="M88.29 173.281C88.1766 173.47 88.2522 174.447 90.1152 174.361C89.289 172.665 88.4034 173.086 88.29 173.281Z" fill="black"/>
<path d="M49.41 166.801C49.302 166.99 49.3722 167.967 51.2352 167.881C50.409 166.185 49.5234 166.606 49.41 166.801Z" fill="black"/>
<path d="M75.33 166.801C75.2166 166.99 75.2922 167.967 77.1552 167.881C76.329 166.185 75.4434 166.606 75.33 166.801Z" fill="black"/>
<path d="M66.8628 161.06C66.9821 160.983 67.0736 160.869 67.1241 160.736C67.1746 160.603 67.1814 160.458 67.1436 160.321C67.0356 160.137 66.2634 159.781 65.4912 161.06C65.427 161.165 65.3693 161.273 65.3184 161.384C65.8554 161.466 66.4037 161.351 66.8628 161.06Z" fill="black"/>
<path d="M77.7168 230.229C77.4954 230.229 76.6854 230.769 77.7168 232.34C78.7482 230.78 77.9382 230.229 77.7168 230.229Z" fill="black"/>
<path d="M78.1326 218.56L77.679 219.321L77.7168 219.38C77.8914 219.127 78.0313 218.851 78.1326 218.56Z" fill="black"/>
<path d="M78.2999 232.664C80.1629 232.767 80.2331 231.79 80.1251 231.584C80.0171 231.379 79.1045 230.985 78.2999 232.664Z" fill="black"/>
<path d="M78.2999 219.704C80.1629 219.807 80.2331 218.83 80.1251 218.624C80.0171 218.419 79.1045 218.025 78.2999 219.704Z" fill="black"/>
<path d="M88.29 225.121C88.1766 225.31 88.2522 226.287 90.1152 226.201C89.289 224.505 88.4034 224.926 88.29 225.121Z" fill="black"/>
<path d="M89.9423 238.82C89.7901 238.55 89.5886 238.31 89.3483 238.113L89.2079 238.016C89.088 237.944 88.953 237.902 88.8137 237.892H88.7003C88.6219 237.892 88.5445 237.91 88.4737 237.944C88.4028 237.977 88.3401 238.026 88.2899 238.086C88.252 238.223 88.2588 238.369 88.3093 238.502C88.3598 238.635 88.4514 238.748 88.5707 238.826C89.0297 239.116 89.5781 239.231 90.1151 239.15C90.0642 239.038 90.0064 238.93 89.9423 238.826V238.82Z" fill="black"/>
<path d="M75.33 231.601C75.2166 231.79 75.2922 232.767 77.1552 232.681C76.329 230.985 75.4434 231.406 75.33 231.601Z" fill="black"/>
<path d="M88.29 212.161C88.1766 212.35 88.2522 213.327 90.1152 213.241C89.289 211.545 88.4034 211.966 88.29 212.161Z" fill="black"/>
<path d="M89.9424 199.94C89.8568 199.794 89.7592 199.655 89.6508 199.525C89.5597 199.418 89.4584 199.32 89.3484 199.233C89.1666 199.082 88.9366 199.001 88.7003 199.006C88.6219 199.007 88.5446 199.025 88.4737 199.058C88.4028 199.092 88.3401 199.14 88.29 199.201C88.2637 199.274 88.2534 199.352 88.26 199.429C88.2665 199.506 88.2896 199.581 88.3278 199.649C88.3634 199.72 88.4088 199.785 88.4628 199.843C88.4963 199.878 88.5324 199.911 88.5708 199.94C89.0298 200.231 89.5781 200.346 90.1152 200.264C90.0666 200.156 90.0126 200.059 89.964 199.973L89.9424 199.94Z" fill="black"/>
<path d="M77.7168 243.189C77.4954 243.189 76.6854 243.729 77.7168 245.3C78.7482 243.74 77.9382 243.189 77.7168 243.189Z" fill="black"/>
<path d="M78.2999 245.624C80.1629 245.727 80.2331 244.75 80.1251 244.544C80.0171 244.339 79.1045 243.945 78.2999 245.624Z" fill="black"/>
<path d="M75.33 244.561C75.2166 244.75 75.2922 245.727 77.1552 245.641C76.329 243.945 75.4434 244.366 75.33 244.561Z" fill="black"/>
<path d="M37.5677 186.327C37.675 186.661 37.7994 186.989 37.9404 187.31H38.2751C38.1111 186.936 37.8701 186.601 37.5677 186.327Z" fill="black"/>
</g>
</g>
<path d="M163.739 245.84C163.739 245.84 164.705 232.583 158.879 219.321C153.052 206.059 151.74 205.103 151.74 201.22C151.74 197.338 155.639 192.807 156.287 184.075C156.935 175.343 156.611 171.115 156.611 171.115C156.611 171.115 170.516 193.104 180.22 194.4C189.923 195.696 195.745 186.64 192.186 174.35C188.627 162.059 173.102 152.037 166.963 143.948C160.823 135.859 146.907 135.848 139.795 135.848C132.683 135.848 129.125 133.261 127.829 128.412C126.533 123.563 126.538 113.832 126.538 113.832C126.538 113.832 118.125 119.005 103.896 113.184C103.896 113.184 105.192 130.972 103.572 133.558C101.952 136.145 99.7055 138.78 90.0017 138.78C80.2979 138.78 72.2141 140.724 67.6889 145.26C63.1637 149.796 44.4041 167.897 39.5549 175.014C34.7057 182.131 37.2869 189.891 43.1081 192.802C48.9293 195.712 54.7505 193.12 58.9571 189.243C63.1637 185.366 76.4207 173.07 76.4207 173.07C76.4207 173.07 76.4207 180.511 79.9793 191.182C83.5379 201.852 86.4593 200.561 83.8565 208.321C81.2537 216.081 76.0967 218.349 74.4821 228.371C73.515 234.141 73.0812 239.986 73.1861 245.835" stroke="#263238" stroke-linecap="round" stroke-linejoin="round"/>
<path d="M76.4208 173.075C76.686 169.578 77.403 166.129 78.5538 162.815L76.4208 173.075Z" fill="white"/>
<path d="M76.4208 173.075C76.686 169.578 77.403 166.129 78.5538 162.815" stroke="#263238" stroke-linecap="round" stroke-linejoin="round"/>
<path d="M156.6 171.137C155.888 168.453 154.898 165.85 153.646 163.372" stroke="#263238" stroke-linecap="round" stroke-linejoin="round"/>
<path d="M109.096 206.982L129.465 200.453" stroke="#263238" stroke-linecap="round" stroke-linejoin="round"/>
<path d="M118.319 201.604C123.078 199.689 128.043 198.335 133.115 197.57" stroke="#263238" stroke-linecap="round" stroke-linejoin="round"/>
<path d="M112.639 160.466C128.774 163.577 135 148.111 137.165 135.751C131.792 135.157 128.963 132.656 127.84 128.45C126.549 123.59 126.549 113.87 126.549 113.87C126.549 113.87 118.136 119.043 103.907 113.222C103.907 113.222 105.203 131.009 103.583 133.596C102.46 135.4 101.012 137.203 96.9623 138.127C96.8165 143.678 97.9343 157.626 112.639 160.466Z" fill="#B2B2B2"/>
<mask id="mask1_126_13137" style="mask-type:alpha" maskUnits="userSpaceOnUse" x="96" y="113" width="42" height="48">
<path d="M112.639 160.466C128.774 163.577 135 148.111 137.165 135.751C131.792 135.157 128.963 132.656 127.84 128.45C126.549 123.59 126.549 113.87 126.549 113.87C126.549 113.87 118.136 119.043 103.907 113.222C103.907 113.222 105.203 131.009 103.583 133.596C102.46 135.4 101.012 137.203 96.9623 138.127C96.8165 143.678 97.9343 157.626 112.639 160.466Z" fill="white"/>
</mask>
<g mask="url(#mask1_126_13137)">
<path opacity="0.2" d="M127.489 126.851C126.549 121.743 126.549 113.891 126.549 113.891C126.549 113.891 118.136 119.065 103.907 113.243C103.907 113.243 104.447 120.679 104.393 126.635C116.64 130.891 123.725 129.087 127.489 126.851Z" fill="black"/>
</g>
<path d="M112.639 160.466C128.774 163.577 135 148.111 137.165 135.751C131.792 135.157 128.963 132.656 127.84 128.45C126.549 123.59 126.549 113.87 126.549 113.87C126.549 113.87 118.136 119.043 103.907 113.222C103.907 113.222 105.203 131.009 103.583 133.596C102.46 135.4 101.012 137.203 96.9623 138.127C96.8165 143.678 97.9343 157.626 112.639 160.466Z" stroke="#263238" stroke-linecap="round" stroke-linejoin="round"/>
<path d="M137.036 107.692C139.249 107.692 141.043 105.898 141.043 103.685C141.043 101.473 139.249 99.6786 137.036 99.6786C134.823 99.6786 133.029 101.473 133.029 103.685C133.029 105.898 134.823 107.692 137.036 107.692Z" fill="#636C3F" stroke="#263238" stroke-linecap="round" stroke-linejoin="round"/>
<path d="M94.2353 107.692C96.4482 107.692 98.2421 105.898 98.2421 103.685C98.2421 101.473 96.4482 99.6786 94.2353 99.6786C92.0224 99.6786 90.2285 101.473 90.2285 103.685C90.2285 105.898 92.0224 107.692 94.2353 107.692Z" fill="#636C3F" stroke="#263238" stroke-linecap="round" stroke-linejoin="round"/>
<path d="M136.669 90.0288C136.669 90.0288 138.672 83.835 141.043 86.022C143.413 88.209 140.314 96.5844 138.672 98.5878C137.03 100.591 135.394 100.591 135.578 97.8588C135.761 95.1264 136.669 90.0288 136.669 90.0288Z" fill="#B2B2B2" stroke="#263238" stroke-linecap="round" stroke-linejoin="round"/>
<path d="M95.2506 96.2604C95.2506 96.2604 95.7906 110.727 106.439 117.823C117.088 124.918 124.999 120.825 129.368 114.82C133.736 108.815 136.469 102.811 136.469 94.0788C136.469 85.347 137.549 81.5184 134.557 76.059C131.566 70.5996 121.181 67.8726 121.181 67.8726C116.867 73.2564 112.218 78.3624 107.26 83.16C99.0684 91.071 95.2506 96.2604 95.2506 96.2604Z" fill="#B2B2B2"/>
<mask id="mask2_126_13137" style="mask-type:alpha" maskUnits="userSpaceOnUse" x="95" y="67" width="42" height="55">
<path d="M95.2506 96.2604C95.2506 96.2604 95.7906 110.727 106.439 117.823C117.088 124.918 124.999 120.825 129.368 114.82C133.736 108.815 136.469 102.811 136.469 94.0788C136.469 85.347 137.549 81.5184 134.557 76.059C131.566 70.5996 121.181 67.8726 121.181 67.8726C116.867 73.2564 112.218 78.3624 107.26 83.16C99.0684 91.071 95.2506 96.2604 95.2506 96.2604Z" fill="white"/>
</mask>
<g mask="url(#mask2_126_13137)">
<path opacity="0.2" d="M121.181 67.8726C116.867 73.2564 112.218 78.3624 107.26 83.16C99.0684 91.071 95.2506 96.2604 95.2506 96.2604C95.4484 99.0792 96.0055 101.861 96.9084 104.539C111.294 93.5334 119.151 73.7586 121.241 67.8888L121.181 67.8726Z" fill="black"/>
</g>
<path d="M95.2506 96.2604C95.2506 96.2604 95.7906 110.727 106.439 117.823C117.088 124.918 124.999 120.825 129.368 114.82C133.736 108.815 136.469 102.811 136.469 94.0788C136.469 85.347 137.549 81.5184 134.557 76.059C131.566 70.5996 121.181 67.8726 121.181 67.8726C116.867 73.2564 112.218 78.3624 107.26 83.16C99.0684 91.071 95.2506 96.2604 95.2506 96.2604Z" stroke="#263238" stroke-linecap="round" stroke-linejoin="round"/>
<path d="M105.322 94.5594L111.451 95.1318" stroke="#263238" stroke-linecap="round" stroke-linejoin="round"/>
<path d="M123.898 94.365C123.898 94.365 127.921 93.5982 129.838 94.365" stroke="#263238" stroke-linecap="round" stroke-linejoin="round"/>
<path d="M110.624 91.7568C110.624 93.2148 109.971 94.3974 109.166 94.3974C108.362 94.3974 107.714 93.2148 107.714 91.7568C107.714 90.2988 108.362 89.1162 109.166 89.1162C109.971 89.1162 110.624 90.2988 110.624 91.7568Z" fill="#263238"/>
<path d="M113.902 100.98C114.88 101.594 116.031 101.873 117.181 101.775C118.331 101.678 119.419 101.209 120.28 100.44" stroke="#263238" stroke-linecap="round" stroke-linejoin="round"/>
<path d="M115.56 107.147C115.56 107.147 121.203 109.517 124.481 101.866" stroke="#263238" stroke-linecap="round" stroke-linejoin="round"/>
<path d="M122.828 91.8486C122.828 91.8486 126.29 89.478 129.751 90.936" stroke="#263238" stroke-width="2" stroke-linecap="round" stroke-linejoin="round"/>
<path d="M121.738 85.8601C121.738 85.8601 125.561 82.0369 130.842 85.1311" stroke="#263238" stroke-width="2" stroke-linecap="round" stroke-linejoin="round"/>
<path d="M113.54 83.4679C113.54 83.4679 110.263 80.1901 105.705 83.2897" stroke="#263238" stroke-width="2" stroke-linecap="round" stroke-linejoin="round"/>
<path d="M39.555 175.019C39.555 175.019 33.7338 181.499 33.7338 188.276C33.7338 195.053 37.611 201.236 48.3138 210.913C59.0166 220.59 69.0066 227.729 73.2132 229.997C77.4198 232.265 81.621 229.349 81.621 229.349C81.621 229.349 88.5762 236.299 89.3808 234.684C90.1854 233.069 86.9562 230.639 86.3082 229.673C85.7394 228.905 85.0894 228.201 84.3696 227.572C84.3696 227.572 87.7662 228.053 89.0622 229.192C90.3582 230.332 92.4534 232.265 93.4254 232.103C94.3974 231.941 94.3974 231.131 92.9394 229.192C91.764 227.674 90.3442 226.362 88.7382 225.31C87.7662 224.667 84.5316 222.885 84.5316 222.885C84.5316 222.885 89.2188 222.561 90.8388 223.533C92.4588 224.505 96.822 227.416 97.146 226.12C97.47 224.824 97.47 224.019 95.85 222.561C94.23 221.103 90.99 219.321 89.0622 219.002C87.7332 218.758 86.4324 218.38 85.1796 217.874C85.1796 217.874 88.9002 216.578 90.1908 216.578C91.4814 216.578 96.6708 219.164 98.1126 218.846C99.5544 218.527 98.7606 217.226 97.632 216.416C96.5034 215.606 91.4868 213.667 89.3808 213.505C87.2748 213.343 75.4758 217.388 74.0232 217.388C72.5706 217.388 68.85 212.215 64.9674 205.259C61.0848 198.304 59.6322 187.472 51.3864 183.757" fill="#636C3F"/>
<mask id="mask3_126_13137" style="mask-type:alpha" maskUnits="userSpaceOnUse" x="33" y="175" width="66" height="60">
<path d="M39.555 175.019C39.555 175.019 33.7338 181.499 33.7338 188.276C33.7338 195.053 37.611 201.236 48.3138 210.913C59.0166 220.59 69.0066 227.729 73.2132 229.997C77.4198 232.265 81.621 229.349 81.621 229.349C81.621 229.349 88.5762 236.299 89.3808 234.684C90.1854 233.069 86.9562 230.639 86.3082 229.673C85.7394 228.905 85.0894 228.201 84.3696 227.572C84.3696 227.572 87.7662 228.053 89.0622 229.192C90.3582 230.332 92.4534 232.265 93.4254 232.103C94.3974 231.941 94.3974 231.131 92.9394 229.192C91.764 227.674 90.3442 226.362 88.7382 225.31C87.7662 224.667 84.5316 222.885 84.5316 222.885C84.5316 222.885 89.2188 222.561 90.8388 223.533C92.4588 224.505 96.822 227.416 97.146 226.12C97.47 224.824 97.47 224.019 95.85 222.561C94.23 221.103 90.99 219.321 89.0622 219.002C87.7332 218.758 86.4324 218.38 85.1796 217.874C85.1796 217.874 88.9002 216.578 90.1908 216.578C91.4814 216.578 96.6708 219.164 98.1126 218.846C99.5544 218.527 98.7606 217.226 97.632 216.416C96.5034 215.606 91.4868 213.667 89.3808 213.505C87.2748 213.343 75.4758 217.388 74.0232 217.388C72.5706 217.388 68.85 212.215 64.9674 205.259C61.0848 198.304 59.6322 187.472 51.3864 183.757" fill="white"/>
</mask>
<g mask="url(#mask3_126_13137)">
<g opacity="0.2">
<path d="M38.8368 186.98C39.8682 185.42 39.0582 184.869 38.8368 184.869C39.0582 184.869 39.8682 185.42 38.8368 186.98Z" fill="black"/>
<path d="M38.8368 197.829C39.0582 197.829 39.8682 198.369 38.8368 199.94C39.8682 198.38 39.0582 197.829 38.8368 197.829Z" fill="black"/>
<path d="M51.7968 191.349C51.5754 191.349 50.7654 191.889 51.7968 193.46C52.8282 191.9 52.0182 191.349 51.7968 191.349Z" fill="black"/>
<path d="M41.2236 186.241C41.1102 186.046 40.2246 185.625 39.3984 187.321C41.2668 187.407 41.337 186.43 41.2236 186.241Z" fill="black"/>
<path d="M41.04 199.843C41.0939 199.785 41.1394 199.72 41.175 199.649C41.2277 199.587 41.2598 199.51 41.2671 199.429C41.2743 199.348 41.2563 199.266 41.2155 199.196C41.1746 199.126 41.113 199.07 41.0391 199.036C40.9651 199.002 40.8824 198.991 40.8024 199.006C40.5662 199.001 40.3361 199.082 40.1544 199.233C40.0444 199.32 39.9431 199.418 39.852 199.525C39.7435 199.655 39.646 199.794 39.5604 199.94H40.932C40.9704 199.911 41.0065 199.878 41.04 199.843Z" fill="black"/>
<path d="M54.1836 192.721C54.0702 192.526 53.1846 192.105 52.3584 193.801C54.2268 193.887 54.2916 192.91 54.1836 192.721Z" fill="black"/>
<path d="M51.2352 193.784C50.409 192.105 49.5234 192.526 49.41 192.704C49.2966 192.883 49.3722 193.887 51.2352 193.784Z" fill="black"/>
<path d="M38.8368 184.869V186.98C39.8682 185.42 39.0582 184.869 38.8368 184.869Z" fill="black"/>
<path d="M38.8368 197.829V199.94C39.8682 198.38 39.0582 197.829 38.8368 197.829Z" fill="black"/>
<path d="M64.7568 223.749C64.6611 223.769 64.5718 223.812 64.4973 223.875C64.4228 223.939 64.3653 224.02 64.3302 224.111L65.2428 224.78C65.3778 224.035 64.9188 223.749 64.7568 223.749Z" fill="black"/>
<path d="M77.7168 230.229C77.5806 230.262 77.4588 230.339 77.3694 230.447C77.2799 230.555 77.2275 230.688 77.22 230.828C77.5443 230.803 77.867 230.76 78.1866 230.699C78.1608 230.584 78.1029 230.479 78.0198 230.396C77.9366 230.313 77.8315 230.255 77.7168 230.229Z" fill="black"/>
<path d="M64.7568 210.789C64.5354 210.789 63.7254 211.329 64.7568 212.9C65.7882 211.34 64.9782 210.789 64.7568 210.789Z" fill="black"/>
<path d="M77.7168 219.38C78.7482 217.82 77.9382 217.269 77.7168 217.269C77.4954 217.269 76.68 217.82 77.7168 219.38Z" fill="black"/>
<path d="M51.7968 206.42C52.8282 204.86 52.0182 204.309 51.7968 204.309C51.5754 204.309 50.76 204.86 51.7968 206.42Z" fill="black"/>
<path d="M67.1437 225.121C67.0573 224.975 66.5389 224.699 65.9395 225.277C66.2311 225.493 66.5227 225.698 66.8089 225.898C66.9443 225.825 67.0511 225.709 67.1119 225.568C67.1727 225.427 67.1839 225.269 67.1437 225.121Z" fill="black"/>
<path d="M65.34 213.224C67.203 213.327 67.2732 212.35 67.1652 212.144C67.0572 211.939 66.1446 211.545 65.34 213.224Z" fill="black"/>
<path d="M78.3 219.704C80.163 219.807 80.2333 218.83 80.1253 218.624C80.0173 218.419 79.1046 218.025 78.3 219.704Z" fill="black"/>
<path d="M52.38 206.744C54.2484 206.847 54.3132 205.87 54.2052 205.664C54.0972 205.459 53.1846 205.065 52.38 206.744Z" fill="black"/>
<path d="M89.9262 226.19C89.4618 225.823 89.0352 225.526 88.7112 225.304L88.3332 225.067L88.29 225.121C88.182 225.304 88.2522 226.217 89.9262 226.19Z" fill="black"/>
<path d="M64.1952 213.224C63.369 211.545 62.4834 211.966 62.37 212.144C62.2566 212.323 62.3322 213.327 64.1952 213.224Z" fill="black"/>
<path d="M75.33 218.641C75.2166 218.83 75.2922 219.807 77.1552 219.721C76.329 218.025 75.4434 218.446 75.33 218.641Z" fill="black"/>
<path d="M49.41 205.681C49.302 205.87 49.3722 206.847 51.2352 206.761C50.409 205.065 49.5234 205.486 49.41 205.681Z" fill="black"/>
<path d="M40.9428 199.94H39.5712C39.5728 199.951 39.5728 199.962 39.5712 199.973C39.5226 200.059 39.4686 200.156 39.42 200.264C39.95 200.34 40.4897 200.226 40.9428 199.94Z" fill="black"/>
<path d="M38.8368 184.869C38.6154 184.869 37.8054 185.409 38.8368 186.98V184.869Z" fill="black"/>
<path d="M38.8368 199.94V197.829C38.6154 197.829 37.8 198.38 38.8368 199.94Z" fill="black"/>
<path d="M38.2752 187.304C37.449 185.625 36.5634 186.046 36.45 186.224C36.3366 186.403 36.4122 187.407 38.2752 187.304Z" fill="black"/>
<path d="M37.8 199.525C37.709 199.418 37.6077 199.32 37.4976 199.233L37.4598 199.206C37.6272 199.449 37.7946 199.697 37.9998 199.94H38.1186C38.0244 199.793 37.9179 199.654 37.8 199.525Z" fill="black"/>
<path d="M38.124 199.973C38.1225 199.962 38.1225 199.951 38.124 199.94H38.0052L38.2429 200.264H38.2968C38.2266 200.156 38.1726 200.059 38.124 199.973Z" fill="black"/>
</g>
</g>
<path d="M39.555 175.019C39.555 175.019 33.7338 181.499 33.7338 188.276C33.7338 195.053 37.611 201.236 48.3138 210.913C59.0166 220.59 69.0066 227.729 73.2132 229.997C77.4198 232.265 81.621 229.349 81.621 229.349C81.621 229.349 88.5762 236.299 89.3808 234.684C90.1854 233.069 86.9562 230.639 86.3082 229.673C85.7394 228.905 85.0894 228.201 84.3696 227.572C84.3696 227.572 87.7662 228.053 89.0622 229.192C90.3582 230.332 92.4534 232.265 93.4254 232.103C94.3974 231.941 94.3974 231.131 92.9394 229.192C91.764 227.674 90.3442 226.362 88.7382 225.31C87.7662 224.667 84.5316 222.885 84.5316 222.885C84.5316 222.885 89.2188 222.561 90.8388 223.533C92.4588 224.505 96.822 227.416 97.146 226.12C97.47 224.824 97.47 224.019 95.85 222.561C94.23 221.103 90.99 219.321 89.0622 219.002C87.7332 218.758 86.4324 218.38 85.1796 217.874C85.1796 217.874 88.9002 216.578 90.1908 216.578C91.4814 216.578 96.6708 219.164 98.1126 218.846C99.5544 218.527 98.7606 217.226 97.632 216.416C96.5034 215.606 91.4868 213.667 89.3808 213.505C87.2748 213.343 75.4758 217.388 74.0232 217.388C72.5706 217.388 68.85 212.215 64.9674 205.259C61.0848 198.304 59.6322 187.472 51.3864 183.757" stroke="#263238" stroke-linecap="round" stroke-linejoin="round"/>
<path d="M97.6049 216.41C96.4709 215.606 91.4597 213.662 89.3537 213.5C87.2477 213.338 75.4487 217.382 73.9961 217.382C72.5435 217.382 68.8229 212.209 64.9403 205.254C62.7803 201.393 61.3763 196.333 59.1353 191.965C47.2553 190.345 42.1631 197.289 39.8087 202.284C42.4301 205.358 45.263 208.245 48.2867 210.924C58.9571 220.644 68.9795 227.74 73.1861 230.008C77.3927 232.276 81.5939 229.36 81.5939 229.36C81.5939 229.36 88.5491 236.309 89.3537 234.695C90.1583 233.08 86.9291 230.65 86.2811 229.684C85.7123 228.916 85.0624 228.211 84.3425 227.583C84.3425 227.583 87.7391 228.064 89.0351 229.203C90.3311 230.342 92.4263 232.276 93.3983 232.114C94.3703 231.952 94.3703 231.142 92.9123 229.203C91.7369 227.685 90.3171 226.373 88.7111 225.32C87.7391 224.678 84.5045 222.896 84.5045 222.896C84.5045 222.896 89.1917 222.572 90.8117 223.544C92.4317 224.516 96.7949 227.426 97.1189 226.13C97.4429 224.834 97.4429 224.03 95.8229 222.572C94.2029 221.114 90.9629 219.332 89.0351 219.013C87.7062 218.769 86.4054 218.391 85.1525 217.885C85.1525 217.885 88.8731 216.589 90.1637 216.589C91.4543 216.589 96.6437 219.175 98.0855 218.857C99.5273 218.538 98.7335 217.22 97.6049 216.41Z" fill="#B2B2B2" stroke="#263238" stroke-linecap="round" stroke-linejoin="round"/>
<path d="M167.81 181.089C166.46 178.006 167.616 171.256 168.966 161.617C170.316 151.978 171.666 142.144 171.666 136.939C171.666 131.733 172.525 124.519 170.829 122.191C169.133 119.864 162.961 113.551 162.502 110.624C162.043 107.698 166.201 103.221 166.201 103.221C166.201 103.221 167.438 100.904 168.518 102.141C169.598 103.378 169.133 104.917 168.518 107.077C167.902 109.237 167.281 110.932 167.281 110.932C167.281 110.932 172.681 112.628 174.069 111.704C175.457 110.781 175.333 105.5 175.235 102.913C175.036 97.8697 173.016 100.024 171.617 102.411C170.942 103.556 166.99 102.875 169.301 99.9433C171.612 97.0111 173.761 94.4245 175.921 96.7411C178.081 99.0577 179.62 103.529 179.62 103.529C179.62 103.529 181.165 96.1795 182.569 91.8595C183.973 87.5395 186.489 85.8277 187.396 86.1301C188.303 86.4325 188.201 87.9391 187.294 90.0505C186.386 92.1619 184.378 97.9885 183.875 99.9001C183.373 101.812 183.276 104.02 184.28 103.82C185.285 103.621 188.8 97.4863 189.81 94.8727C190.82 92.2591 192.321 89.8507 194.027 88.7437C195.734 87.6367 197.143 89.0461 196.441 90.8551C195.047 94.1265 193.464 97.3142 191.7 100.402C190.591 102.398 189.65 104.482 188.887 106.634C190.542 104.87 192.287 103.192 194.114 101.606C196.528 99.5977 199.141 99.1981 199.94 99.9001C200.74 100.602 200.043 100.705 198.034 102.314C196.025 103.923 193.023 105.84 190.62 109.75C188.759 112.616 187.305 115.728 186.3 118.994C185.553 121.139 184.575 123.196 183.384 125.129C183.384 125.129 185.269 140.432 188.536 148.851C191.803 157.27 197.581 169.582 195.82 178.378C194.06 187.175 190.669 191.695 185.895 193.077C184.511 193.481 183.051 193.555 181.634 193.294C180.216 193.032 178.879 192.442 177.73 191.57" fill="#636C3F"/>
<mask id="mask4_126_13137" style="mask-type:alpha" maskUnits="userSpaceOnUse" x="162" y="86" width="39" height="108">
<path d="M167.81 181.089C166.46 178.006 167.616 171.256 168.966 161.617C170.316 151.978 171.666 142.144 171.666 136.939C171.666 131.733 172.525 124.519 170.829 122.191C169.133 119.864 162.961 113.551 162.502 110.624C162.043 107.698 166.201 103.221 166.201 103.221C166.201 103.221 167.438 100.904 168.518 102.141C169.598 103.378 169.133 104.917 168.518 107.077C167.902 109.237 167.281 110.932 167.281 110.932C167.281 110.932 172.681 112.628 174.069 111.704C175.457 110.781 175.333 105.5 175.235 102.913C175.036 97.8697 173.016 100.024 171.617 102.411C170.942 103.556 166.99 102.875 169.301 99.9433C171.612 97.0111 173.761 94.4245 175.921 96.7411C178.081 99.0577 179.62 103.529 179.62 103.529C179.62 103.529 181.165 96.1795 182.569 91.8595C183.973 87.5395 186.489 85.8277 187.396 86.1301C188.303 86.4325 188.201 87.9391 187.294 90.0505C186.386 92.1619 184.378 97.9885 183.875 99.9001C183.373 101.812 183.276 104.02 184.28 103.82C185.285 103.621 188.8 97.4863 189.81 94.8727C190.82 92.2591 192.321 89.8507 194.027 88.7437C195.734 87.6367 197.143 89.0461 196.441 90.8551C195.047 94.1265 193.464 97.3142 191.7 100.402C190.591 102.398 189.65 104.482 188.887 106.634C190.542 104.87 192.287 103.192 194.114 101.606C196.528 99.5977 199.141 99.1981 199.94 99.9001C200.74 100.602 200.043 100.705 198.034 102.314C196.025 103.923 193.023 105.84 190.62 109.75C188.759 112.616 187.305 115.728 186.3 118.994C185.553 121.139 184.575 123.196 183.384 125.129C183.384 125.129 185.269 140.432 188.536 148.851C191.803 157.27 197.581 169.582 195.82 178.378C194.06 187.175 190.669 191.695 185.895 193.077C184.511 193.481 183.051 193.555 181.634 193.294C180.216 193.032 178.879 192.442 177.73 191.57" fill="white"/>
</mask>
<g mask="url(#mask4_126_13137)">
<g opacity="0.2">
<path d="M194.357 94.149C194.454 94.1704 194.545 94.2156 194.62 94.2807C194.695 94.3457 194.753 94.4285 194.789 94.5216C194.755 94.4277 194.697 94.3442 194.621 94.2789C194.546 94.2137 194.455 94.169 194.357 94.149Z" fill="black"/>
<path d="M194.357 94.149V95.4126L194.789 94.5216C194.753 94.4285 194.695 94.3457 194.62 94.2807C194.545 94.2156 194.454 94.1704 194.357 94.149Z" fill="black"/>
<path d="M194.357 174.02C195.388 172.46 194.578 171.909 194.357 171.909C194.578 171.909 195.388 172.46 194.357 174.02Z" fill="black"/>
<path d="M196.123 174.204C196.123 173.844 196.106 173.484 196.074 173.124C195.739 173.21 195.318 173.529 194.918 174.35C195.326 174.386 195.736 174.336 196.123 174.204Z" fill="black"/>
<path d="M194.357 171.909V174.02C195.388 172.46 194.578 171.909 194.357 171.909Z" fill="black"/>
<path d="M168.437 107.109C168.248 107.109 167.654 107.503 168.075 108.545C168.21 108.108 168.356 107.627 168.502 107.12L168.437 107.109Z" fill="black"/>
<path d="M181.397 115.7C182.428 114.14 181.618 113.589 181.397 113.589C181.175 113.589 180.36 114.14 181.397 115.7Z" fill="black"/>
<path d="M194.13 95.8716L194.357 95.4126V94.149C194.152 94.149 193.466 94.6134 194.13 95.8716Z" fill="black"/>
<path d="M181.397 100.629C181.175 100.629 180.365 101.169 181.397 102.74C182.428 101.18 181.618 100.629 181.397 100.629Z" fill="black"/>
<path d="M170.786 121.889C170.824 121.821 170.847 121.746 170.854 121.669C170.86 121.592 170.85 121.514 170.824 121.441C170.773 121.38 170.711 121.332 170.64 121.298C170.569 121.265 170.492 121.247 170.413 121.246C170.312 121.244 170.212 121.258 170.116 121.289C170.338 121.559 170.537 121.802 170.699 122.018C170.734 121.979 170.763 121.936 170.786 121.889Z" fill="black"/>
<path d="M183.784 114.961C183.67 114.766 182.785 114.345 181.958 116.041C183.821 116.127 183.892 115.15 183.784 114.961Z" fill="black"/>
<path d="M183.519 102.73C183.498 102.433 183.498 102.135 183.519 101.839C183.173 101.731 182.542 101.839 181.942 103.064C182.491 103.153 183.054 103.034 183.519 102.73Z" fill="black"/>
<path d="M183.8 89.1C183.654 89.343 183.519 89.6076 183.379 89.883C183.524 89.8158 183.644 89.7031 183.72 89.5619C183.796 89.4206 183.824 89.2586 183.8 89.1Z" fill="black"/>
<path d="M166.05 108.481C165.942 108.664 166.012 109.604 167.756 109.561L167.805 109.42C167 107.897 166.163 108.292 166.05 108.481Z" fill="black"/>
<path d="M179.01 114.961C178.897 115.15 178.972 116.127 180.835 116.041C180.009 114.345 179.123 114.766 179.01 114.961Z" fill="black"/>
<path d="M191.97 95.5206C191.862 95.7096 191.932 96.6816 193.774 96.6006C192.964 94.9104 192.083 95.3262 191.97 95.5206Z" fill="black"/>
<path d="M180.835 103.064C180.65 102.63 180.347 102.256 179.96 101.984C179.874 102.389 179.798 102.73 179.744 102.989C180.101 103.077 180.47 103.103 180.835 103.064Z" fill="black"/>
<path d="M179.339 102.778C179.253 102.551 179.145 102.287 179.021 101.99C178.977 102.138 178.985 102.296 179.043 102.439C179.101 102.582 179.205 102.702 179.339 102.778Z" fill="black"/>
<path d="M181.397 154.58C182.428 153.02 181.618 152.469 181.397 152.469C181.175 152.469 180.36 153.02 181.397 154.58Z" fill="black"/>
<path d="M181.397 139.509C181.175 139.509 180.365 140.049 181.397 141.62C182.428 140.06 181.618 139.509 181.397 139.509Z" fill="black"/>
<path d="M181.397 126.549C181.175 126.549 180.365 127.089 181.397 128.66C182.428 127.1 181.618 126.549 181.397 126.549Z" fill="black"/>
<path d="M170.845 147.42C170.845 147.533 170.818 147.652 170.802 147.766C170.851 147.657 170.866 147.537 170.845 147.42Z" fill="black"/>
<path d="M170.824 160.321C170.716 160.137 169.943 159.781 169.171 161.06H170.543C170.662 160.983 170.754 160.869 170.804 160.736C170.855 160.603 170.862 160.458 170.824 160.321Z" fill="black"/>
<path d="M181.98 154.904C183.843 155.007 183.913 154.03 183.805 153.824C183.697 153.619 182.785 153.225 181.98 154.904Z" fill="black"/>
<path d="M183.784 140.881C183.67 140.686 182.785 140.265 181.958 141.961C183.821 142.047 183.892 141.07 183.784 140.881Z" fill="black"/>
<path d="M181.98 128.984C183.352 129.06 183.751 128.552 183.821 128.201L183.773 127.883C183.568 127.683 182.736 127.402 181.98 128.984Z" fill="black"/>
<path d="M193.001 160.331C192.461 159.959 192.046 160.186 191.97 160.331C191.932 160.469 191.939 160.614 191.99 160.747C192.04 160.88 192.132 160.994 192.251 161.071H193.255L193.001 160.331Z" fill="black"/>
<path d="M179.01 153.841C178.897 154.03 178.972 155.007 180.835 154.921C180.009 153.225 179.123 153.646 179.01 153.841Z" fill="black"/>
<path d="M179.01 140.881C178.897 141.07 178.972 142.047 180.835 141.961C180.009 140.265 179.123 140.686 179.01 140.881Z" fill="black"/>
<path d="M179.01 127.921C178.897 128.11 178.972 129.087 180.835 129.001C180.009 127.305 179.123 127.726 179.01 127.921Z" fill="black"/>
<path d="M181.397 191.349C181.186 191.349 180.452 191.846 181.246 193.217L181.516 193.271C182.358 191.857 181.607 191.349 181.397 191.349Z" fill="black"/>
<path d="M168.437 174.02C169.468 172.46 168.658 171.909 168.437 171.909C168.215 171.909 167.4 172.46 168.437 174.02Z" fill="black"/>
<path d="M194.357 171.909C194.135 171.909 193.325 172.449 194.357 174.02V171.909Z" fill="black"/>
<path d="M181.397 180.5C182.428 178.94 181.618 178.389 181.397 178.389C181.175 178.389 180.36 178.94 181.397 180.5Z" fill="black"/>
<path d="M181.397 165.429C181.175 165.429 180.365 165.969 181.397 167.54C182.428 165.98 181.618 165.429 181.397 165.429Z" fill="black"/>
<path d="M183.784 192.721C183.681 192.542 182.941 192.181 182.164 193.374C182.608 193.431 183.055 193.454 183.503 193.444C183.62 193.368 183.709 193.258 183.76 193.128C183.81 192.998 183.819 192.855 183.784 192.721Z" fill="black"/>
<path d="M169.02 174.344C170.883 174.447 170.953 173.47 170.845 173.264C170.737 173.059 169.825 172.665 169.02 174.344Z" fill="black"/>
<path d="M181.98 180.824C183.843 180.927 183.913 179.95 183.805 179.744C183.697 179.539 182.785 179.145 181.98 180.824Z" fill="black"/>
<path d="M183.784 166.801C183.67 166.606 182.785 166.185 181.958 167.881C183.821 167.967 183.892 166.99 183.784 166.801Z" fill="black"/>
<path d="M191.97 186.241C191.884 186.386 191.911 186.997 192.775 187.223C192.92 186.964 193.066 186.683 193.201 186.43C192.591 185.814 192.056 186.089 191.97 186.241Z" fill="black"/>
<path d="M179.318 192.542C179.626 192.688 179.941 192.818 180.263 192.931C180.153 192.789 180.008 192.679 179.842 192.611C179.676 192.543 179.496 192.519 179.318 192.542Z" fill="black"/>
<path d="M167.875 174.344C167.751 174.071 167.589 173.817 167.395 173.588C167.395 173.842 167.351 174.091 167.335 174.339C167.515 174.352 167.695 174.354 167.875 174.344Z" fill="black"/>
<path d="M193.795 174.344C192.969 172.665 192.083 173.086 191.97 173.264C191.857 173.443 191.932 174.447 193.795 174.344Z" fill="black"/>
<path d="M179.01 179.761C178.897 179.95 178.972 180.927 180.835 180.841C180.009 179.145 179.123 179.566 179.01 179.761Z" fill="black"/>
<path d="M179.01 166.801C178.897 166.99 178.972 167.967 180.835 167.881C180.009 166.185 179.123 166.606 179.01 166.801Z" fill="black"/>
<path d="M169.171 161.06C169.112 161.158 169.058 161.266 168.998 161.379C169.535 161.46 170.084 161.345 170.543 161.055H169.171V161.06Z" fill="black"/>
<path d="M193.255 161.06H192.24C192.57 161.282 192.961 161.395 193.358 161.384L193.255 161.06Z" fill="black"/>
</g>
</g>
<path d="M167.81 181.089C166.46 178.006 167.616 171.256 168.966 161.617C170.316 151.978 171.666 142.144 171.666 136.939C171.666 131.733 172.525 124.519 170.829 122.191C169.133 119.864 162.961 113.551 162.502 110.624C162.043 107.698 166.201 103.221 166.201 103.221C166.201 103.221 167.438 100.904 168.518 102.141C169.598 103.378 169.133 104.917 168.518 107.077C167.902 109.237 167.281 110.932 167.281 110.932C167.281 110.932 172.681 112.628 174.069 111.704C175.457 110.781 175.333 105.5 175.235 102.913C175.036 97.8697 173.016 100.024 171.617 102.411C170.942 103.556 166.99 102.875 169.301 99.9433C171.612 97.0111 173.761 94.4245 175.921 96.7411C178.081 99.0577 179.62 103.529 179.62 103.529C179.62 103.529 181.165 96.1795 182.569 91.8595C183.973 87.5395 186.489 85.8277 187.396 86.1301C188.303 86.4325 188.201 87.9391 187.294 90.0505C186.386 92.1619 184.378 97.9885 183.875 99.9001C183.373 101.812 183.276 104.02 184.28 103.82C185.285 103.621 188.8 97.4863 189.81 94.8727C190.82 92.2591 192.321 89.8507 194.027 88.7437C195.734 87.6367 197.143 89.0461 196.441 90.8551C195.047 94.1265 193.464 97.3142 191.7 100.402C190.591 102.398 189.65 104.482 188.887 106.634C190.542 104.87 192.287 103.192 194.114 101.606C196.528 99.5977 199.141 99.1981 199.94 99.9001C200.74 100.602 200.043 100.705 198.034 102.314C196.025 103.923 193.023 105.84 190.62 109.75C188.759 112.616 187.305 115.728 186.3 118.994C185.553 121.139 184.575 123.196 183.384 125.129C183.384 125.129 185.269 140.432 188.536 148.851C191.803 157.27 197.581 169.582 195.82 178.378C194.06 187.175 190.669 191.695 185.895 193.077C184.511 193.481 183.051 193.555 181.634 193.294C180.216 193.032 178.879 192.442 177.73 191.57" stroke="#263238" stroke-linecap="round" stroke-linejoin="round"/>
<path d="M190.62 109.75C193.034 105.829 196.052 103.918 198.061 102.314C200.07 100.71 200.761 100.602 199.967 99.9C199.174 99.198 196.555 99.5976 194.141 101.606C192.314 103.192 190.569 104.87 188.914 106.634C189.669 104.483 190.601 102.399 191.7 100.402C193.458 97.3138 195.036 94.1261 196.425 90.855C197.127 89.046 195.723 87.615 194.011 88.7436C192.299 89.8722 190.798 92.259 189.794 94.8726C188.789 97.4862 185.269 103.621 184.264 103.82C183.26 104.02 183.357 101.806 183.859 99.9C184.361 97.9938 186.376 92.1618 187.277 90.0504C188.179 87.939 188.282 86.4324 187.38 86.13C186.478 85.8276 183.962 87.534 182.552 91.8594C181.143 96.1848 179.604 103.529 179.604 103.529C179.604 103.529 178.065 99.0522 175.905 96.741C173.745 94.4298 171.585 97.011 169.285 99.9432C166.984 102.875 170.905 103.556 171.601 102.411C173 100.024 175.019 97.8696 175.219 102.913C175.316 105.5 175.441 110.776 174.053 111.704C172.665 112.633 167.265 110.932 167.265 110.932C167.265 110.932 167.881 109.237 168.502 107.077C169.123 104.917 169.582 103.372 168.502 102.141C167.422 100.91 166.185 103.221 166.185 103.221C166.185 103.221 162.022 107.692 162.486 110.624C162.95 113.557 169.117 119.875 170.813 122.191C172.508 124.508 171.65 131.733 171.65 136.939C171.65 142.144 170.3 151.978 168.95 161.617C168.95 161.746 168.912 161.865 168.896 161.989C171.029 164.23 175.376 167.443 182.725 167.195C187.65 167.027 191.138 164.549 193.498 161.822C191.932 157.162 189.967 152.642 188.509 148.862C185.242 140.443 183.357 125.14 183.357 125.14C184.548 123.206 185.526 121.15 186.273 119.005C187.286 115.733 188.749 112.618 190.62 109.75Z" fill="#B2B2B2" stroke="#263238" stroke-linecap="round" stroke-linejoin="round"/>
<path d="M175.835 124.524C175.835 124.524 174.933 120.706 176.24 118.292C176.927 116.92 178.06 115.821 179.453 115.177" stroke="#263238" stroke-linecap="round" stroke-linejoin="round"/>
</svg>
