<svg width="200" height="200" viewBox="0 0 200 200" fill="none" xmlns="http://www.w3.org/2000/svg">
<path d="M66.076 23.968C66.076 23.968 35.768 39.408 20.652 63.2C5.53598 86.992 6.73198 117.6 25.1 140.32C43.468 163.04 78.576 160.056 107.972 174.448C137.368 188.84 169.8 185.876 183.7 155.384C197.6 124.892 176.64 113.496 173.04 78.208C169.44 42.92 137.628 -8.752 66.076 23.968Z" fill="#636C3F"/>
<path opacity="0.7" d="M66.076 23.968C66.076 23.968 35.768 39.408 20.652 63.2C5.53598 86.992 6.73198 117.6 25.1 140.32C43.468 163.04 78.576 160.056 107.972 174.448C137.368 188.84 169.8 185.876 183.7 155.384C197.6 124.892 176.64 113.496 173.04 78.208C169.44 42.92 137.628 -8.752 66.076 23.968Z" fill="white"/>
<path d="M155.3 162.292C155.3 162.292 138.268 132.4 142.2 124.776C146.132 117.152 156.172 130.86 156.172 130.86C156.172 130.86 147.44 102.98 152.244 90.8C157.048 78.62 165.344 90.8 165.78 99.42C166.216 108.04 164.032 122.74 164.032 122.74C164.032 122.74 167.528 92.34 175.824 101.448C184.12 110.556 165.344 140.988 165.344 140.988C165.344 140.988 178.008 133.892 177.568 143.016C177.128 152.14 162.288 160.252 162.288 160.252" fill="#636C3F"/>
<path d="M155.444 156.716C155.444 156.716 139.684 142.012 147.364 135.424C155.044 128.836 159.084 142.52 159.084 142.52C159.084 142.52 150.596 100.444 164.336 98.92C178.076 97.396 167.972 135.42 167.972 135.42C167.972 135.42 179.692 119.2 178.884 132.4C178.076 145.6 160.7 156.736 160.7 156.736" stroke="#263238" stroke-miterlimit="10"/>
<path d="M163.184 154.04L152.536 142.5" stroke="#263238" stroke-miterlimit="10"/>
<path d="M160.968 154.928L163.852 121.196" stroke="#263238" stroke-miterlimit="10"/>
<path d="M160.524 152.484L170.064 139.836" stroke="#263238" stroke-miterlimit="10"/>
<path d="M174.324 150.132H144.864L147.812 184.88H171.376L174.324 150.132Z" fill="#263238"/>
<path d="M61.8599 109.836C58.0296 107.957 54.0703 106.353 50.0119 105.036C44.1639 103.236 37.2639 104.884 37.1119 106.832C36.9599 108.78 37.9999 107.888 39.3639 110C40.7279 112.112 40.1119 117.048 42.0639 121.548C44.0159 126.048 49.8599 128.296 49.8599 128.296L61.8599 109.836Z" fill="#636C3F" stroke="#263238" stroke-linecap="round" stroke-linejoin="round"/>
<path opacity="0.3" d="M57.9599 114.188C57.9599 114.188 48.9599 108.488 43.7119 106.536C38.4639 104.584 38.1639 107.436 38.1639 107.436C39.0273 107.753 39.7683 108.335 40.2806 109.099C40.7929 109.863 41.0503 110.769 41.0159 111.688C41.0159 115.056 42.6999 122.032 46.7919 123.472C50.8839 124.912 57.9599 114.188 57.9599 114.188Z" fill="black"/>
<path d="M122.178 120.557C124.53 119.663 125.66 116.892 124.7 114.366C123.741 111.84 121.056 110.517 118.704 111.411C116.352 112.304 115.223 115.076 116.182 117.602C117.141 120.127 119.826 121.45 122.178 120.557Z" fill="#636C3F" stroke="#263238" stroke-linecap="round" stroke-linejoin="round"/>
<path d="M57.6919 168.328L62.7399 183.472C62.8768 183.882 63.1394 184.239 63.4905 184.492C63.8416 184.745 64.2633 184.88 64.6959 184.88H72.5639C72.9664 184.881 73.3603 184.763 73.6966 184.542C74.0329 184.321 74.2969 184.006 74.4559 183.636L77.9759 175.468" fill="#636C3F"/>
<mask id="mask0_126_14121" style="mask-type:alpha" maskUnits="userSpaceOnUse" x="57" y="168" width="21" height="17">
<path d="M57.6919 168.328L62.7399 183.472C62.8768 183.882 63.1394 184.239 63.4905 184.492C63.8416 184.745 64.2633 184.88 64.6959 184.88H72.5639C72.9664 184.881 73.3603 184.763 73.6966 184.542C74.0329 184.321 74.2969 184.006 74.4559 183.636L77.9759 175.468" fill="white"/>
</mask>
<g mask="url(#mask0_126_14121)">
<path opacity="0.3" d="M60.2239 168.328L64.3999 183.472C64.4789 183.852 64.6806 184.196 64.974 184.45C65.2674 184.705 65.6363 184.856 66.0239 184.88H72.5479C72.9062 184.862 73.2498 184.732 73.5309 184.509C73.812 184.286 74.0165 183.981 74.1159 183.636L77.0359 175.468" fill="black"/>
</g>
<path d="M57.6919 168.328L62.7399 183.472C62.8768 183.882 63.1394 184.239 63.4905 184.492C63.8416 184.745 64.2633 184.88 64.6959 184.88H72.5639C72.9664 184.881 73.3603 184.763 73.6966 184.542C74.0329 184.321 74.2969 184.006 74.4559 183.636L77.9759 175.468" stroke="#263238" stroke-linecap="round" stroke-linejoin="round"/>
<path d="M95.6599 168.328L90.6159 183.472C90.479 183.882 90.2164 184.239 89.8653 184.492C89.5142 184.745 89.0925 184.88 88.6599 184.88H80.7999C80.3974 184.881 80.0036 184.763 79.6673 184.542C79.3309 184.321 79.0669 184.006 78.9079 183.636L75.3879 175.468" fill="#263238"/>
<path d="M95.6599 168.328L90.6159 183.472C90.479 183.882 90.2164 184.239 89.8653 184.492C89.5143 184.745 89.0925 184.88 88.6599 184.88H80.7999C80.3974 184.881 80.0036 184.763 79.6673 184.542C79.3309 184.321 79.0669 184.006 78.9079 183.636L75.3879 175.468" stroke="#263238" stroke-linecap="round" stroke-linejoin="round"/>
<path d="M112.376 168.328L107.328 183.472C107.191 183.882 106.928 184.239 106.577 184.492C106.226 184.745 105.804 184.88 105.372 184.88H97.5039C97.1014 184.881 96.7076 184.763 96.3712 184.542C96.0349 184.321 95.7709 184.006 95.6119 183.636L92.0919 175.468" fill="#636C3F"/>
<mask id="mask1_126_14121" style="mask-type:alpha" maskUnits="userSpaceOnUse" x="92" y="168" width="21" height="17">
<path d="M112.376 168.328L107.328 183.472C107.191 183.882 106.928 184.239 106.577 184.492C106.226 184.745 105.804 184.88 105.372 184.88H97.5039C97.1014 184.881 96.7076 184.763 96.3712 184.542C96.0349 184.321 95.7709 184.006 95.6119 183.636L92.0919 175.468" fill="white"/>
</mask>
<g mask="url(#mask1_126_14121)">
<path opacity="0.3" d="M108.8 168.328L105.348 183.472C105.156 184.312 104.62 184.88 104.012 184.88H98.632C98.072 184.88 97.564 184.392 97.34 183.636L93.996 175.636" fill="black"/>
</g>
<path d="M112.376 168.328L107.328 183.472C107.191 183.882 106.928 184.239 106.577 184.492C106.226 184.745 105.804 184.88 105.372 184.88H97.5039C97.1014 184.881 96.7076 184.763 96.3712 184.542C96.0349 184.321 95.7709 184.006 95.6119 183.636L92.0919 175.468" stroke="#263238" stroke-linecap="round" stroke-linejoin="round"/>
<path d="M85.4 178.292C109.296 178.292 128.668 160.724 128.668 139.052C128.668 117.38 109.296 99.812 85.4 99.812C61.5037 99.812 42.132 117.38 42.132 139.052C42.132 160.724 61.5037 178.292 85.4 178.292Z" fill="#636C3F"/>
<mask id="mask2_126_14121" style="mask-type:alpha" maskUnits="userSpaceOnUse" x="42" y="99" width="87" height="80">
<path d="M85.4 178.292C109.296 178.292 128.668 160.724 128.668 139.052C128.668 117.38 109.296 99.812 85.4 99.812C61.5037 99.812 42.132 117.38 42.132 139.052C42.132 160.724 61.5037 178.292 85.4 178.292Z" fill="white"/>
</mask>
<g mask="url(#mask2_126_14121)">
<path opacity="0.3" d="M115.2 112.24C117.737 117.272 119.059 122.829 119.06 128.464C119.06 150.136 99.688 167.704 75.792 167.704C66.8995 167.749 58.1833 165.224 50.692 160.432C58.236 170.556 71.008 177.232 85.492 177.232C108.692 177.232 127.492 160.188 127.492 139.16C127.468 128.636 122.772 119.128 115.2 112.24Z" fill="black"/>
</g>
<path d="M85.4 178.292C109.296 178.292 128.668 160.724 128.668 139.052C128.668 117.38 109.296 99.812 85.4 99.812C61.5037 99.812 42.132 117.38 42.132 139.052C42.132 160.724 61.5037 178.292 85.4 178.292Z" stroke="#263238" stroke-linecap="round" stroke-linejoin="round"/>
<path d="M125.028 142.572C124.084 150.476 120.44 157.648 114.952 163.312" stroke="#636C3F" stroke-width="2" stroke-linecap="round" stroke-linejoin="round"/>
<path d="M124.312 130.4C124.95 133.047 125.272 135.761 125.272 138.484" stroke="#636C3F" stroke-width="2" stroke-linecap="round" stroke-linejoin="round"/>
<path d="M74.6719 102.26C78.237 101.427 81.8866 101.008 85.5479 101.012C87.8919 101.012 90.2328 101.183 92.5519 101.524" stroke="#263238" stroke-width="4" stroke-linecap="round" stroke-linejoin="round"/>
<path d="M93.8879 129.652C93.8879 129.652 98.0879 126.8 98.2399 121.552C98.3919 116.304 91.4879 108.656 85.9399 105.504C80.3919 102.352 76.3399 102.956 76.1919 105.204C76.0439 107.452 74.0919 110.004 73.3439 114.352C72.5959 118.7 72.2919 125.152 78.1439 127.252" fill="#636C3F"/>
<path d="M93.8879 129.652C93.8879 129.652 98.0879 126.8 98.2399 121.552C98.3919 116.304 91.4879 108.656 85.9399 105.504C80.3919 102.352 76.3399 102.956 76.1919 105.204C76.0439 107.452 74.0919 110.004 73.3439 114.352C72.5959 118.7 72.2919 125.152 78.1439 127.252" stroke="#263238" stroke-linecap="round" stroke-linejoin="round"/>
<path opacity="0.3" d="M84.852 127.968L85.712 128.096C89.4 128.628 90.696 126.22 90.588 122.604C90.44 117.504 83.692 106.704 80.84 105.204C77.988 103.704 77.092 105.804 77.092 105.804C77.092 105.804 77.492 106.072 76.088 110.732C75.44 112.884 73.028 120.388 75.416 123.716C77.528 126.656 81.452 127.46 84.852 127.968Z" fill="black"/>
<path opacity="0.3" d="M96.7999 122.8H96.7439C96.6915 122.793 96.6411 122.776 96.5954 122.749C96.5497 122.723 96.5097 122.688 96.4777 122.646C96.4457 122.604 96.4224 122.556 96.409 122.505C96.3957 122.454 96.3926 122.4 96.3999 122.348C96.4432 122.04 96.4686 121.731 96.4759 121.42C96.5559 118.62 94.2719 114.6 90.5159 110.892C90.4783 110.855 90.4484 110.811 90.4279 110.762C90.4074 110.714 90.3966 110.662 90.3963 110.609C90.3959 110.556 90.4059 110.504 90.4257 110.455C90.4456 110.406 90.4749 110.362 90.5119 110.324C90.5489 110.286 90.593 110.257 90.6416 110.236C90.6902 110.215 90.7423 110.205 90.7951 110.204C90.8478 110.204 90.9001 110.214 90.949 110.234C90.9978 110.254 91.0423 110.283 91.0799 110.32C95.0479 114.24 97.3639 118.396 97.2759 121.44C97.2673 121.78 97.2406 122.119 97.1959 122.456C97.1824 122.551 97.1349 122.639 97.0622 122.702C96.9894 122.765 96.8963 122.8 96.7999 122.8Z" fill="black"/>
<path opacity="0.3" d="M94.6479 127.624C94.5722 127.624 94.498 127.603 94.4339 127.563C94.3698 127.523 94.3184 127.465 94.2858 127.397C94.2531 127.328 94.2405 127.252 94.2493 127.177C94.2582 127.102 94.2883 127.031 94.3359 126.972C94.9952 126.164 95.5217 125.257 95.8959 124.284C95.9336 124.185 96.0091 124.105 96.1059 124.061C96.2027 124.018 96.3128 124.014 96.4119 124.052C96.5111 124.09 96.5913 124.165 96.6348 124.262C96.6783 124.359 96.6816 124.469 96.6439 124.568C96.2398 125.621 95.67 126.603 94.9559 127.476C94.9187 127.522 94.8718 127.559 94.8185 127.585C94.7653 127.61 94.707 127.624 94.6479 127.624Z" fill="black"/>
<path opacity="0.3" d="M65.5189 146.644C66.7019 141.903 62.5785 136.791 56.309 135.227C50.0395 133.663 43.998 136.238 42.815 140.979C41.632 145.721 45.7554 150.832 52.0249 152.397C58.2945 153.961 64.3359 151.386 65.5189 146.644Z" fill="black"/>
<path d="M64.9561 145.783C66.1391 141.042 62.0156 135.93 55.7461 134.366C49.4766 132.802 43.4351 135.377 42.2521 140.118C41.0691 144.86 45.1926 149.971 51.4621 151.536C57.7316 153.1 63.7731 150.525 64.9561 145.783Z" fill="#636C3F" stroke="#263238" stroke-linecap="round" stroke-linejoin="round"/>
<path d="M50.072 141.52C50.144 142.592 49.732 143.496 49.156 143.52C48.58 143.544 48.048 142.72 47.956 141.648C47.864 140.576 48.296 139.668 48.876 139.648C49.456 139.628 50 140.444 50.072 141.52Z" stroke="#263238" stroke-linecap="round" stroke-linejoin="round"/>
<path d="M58 143.508C58.072 144.584 57.66 145.484 57.084 145.508C56.508 145.532 55.976 144.708 55.884 143.632C55.792 142.556 56.224 141.656 56.804 141.632C57.384 141.608 57.916 142.432 58 143.508Z" stroke="#263238" stroke-linecap="round" stroke-linejoin="round"/>
<path d="M71.0839 146.288C70.9995 147.058 70.8194 147.815 70.5479 148.54C68.2519 154.744 59.9399 157.428 51.7279 154.756" stroke="#263238" stroke-width="3" stroke-linecap="round" stroke-linejoin="round"/>
<path d="M69.7439 145.7H72.2919" stroke="#263238" stroke-width="3" stroke-linecap="round" stroke-linejoin="round"/>
<path d="M53.5119 129.092C53.2319 130.256 52.5159 131.092 51.9119 130.94C51.3079 130.788 51.0439 129.74 51.3279 128.564C51.6119 127.388 52.3239 126.564 52.9279 126.712C53.5319 126.86 53.7959 127.924 53.5119 129.092Z" fill="#263238" stroke="#263238" stroke-linecap="round" stroke-linejoin="round"/>
<path d="M60.8889 130.7C61.1704 129.532 60.9095 128.467 60.306 128.321C59.7025 128.176 58.985 129.005 58.7034 130.174C58.4219 131.342 58.6828 132.407 59.2863 132.552C59.8898 132.698 60.6073 131.869 60.8889 130.7Z" fill="#263238" stroke="#263238" stroke-linecap="round" stroke-linejoin="round"/>
<path d="M71.9039 173.2L76.3039 183.64C76.4619 184.013 76.7263 184.332 77.0642 184.556C77.4021 184.78 77.7985 184.9 78.2039 184.9H86.2039C86.6057 184.899 86.9985 184.782 87.3345 184.562C87.6705 184.341 87.9351 184.028 88.0959 183.66L92.8959 172.568H92.6879" fill="#636C3F"/>
<mask id="mask3_126_14121" style="mask-type:alpha" maskUnits="userSpaceOnUse" x="71" y="172" width="22" height="13">
<path d="M71.9039 173.2L76.3039 183.64C76.4619 184.013 76.7263 184.332 77.0642 184.556C77.4021 184.78 77.7985 184.9 78.2039 184.9H86.2039C86.6057 184.899 86.9985 184.782 87.3345 184.562C87.6705 184.341 87.9351 184.028 88.0959 183.66L92.8959 172.568H92.6879" fill="white"/>
</mask>
<g mask="url(#mask3_126_14121)">
<path opacity="0.3" d="M81.2 171.868C78.664 171.868 75.712 172.2 73.324 171.648L77.436 183.62C77.5339 183.968 77.7381 184.276 78.0199 184.502C78.3018 184.728 78.6473 184.86 79.008 184.88H85.6C85.9564 184.86 86.2979 184.73 86.5773 184.508C86.8567 184.286 87.0603 183.983 87.16 183.64L91.14 171.428L89.54 171.648C84.464 172.2 84.596 171.868 81.2 171.868Z" fill="black"/>
</g>
<path d="M71.9039 173.2L76.3039 183.64C76.4619 184.013 76.7263 184.332 77.0642 184.556C77.4021 184.78 77.7985 184.9 78.2039 184.9H86.2039C86.6057 184.899 86.9985 184.782 87.3345 184.562C87.6705 184.341 87.9351 184.028 88.0959 183.66L92.8959 172.568H92.6879" stroke="#263238" stroke-linecap="round" stroke-linejoin="round"/>
<path d="M151.6 10.576L129.476 42.452C129.476 42.452 127.584 46.964 125.256 50.312C122.928 53.66 116.4 57.008 116.4 57.008C116.4 57.008 115.82 63.264 113.928 65.448C112.036 67.632 107.96 66.324 107.96 66.324C107.96 66.324 106.212 68.216 104.32 69.088C102.428 69.96 96.608 66.76 96.608 66.76C96.608 66.76 101.844 72.436 102.572 74.328C103.3 76.22 104.612 77.82 102.284 79.568C99.956 81.316 97.332 78.84 97.332 78.84C97.332 78.84 98.5 82.624 95.152 83.352C91.804 84.08 88.156 76.8 86.7 74.328C85.244 71.856 81.024 62.536 80.3 62.1C79.576 61.664 78.556 59.336 80.012 57.152C81.468 54.968 91.796 40.996 92.96 40C94.124 39.004 116.4 33.72 116.4 33.72L124.844 10.432" fill="white"/>
<mask id="mask4_126_14121" style="mask-type:alpha" maskUnits="userSpaceOnUse" x="79" y="10" width="73" height="74">
<path d="M151.6 10.576L129.476 42.452C129.476 42.452 127.584 46.964 125.256 50.312C122.928 53.66 116.4 57.008 116.4 57.008C116.4 57.008 115.82 63.264 113.928 65.448C112.036 67.632 107.96 66.324 107.96 66.324C107.96 66.324 106.212 68.216 104.32 69.088C102.428 69.96 96.608 66.76 96.608 66.76C96.608 66.76 101.844 72.436 102.572 74.328C103.3 76.22 104.612 77.82 102.284 79.568C99.956 81.316 97.332 78.84 97.332 78.84C97.332 78.84 98.5 82.624 95.152 83.352C91.804 84.08 88.156 76.8 86.7 74.328C85.244 71.856 81.024 62.536 80.3 62.1C79.576 61.664 78.556 59.336 80.012 57.152C81.468 54.968 91.796 40.996 92.96 40C94.124 39.004 116.4 33.72 116.4 33.72L124.844 10.432" fill="white"/>
</mask>
<g mask="url(#mask4_126_14121)">
<path opacity="0.2" d="M127.2 42.8C127.2 42.8 124.8 50 122.2 51.4C119.6 52.8 104.8 56.6 99 55.8C93.2 55 90 52.8 90 52.8C90 52.8 86.8 57 85.4 58.4C84.4251 59.3054 83.265 59.9878 82 60.4C82 60.4 88.96 77.884 93.964 83.296C94.3528 83.4161 94.7657 83.4354 95.164 83.352C98.512 82.624 97.344 78.84 97.344 78.84C97.344 78.84 99.964 81.312 102.296 79.568C104.628 77.824 103.312 76.22 102.584 74.328C101.856 72.436 96.6 66.76 96.6 66.76C96.6 66.76 102.42 69.96 104.312 69.088C106.204 68.216 107.952 66.32 107.952 66.32C107.952 66.32 112.028 67.632 113.92 65.448C115.812 63.264 116.392 57.008 116.392 57.008C116.392 57.008 122.94 53.66 125.272 50.312C127.604 46.964 129.492 42.452 129.492 42.452L138.608 29.32L127.2 42.8Z" fill="black"/>
</g>
<path d="M151.6 10.576L129.476 42.452C129.476 42.452 127.584 46.964 125.256 50.312C122.928 53.66 116.4 57.008 116.4 57.008C116.4 57.008 115.82 63.264 113.928 65.448C112.036 67.632 107.96 66.324 107.96 66.324C107.96 66.324 106.212 68.216 104.32 69.088C102.428 69.96 96.608 66.76 96.608 66.76C96.608 66.76 101.844 72.436 102.572 74.328C103.3 76.22 104.612 77.82 102.284 79.568C99.956 81.316 97.332 78.84 97.332 78.84C97.332 78.84 98.5 82.624 95.152 83.352C91.804 84.08 88.156 76.8 86.7 74.328C85.244 71.856 81.024 62.536 80.3 62.1C79.576 61.664 78.556 59.336 80.012 57.152C81.468 54.968 91.796 40.996 92.96 40C94.124 39.004 116.4 33.72 116.4 33.72L124.844 10.432" stroke="#263238" stroke-linecap="round" stroke-linejoin="round"/>
<path d="M75.932 95.576L76.512 97.76L85.536 95.576L93.98 73.452L88.448 71.56L75.932 95.576Z" fill="white" stroke="#263238" stroke-linecap="round" stroke-linejoin="round"/>
<path d="M78.696 66.176L91.212 70.836L85.1 98.488L70.4 93.976L78.696 66.176Z" fill="white" stroke="#263238" stroke-linecap="round" stroke-linejoin="round"/>
<path d="M70.8921 92.324L83.9361 96.16L89.6121 71.56L78.1841 67.888L70.8921 92.324Z" fill="#636C3F" stroke="#263238" stroke-linecap="round" stroke-linejoin="round"/>
<path d="M78.132 73.972C77.5643 73.8217 76.9711 73.7945 76.392 73.892L72.984 85.312C73.4773 85.7927 74.0841 86.1408 74.748 86.324C77.42 87.06 80.348 84.888 81.284 81.476C82.22 78.064 80.8 74.704 78.132 73.972Z" fill="white" stroke="#263238" stroke-linecap="round" stroke-linejoin="round"/>
<path d="M77.648 75.864C77.6308 75.8562 77.6168 75.843 77.6081 75.8263C77.5994 75.8096 77.5965 75.7905 77.6 75.772L77.752 75.18C77.7613 75.155 77.7647 75.1283 77.7622 75.1018C77.7596 75.0753 77.7511 75.0498 77.7372 75.0271C77.7234 75.0043 77.7045 74.9851 77.6822 74.9707C77.6598 74.9563 77.6344 74.9472 77.608 74.944L76.972 74.792C76.9471 74.7819 76.9202 74.7777 76.8934 74.7799C76.8666 74.7821 76.8407 74.7905 76.8177 74.8045C76.7948 74.8185 76.7754 74.8377 76.7612 74.8605C76.747 74.8834 76.7384 74.9092 76.736 74.936L76.612 75.548C76.6073 75.5663 76.5963 75.5824 76.581 75.5933C76.5656 75.6043 76.5468 75.6095 76.528 75.608C76.3112 75.5858 76.0928 75.5858 75.876 75.608L74.712 79.516C75.62 80.46 77.036 80.932 76.848 81.724C76.74 82.172 76.332 82.524 75.616 82.364C75.4663 82.344 75.3226 82.2919 75.1948 82.2114C75.067 82.1309 74.958 82.0239 74.8753 81.8975C74.7925 81.7711 74.738 81.6284 74.7153 81.479C74.6927 81.3297 74.7025 81.1772 74.744 81.032L74.78 80.872C74.8 80.784 74.748 80.712 74.624 80.684L74.38 80.624L73.688 82.936C73.9659 83.1887 74.2907 83.3843 74.644 83.512C74.6619 83.5199 74.6766 83.5338 74.6853 83.5513C74.6941 83.5689 74.6964 83.5889 74.692 83.608L74.548 84.116C74.5369 84.1408 74.5321 84.168 74.5338 84.1951C74.5356 84.2222 74.5439 84.2485 74.5581 84.2718C74.5722 84.295 74.5918 84.3144 74.6151 84.3284C74.6385 84.3423 74.6648 84.3504 74.692 84.352L75.352 84.512C75.3752 84.5243 75.4009 84.5312 75.4272 84.532C75.4534 84.5328 75.4795 84.5277 75.5035 84.5168C75.5274 84.506 75.5486 84.4899 75.5653 84.4696C75.582 84.4494 75.5939 84.4255 75.6 84.4L75.708 83.896C75.7139 83.8773 75.7257 83.8611 75.7415 83.8496C75.7573 83.8381 75.7764 83.8319 75.796 83.832C77.204 83.98 78.16 83.288 78.456 82.056C78.688 81.072 78.356 80.236 77.328 79.448C76.388 78.736 75.396 78.384 75.568 77.656C75.688 77.152 76.148 76.92 76.768 77.068C76.9214 77.0927 77.0677 77.1503 77.1967 77.2369C77.3258 77.3236 77.4345 77.4371 77.5155 77.5698C77.5964 77.7024 77.6477 77.8511 77.6658 78.0054C77.6838 78.1598 77.6682 78.3162 77.62 78.464L77.592 78.576C77.592 78.644 77.632 78.704 77.756 78.736L78.928 79.016C78.9529 79.0252 78.9797 79.0287 79.0061 79.0262C79.0326 79.0236 79.0582 79.0151 79.0809 79.0012C79.1036 78.9874 79.1229 78.9685 79.1373 78.9462C79.1517 78.9238 79.1608 78.8984 79.164 78.872L79.252 78.5C79.52 77.328 78.956 76.332 77.648 75.864Z" fill="#263238"/>
<path d="M89.0281 51.62C89.0281 51.62 90.7761 54.24 91.0681 56.572C91.3162 58.5596 90.8513 60.5709 89.7561 62.248C88.8841 63.556 88.0121 64.72 87.2841 66.76C86.5561 68.8 86.4121 71.708 85.3921 73.16C84.3721 74.612 83.7921 76.068 85.2441 77.38C86.6961 78.692 90.4841 78.544 92.5241 74.76C94.5641 70.976 95.8721 66.9 97.1801 65.444C98.4881 63.988 102.712 60.644 102.712 60.644C102.712 60.644 114.208 59.044 116.392 57.008C118.576 54.972 120.468 49.44 120.468 49.44" fill="white"/>
<mask id="mask5_126_14121" style="mask-type:alpha" maskUnits="userSpaceOnUse" x="84" y="49" width="37" height="30">
<path d="M89.0281 51.62C89.0281 51.62 90.7761 54.24 91.0681 56.572C91.3162 58.5596 90.8513 60.5709 89.7561 62.248C88.8841 63.556 88.0121 64.72 87.2841 66.76C86.5561 68.8 86.4121 71.708 85.3921 73.16C84.3721 74.612 83.7921 76.068 85.2441 77.38C86.6961 78.692 90.4841 78.544 92.5241 74.76C94.5641 70.976 95.8721 66.9 97.1801 65.444C98.4881 63.988 102.712 60.644 102.712 60.644C102.712 60.644 114.208 59.044 116.392 57.008C118.576 54.972 120.468 49.44 120.468 49.44" fill="white"/>
</mask>
<g mask="url(#mask5_126_14121)">
<path opacity="0.2" d="M119.6 51.4C119.6 51.4 113.4 55.4 108.6 56.6C103.8 57.8 100.8 57.8 99.0001 60.2C97.2001 62.6 95.4001 70.2 93.0001 71.6C90.6001 73 90.2001 68 86.8001 69L86.6881 69.04C86.3561 70.6 86.0641 72.2 85.3921 73.164C84.3721 74.62 83.7921 76.072 85.2441 77.384C86.6961 78.696 90.4841 78.548 92.5241 74.764C94.5641 70.98 95.8721 66.904 97.1801 65.448C98.4881 63.992 102.712 60.648 102.712 60.648C102.712 60.648 114.208 59.048 116.392 57.012C117.712 55.78 118.924 53.276 119.676 51.484L119.6 51.4Z" fill="black"/>
</g>
<path d="M89.0281 51.62C89.0281 51.62 90.7761 54.24 91.0681 56.572C91.3162 58.5596 90.8513 60.5709 89.7561 62.248C88.8841 63.556 88.0121 64.72 87.2841 66.76C86.5561 68.8 86.4121 71.708 85.3921 73.16C84.3721 74.612 83.7921 76.068 85.2441 77.38C86.6961 78.692 90.4841 78.544 92.5241 74.76C94.5641 70.976 95.8721 66.9 97.1801 65.444C98.4881 63.988 102.712 60.644 102.712 60.644C102.712 60.644 114.208 59.044 116.392 57.008C118.576 54.972 120.468 49.44 120.468 49.44" stroke="#263238" stroke-linecap="round" stroke-linejoin="round"/>
<path d="M84.516 58.9C84.516 58.9 88.304 60.936 91.068 58.608" stroke="#263238" stroke-linecap="round" stroke-linejoin="round"/>
<path d="M97.324 78.84L93.98 72.436" stroke="#263238" stroke-linecap="round" stroke-linejoin="round"/>
<path d="M107.952 66.324C107.952 66.324 110.572 64.14 110.424 59.336" stroke="#263238" stroke-linecap="round" stroke-linejoin="round"/>
<path d="M28.4 184.88H186.8" stroke="#263238" stroke-linecap="round" stroke-linejoin="round"/>
<path d="M14.4 184.88H21.6" stroke="#263238" stroke-linecap="round" stroke-linejoin="round"/>
</svg>
