<svg width="300" height="267" viewBox="0 0 300 267" fill="none" xmlns="http://www.w3.org/2000/svg">
<path d="M240.42 230.469C255.246 218.604 266.262 202.397 274.578 186.681C286.932 163.335 293.508 134.205 276.264 111.505C266.316 98.4109 250.776 90.1445 233.526 87.0313C216.93 84.0409 200.79 84.6871 186.516 75.326C172.08 65.8475 159.516 54.0248 146.592 43.019C113.364 14.717 52.9919 22.8338 24.9539 60.9401C-3.08405 99.0463 4.55395 148.548 31.5539 171.51C55.7999 192.139 89.6279 196.17 116.4 212.297C129.666 220.307 138.942 232.092 153 239.125C169.35 247.301 189.396 250.654 207.816 246.478C220.356 243.632 231.132 237.902 240.42 230.469Z" fill="#636C3F"/>
<path opacity="0.7" d="M240.42 230.469C255.246 218.604 266.262 202.397 274.578 186.681C286.932 163.335 293.508 134.205 276.264 111.505C266.316 98.4109 250.776 90.1445 233.526 87.0313C216.93 84.0409 200.79 84.6871 186.516 75.326C172.08 65.8475 159.516 54.0248 146.592 43.019C113.364 14.717 52.9919 22.8338 24.9539 60.9401C-3.08405 99.0463 4.55395 148.548 31.5539 171.51C55.7999 192.139 89.6279 196.17 116.4 212.297C129.666 220.307 138.942 232.092 153 239.125C169.35 247.301 189.396 250.654 207.816 246.478C220.356 243.632 231.132 237.902 240.42 230.469Z" fill="white"/>
<path d="M268.056 237.016L265.734 217.616" stroke="#263238" stroke-width="0.985332" stroke-linecap="round" stroke-linejoin="round"/>
<path d="M265.722 218.16C265.722 218.16 261.552 215.271 261.552 208.666C261.552 202.06 267.114 196.699 267.114 196.699C267.114 196.699 273.144 203.304 271.752 209.905C270.36 216.505 265.722 218.16 265.722 218.16Z" fill="#636C3F" stroke="#263238" stroke-width="0.985332" stroke-linecap="round" stroke-linejoin="round"/>
<path d="M265.734 217.616L266.796 203.037" stroke="#263238" stroke-width="0.985332" stroke-linecap="round" stroke-linejoin="round"/>
<path d="M270.198 235.585C272.222 230.941 274.693 226.462 277.584 222.197" stroke="#263238" stroke-width="0.985332" stroke-linecap="round" stroke-linejoin="round"/>
<path d="M275.4 225.706C275.4 225.706 273.084 221.471 276.36 215.56C279.636 209.648 287.292 207.016 287.292 207.016C287.292 207.016 289.422 215.309 284.892 220.686C280.362 226.064 275.4 225.706 275.4 225.706Z" fill="#636C3F" stroke="#263238" stroke-width="0.985332" stroke-linecap="round" stroke-linejoin="round"/>
<path d="M275.4 225.706L283.842 213.354" stroke="#263238" stroke-width="0.985332" stroke-linecap="round" stroke-linejoin="round"/>
<path d="M264.294 237.315C263.036 233.585 261.326 229.988 259.194 226.587L255.948 221.61" stroke="#263238" stroke-width="0.985332" stroke-linecap="round" stroke-linejoin="round"/>
<path d="M258.558 225.46C255.997 226.16 253.278 226.272 250.655 225.784C248.032 225.297 245.59 224.226 243.558 222.673C236.358 217.29 236.76 206.306 236.76 206.306C236.76 206.306 250.716 204.533 256.35 211.571C257.983 213.541 259.04 215.843 259.426 218.267C259.811 220.692 259.513 223.164 258.558 225.46Z" fill="#636C3F" stroke="#263238" stroke-width="0.985332" stroke-linecap="round" stroke-linejoin="round"/>
<path d="M258.558 225.46L242.016 210.118" stroke="#263238" stroke-width="0.985332" stroke-linecap="round" stroke-linejoin="round"/>
<path d="M275.688 232.861H258.03V248.273H275.688V232.861Z" fill="#263238" stroke="#263238" stroke-width="0.985332" stroke-linecap="round" stroke-linejoin="round"/>
<path d="M246.186 15.486H128.07V104.05H246.186V15.486Z" fill="white" stroke="#263238" stroke-width="0.985332" stroke-linecap="round" stroke-linejoin="round"/>
<path d="M152.586 65.2762H151.626L151.464 64.3043H150.3L150.132 65.2762H149.262L150.228 59.8988H151.62L152.586 65.2762ZM150.42 63.5727H151.332L150.876 60.8493L150.42 63.5727Z" fill="#263238"/>
<path d="M153.93 59.8988V64.048C153.93 64.4324 154.122 64.582 154.422 64.582C154.722 64.582 154.92 64.4431 154.92 64.048V59.8988H155.814V63.9946C155.814 64.8543 155.334 65.3456 154.398 65.3456C153.462 65.3456 152.982 64.8543 152.982 63.9946V59.8988H153.93Z" fill="#263238"/>
<path d="M156.186 59.8988H159.12V60.6677H158.13V65.2762H157.2V60.6677H156.21L156.186 59.8988Z" fill="#263238"/>
<path d="M160.488 65.2762H159.534V59.8988H160.488V62.2057H161.562V59.8988H162.534V65.2762H161.562V62.9746H160.488V65.2762Z" fill="#263238"/>
<path d="M164.172 62.1629H165.474V62.9319H164.172V64.5339H165.81V65.3029H163.2V59.8988H165.786V60.6677H164.148L164.172 62.1629Z" fill="#263238"/>
<path d="M167.244 61.41V65.3029H166.392V59.8988H167.592L168.57 63.1028V59.8988H169.416V65.2762H168.438L167.244 61.41Z" fill="#263238"/>
<path d="M169.8 59.8988H172.74V60.6677H171.744V65.2762H170.796V60.6677H169.8V59.8988Z" fill="#263238"/>
<path d="M173.16 59.8988H174.108V65.2762H173.16V59.8988Z" fill="#263238"/>
<path d="M177.552 63.2736V63.9892C177.552 64.8489 177.072 65.3402 176.136 65.3402C175.2 65.3402 174.72 64.8489 174.72 63.9892V61.191C174.72 60.326 175.206 59.8347 176.136 59.8347C177.066 59.8347 177.552 60.326 177.552 61.191V61.725H176.658V61.1483C176.658 60.7638 176.466 60.6143 176.166 60.6143C175.866 60.6143 175.674 60.7638 175.674 61.1483V64.0533C175.674 64.4378 175.86 64.5873 176.166 64.5873C176.472 64.5873 176.658 64.4538 176.658 64.0533V63.2843L177.552 63.2736Z" fill="#263238"/>
<path d="M181.2 65.2762H180.24L180.078 64.3043H178.92L178.752 65.2762H177.882L178.848 59.8988H180.24L181.2 65.2762ZM179.034 63.5727H179.946L179.49 60.8493L179.034 63.5727Z" fill="#263238"/>
<path d="M181.038 59.8988H183.978V60.6677H183V65.2762H182.052V60.6677H181.056L181.038 59.8988Z" fill="#263238"/>
<path d="M185.34 62.1629H186.642V62.9319H185.34V64.5339H186.984V65.3029H184.392V59.8988H186.984V60.6677H185.34V62.1629Z" fill="#263238"/>
<path d="M189.798 63.4926L188.598 59.8988H189.6L190.326 62.3498L191.052 59.8988H191.958L190.758 63.4926V65.2762H189.81L189.798 63.4926Z" fill="#263238"/>
<path d="M192.12 61.1911C192.12 60.8511 192.272 60.5252 192.542 60.2848C192.812 60.0445 193.178 59.9095 193.56 59.9095C193.942 59.9095 194.308 60.0445 194.578 60.2848C194.848 60.5252 195 60.8511 195 61.1911V63.9892C195 64.3291 194.848 64.6551 194.578 64.8954C194.308 65.1358 193.942 65.2708 193.56 65.2708C193.178 65.2708 192.812 65.1358 192.542 64.8954C192.272 64.6551 192.12 64.3291 192.12 63.9892V61.1911ZM193.068 64.0426C193.068 64.4271 193.26 64.5766 193.56 64.5766C193.86 64.5766 194.052 64.4324 194.052 64.0426V61.1377C194.052 60.7532 193.86 60.6037 193.56 60.6037C193.26 60.6037 193.068 60.7532 193.068 61.1377V64.0426Z" fill="#263238"/>
<path d="M196.518 59.8988V64.048C196.518 64.4324 196.71 64.582 197.01 64.582C197.31 64.582 197.502 64.4431 197.502 64.048V59.8988H198.402V63.9946C198.402 64.8543 197.922 65.3456 196.986 65.3456C196.05 65.3456 195.57 64.8543 195.57 63.9946V59.8988H196.518Z" fill="#263238"/>
<path d="M201.036 65.2762C200.956 65.0631 200.928 64.8375 200.952 64.614V63.7703C200.952 63.2737 200.76 63.0868 200.352 63.0868H200.022V65.2762H199.074V59.8988H200.508C201.492 59.8988 201.912 60.3046 201.912 61.1377V61.5595C201.943 61.7705 201.902 61.9848 201.795 62.1751C201.688 62.3654 201.52 62.5229 201.312 62.6275C201.786 62.8037 201.942 63.2096 201.942 63.7703V64.614C201.923 64.8351 201.958 65.0573 202.044 65.2655L201.036 65.2762ZM199.998 60.6677V62.3178H200.4C200.754 62.3178 200.97 62.179 200.97 61.7518V61.2178C200.97 60.8333 200.826 60.6838 200.49 60.6838L199.998 60.6677Z" fill="#263238"/>
<path d="M206.934 65.2762H205.974L205.812 64.3043H204.642L204.48 65.2762H203.61L204.6 59.8988H205.992L206.934 65.2762ZM204.768 63.5727H205.68L205.2 60.876L204.768 63.5727Z" fill="#263238"/>
<path d="M210.12 63.2736V63.9892C210.12 64.8489 209.634 65.3402 208.704 65.3402C207.774 65.3402 207.288 64.8489 207.288 63.9892V61.191C207.288 60.326 207.768 59.8347 208.704 59.8347C209.64 59.8347 210.12 60.326 210.12 61.191V61.725H209.22V61.1483C209.22 60.7638 209.028 60.6143 208.728 60.6143C208.428 60.6143 208.236 60.7638 208.236 61.1483V64.0533C208.236 64.4378 208.428 64.5873 208.728 64.5873C209.028 64.5873 209.22 64.4538 209.22 64.0533V63.2843L210.12 63.2736Z" fill="#263238"/>
<path d="M213.45 63.2736V63.9892C213.45 64.8489 212.97 65.3402 212.034 65.3402C211.098 65.3402 210.618 64.8489 210.618 63.9892V61.191C210.618 60.326 211.104 59.8347 212.034 59.8347C212.964 59.8347 213.45 60.326 213.45 61.191V61.725H212.55V61.1483C212.55 60.7638 212.364 60.6143 212.058 60.6143C211.752 60.6143 211.566 60.7638 211.566 61.1483V64.0533C211.566 64.4378 211.758 64.5873 212.058 64.5873C212.358 64.5873 212.55 64.4538 212.55 64.0533V63.2843L213.45 63.2736Z" fill="#263238"/>
<path d="M213.948 61.1911C213.935 61.0154 213.963 60.8394 214.03 60.6737C214.097 60.5081 214.201 60.3564 214.336 60.228C214.471 60.0996 214.635 59.9973 214.816 59.9273C214.998 59.8574 215.193 59.8213 215.391 59.8213C215.589 59.8213 215.784 59.8574 215.966 59.9273C216.147 59.9973 216.311 60.0996 216.446 60.228C216.581 60.3564 216.685 60.5081 216.752 60.6737C216.819 60.8394 216.847 61.0154 216.834 61.1911V63.9892C216.847 64.1648 216.819 64.3409 216.752 64.5066C216.685 64.6722 216.581 64.8239 216.446 64.9523C216.311 65.0807 216.147 65.183 215.966 65.253C215.784 65.3229 215.589 65.359 215.391 65.359C215.193 65.359 214.998 65.3229 214.816 65.253C214.635 65.183 214.471 65.0807 214.336 64.9523C214.201 64.8239 214.097 64.6722 214.03 64.5066C213.963 64.3409 213.935 64.1648 213.948 63.9892V61.1911ZM214.902 64.0426C214.902 64.4271 215.088 64.5766 215.394 64.5766C215.7 64.5766 215.886 64.4324 215.886 64.0426V61.1377C215.886 60.7532 215.694 60.6037 215.394 60.6037C215.094 60.6037 214.902 60.7532 214.902 61.1377V64.0426Z" fill="#263238"/>
<path d="M218.352 59.8988V64.048C218.352 64.4324 218.544 64.582 218.844 64.582C219.144 64.582 219.336 64.4431 219.336 64.048V59.8988H220.236V63.9946C220.236 64.8543 219.756 65.3456 218.82 65.3456C217.884 65.3456 217.404 64.8543 217.404 63.9946V59.8988H218.352Z" fill="#263238"/>
<path d="M221.73 61.41V65.3029H220.878V59.8988H222.078L223.056 63.1028V59.8988H223.902V65.2762H222.924L221.73 61.41Z" fill="#263238"/>
<path d="M224.292 59.8988H227.232V60.6677H226.236V65.2762H225.288V60.6677H224.292V59.8988Z" fill="#263238"/>
<path d="M201.057 43.4071C202.247 36.8326 197.223 30.6444 189.836 29.5854C182.449 28.5264 175.496 32.9977 174.306 39.5723C173.116 46.1468 178.14 52.335 185.527 53.394C192.914 54.4529 199.867 49.9817 201.057 43.4071Z" fill="#636C3F"/>
<path d="M193.59 38.7096C193.59 39.7499 193.243 40.7669 192.594 41.6319C191.945 42.4969 191.022 43.171 189.942 43.5692C188.862 43.9673 187.673 44.0714 186.527 43.8685C185.381 43.6655 184.328 43.1646 183.501 42.4289C182.674 41.6933 182.112 40.7561 181.884 39.7358C181.656 38.7155 181.773 37.6579 182.22 36.6968C182.667 35.7356 183.425 34.9142 184.397 34.3362C185.369 33.7582 186.511 33.4497 187.68 33.4497C189.247 33.4497 190.751 34.0039 191.859 34.9903C192.967 35.9768 193.59 37.3146 193.59 38.7096Z" fill="#263238"/>
<path d="M177.954 49.8756C179.216 51.0361 180.728 51.9588 182.398 52.589C184.069 53.2192 185.865 53.5439 187.68 53.5439C189.495 53.5439 191.291 53.2192 192.962 52.589C194.633 51.9588 196.144 51.0361 197.406 49.8756V49.5285C197.407 48.9194 197.273 48.316 197.011 47.7531C196.75 47.1901 196.367 46.6785 195.883 46.2475C195.399 45.8165 194.825 45.4746 194.192 45.2414C193.56 45.0081 192.883 44.888 192.198 44.888H183.168C181.785 44.888 180.459 45.3769 179.481 46.2472C178.503 47.1174 177.954 48.2978 177.954 49.5285V49.8756Z" fill="#263238"/>
<path d="M228.282 74.9683H146.55V83.8113H228.282V74.9683Z" stroke="#263238" stroke-width="0.985332" stroke-miterlimit="10"/>
<path d="M228.282 88.2275H146.55V97.0705H228.282V88.2275Z" fill="#636C3F" stroke="#263238" stroke-width="0.985332" stroke-miterlimit="10"/>
<path d="M173.964 79.6407V80.1747H172.488V82.0865H174.288V82.6205H171.804V77.2591H174.288V77.7931H172.488V79.6301L173.964 79.6407Z" fill="#BDBDBD"/>
<path d="M175.518 82.6418H174.918V77.2591H175.8L177.198 81.1466V77.2591H177.798V82.6418H177.096L175.548 78.2897L175.518 82.6418Z" fill="#BDBDBD"/>
<path d="M179.334 82.6418V77.8038H178.2V77.2698H181.104V77.8038H180V82.6418H179.334Z" fill="#BDBDBD"/>
<path d="M183.738 79.6407V80.1747H182.262V82.0865H184.062V82.6205H181.578V77.2591H184.062V77.7931H182.262V79.6301L183.738 79.6407Z" fill="#BDBDBD"/>
<path d="M186.042 77.2591C186.996 77.2591 187.392 77.6916 187.392 78.4873V78.9252C187.433 79.1592 187.381 79.3987 187.244 79.6018C187.107 79.8049 186.894 79.9586 186.642 80.0359C187.194 80.1801 187.398 80.5699 187.398 81.1573V81.9957C187.38 82.2165 187.422 82.4378 187.518 82.6418H186.84C186.744 82.434 186.705 82.2089 186.726 81.985V81.168C186.726 80.5592 186.408 80.367 185.844 80.367H185.4V82.6685H184.728V77.2591H186.042ZM185.874 79.7956C186.408 79.7956 186.726 79.6407 186.726 79.0587V78.5247C186.726 78.0441 186.528 77.7878 186.024 77.7878H185.4V79.7796L185.874 79.7956Z" fill="#BDBDBD"/>
<path d="M192.108 78.5567V79.032H191.466V78.498C191.466 78.0121 191.25 77.7183 190.758 77.7183C190.266 77.7183 190.05 78.0121 190.05 78.498V81.3389C190.05 81.8248 190.272 82.1185 190.758 82.1185C191.244 82.1185 191.466 81.8248 191.466 81.3389V80.6393H192.108V81.3068C192.108 82.1239 191.67 82.6632 190.74 82.6632C189.81 82.6632 189.384 82.1292 189.384 81.3068V78.5247C189.384 77.713 189.816 77.1737 190.74 77.1737C191.664 77.1737 192.108 77.7451 192.108 78.5567Z" fill="#BDBDBD"/>
<path d="M192.666 78.5567C192.666 77.7344 193.122 77.2057 194.046 77.2057C194.97 77.2057 195.438 77.7397 195.438 78.5567V81.3389C195.438 82.1559 194.982 82.6952 194.046 82.6952C193.11 82.6952 192.666 82.1612 192.666 81.3389V78.5567ZM193.332 81.3709C193.332 81.8622 193.566 82.1506 194.046 82.1506C194.526 82.1506 194.766 81.8622 194.766 81.3709V78.53C194.766 78.0441 194.538 77.7504 194.046 77.7504C193.554 77.7504 193.332 78.0441 193.332 78.53V81.3709Z" fill="#BDBDBD"/>
<path d="M197.49 77.2591C198.432 77.2591 198.864 77.7664 198.864 78.5994V81.3122C198.864 82.1345 198.432 82.6418 197.49 82.6418H196.074V77.2591H197.49ZM197.49 82.0651C197.97 82.0651 198.204 81.7981 198.204 81.3068V78.5407C198.204 78.0494 197.97 77.7771 197.478 77.7771H196.752V82.0491L197.49 82.0651Z" fill="#BDBDBD"/>
<path d="M201.642 79.6407V80.1747H200.166V82.0865H201.966V82.6205H199.476V77.2591H201.966V77.7931H200.166V79.6301L201.642 79.6407Z" fill="#BDBDBD"/>
<path d="M181.92 90.5664C182.856 90.5664 183.288 91.1004 183.288 91.9067V94.6195C183.288 95.4418 182.856 95.9491 181.92 95.9491H180.498V90.5664H181.92ZM181.92 95.4044C182.406 95.4044 182.64 95.1321 182.64 94.6408V91.8747C182.64 91.3834 182.406 91.1164 181.914 91.1164H181.2V95.3884L181.92 95.4044Z" fill="#263238"/>
<path d="M183.87 91.848C183.87 91.0256 184.326 90.4916 185.25 90.4916C186.174 90.4916 186.642 91.0256 186.642 91.848V94.6301C186.67 94.8037 186.654 94.9806 186.596 95.1481C186.537 95.3156 186.438 95.4695 186.305 95.5987C186.172 95.7279 186.008 95.8292 185.826 95.8954C185.643 95.9615 185.447 95.9908 185.25 95.9812C184.326 95.9812 183.87 95.4472 183.87 94.6301V91.848ZM184.53 94.6622C184.53 95.1535 184.764 95.4365 185.25 95.4365C185.736 95.4365 185.964 95.1535 185.964 94.6622V91.848C185.964 91.3621 185.742 91.0684 185.25 91.0684C184.758 91.0684 184.53 91.3621 184.53 91.848V94.6622Z" fill="#263238"/>
<path d="M187.872 95.9491H187.272V90.5664H188.124L189.522 94.4593V90.5664H190.122V95.9491H189.42L187.872 91.597V95.9491Z" fill="#263238"/>
<path d="M192.96 92.9534V93.4874H191.484V95.4044H193.284V95.9384H190.8V90.5664H193.29V91.1004H191.49V92.9374L192.96 92.9534Z" fill="#263238"/>
<path d="M246.186 15.486H128.07V19.7687H246.186V15.486Z" fill="#636C3F" stroke="#263238" stroke-width="0.985332" stroke-linecap="round" stroke-linejoin="round"/>
<path d="M49.032 152.334V151.544" stroke="#263238" stroke-width="0.985332" stroke-linecap="round" stroke-linejoin="round"/>
<path d="M49.032 149.979V82.2734C49.032 80.9055 49.3348 79.551 49.9232 78.2873C50.5115 77.0236 51.3739 75.8754 52.461 74.9084C53.548 73.9414 54.8385 73.1745 56.2587 72.6515C57.6789 72.1285 59.201 71.8597 60.738 71.8604H116.4" stroke="#263238" stroke-width="0.985332" stroke-linecap="round" stroke-linejoin="round" stroke-dasharray="2.93 2.93"/>
<path d="M117.306 71.8604H118.188" stroke="#263238" stroke-width="0.985332" stroke-linecap="round" stroke-linejoin="round"/>
<path d="M124.038 72.2929L114.474 67.3748V77.2057L124.038 72.2929Z" fill="#263238"/>
<path d="M215.34 218.278H216.228" stroke="#263238" stroke-width="0.985332" stroke-linecap="round" stroke-linejoin="round"/>
<path d="M217.986 218.278H221.268C224.382 218.278 227.369 217.177 229.571 215.217C231.773 213.257 233.01 210.599 233.01 207.827V109.037" stroke="#263238" stroke-width="0.985332" stroke-linecap="round" stroke-linejoin="round" stroke-dasharray="2.93 2.93"/>
<path d="M233.01 108.258V107.473" stroke="#263238" stroke-width="0.985332" stroke-linecap="round" stroke-linejoin="round"/>
<path d="M211.992 217.819L221.556 222.731V212.9L211.992 217.819Z" fill="#263238"/>
<path d="M161.874 153.717C162.384 152.853 163.15 152.13 164.09 151.626C165.029 151.123 166.105 150.858 167.202 150.86H218.532C218.532 150.86 222.24 150.86 221.13 157.135C220.02 163.409 204.804 201.719 201.09 213.274C197.376 224.83 196.638 249.271 196.638 249.271H135.042C135.042 249.271 139.98 190.921 161.874 153.717Z" fill="white" stroke="#263238" stroke-width="0.985332" stroke-linecap="round" stroke-linejoin="round"/>
<path d="M209.628 161.759C204.438 172.535 193.428 215.159 191.676 249.271H196.638C196.638 249.271 197.4 224.814 201.09 213.274C204.78 201.735 220.014 163.409 221.13 157.135C222.246 150.86 218.532 150.86 218.532 150.86C218.532 150.86 213.786 153.119 209.628 161.759Z" fill="#263238" stroke="#263238" stroke-width="0.985332" stroke-linecap="round" stroke-linejoin="round"/>
<path d="M112.02 151.725C112.02 151.725 102.6 150.705 96.3781 144.885C90.1561 139.064 109.902 118.308 120.444 113.416C130.986 108.525 135.33 109.865 146.634 117.282C157.938 124.7 168.972 136.603 168.834 144.586C168.696 152.569 163.812 156.387 170.634 160.323C177.456 164.258 196.764 175.435 199.584 183.114C202.404 190.793 197.514 200.346 186.192 205.542C174.87 210.738 156.294 210.497 138.402 205.35C120.51 200.202 116.616 183.915 118.92 177.288C121.224 170.661 127.32 166.106 125.484 161.065C123.648 156.024 112.02 151.725 112.02 151.725Z" fill="#263238" stroke="#263238" stroke-width="0.985332" stroke-linecap="round" stroke-linejoin="round"/>
<path d="M120.096 174.618C120.096 174.618 110.352 173.411 105.852 176.001C101.352 178.591 79.1161 212.415 79.1161 212.415L66.8341 197.703L56.1841 201.959C56.1841 201.959 61.1761 219.154 66.9841 227.708C72.7921 236.263 76.1041 237.128 78.0961 236.845C84.0241 236.007 101.196 218.326 101.196 218.326L107.436 236.802L103.2 250.232H182.1L172.53 236.028C172.53 236.028 185.016 184.764 181.836 179.333C178.656 173.902 160.128 174.618 154.302 174.618H137.622C135.094 175.064 132.525 175.3 129.948 175.323C126.653 175.237 123.364 175.002 120.096 174.618Z" fill="#636C3F"/>
<path d="M172.8 176.348L172.962 176.407L171.45 179.835L171.282 179.776L172.8 176.348ZM172.386 180.161L172.548 180.22L174.066 176.791L173.898 176.733L172.386 180.161ZM179.268 191.071L179.094 191.028L178.428 193.137H178.614L179.268 191.071ZM180.408 191.359L180.234 191.316L179.634 193.137H179.814L180.408 191.359ZM173.208 191.476L173.772 193.137H173.958L173.358 191.428L173.208 191.476ZM174.516 191.129L174.342 191.172L175.008 193.137H175.194L174.516 191.129ZM179.346 183.285L181.404 180.081L181.254 180.001L179.196 183.205L179.346 183.285ZM180.378 183.819L182.304 180.823C182.304 180.732 182.304 180.652 182.268 180.567L180.222 183.744L180.378 183.819ZM181.728 188.374L182.07 187.973L182.106 187.68L181.584 188.278L181.728 188.374ZM176.634 185.122L179.502 187.792L179.628 187.685L176.76 185.015L176.634 185.122ZM175.728 185.832L178.59 188.502L178.722 188.395L175.854 185.725L175.728 185.832ZM172.566 185.832L172.614 185.677L170.4 185.191V185.351L172.566 185.832ZM170.37 184.23L172.86 184.791L172.902 184.636L170.4 184.102L170.37 184.23ZM173.148 188.999L173.094 188.849L170.4 189.682V189.848L173.148 188.999ZM172.722 187.845L170.37 188.539V188.705L172.77 187.995L172.722 187.845ZM171.42 217.68L172.932 214.251L172.77 214.193L171.252 217.621L171.42 217.68ZM173.868 214.577L172.356 218.005L172.518 218.064L174.036 214.636L173.868 214.577ZM173.79 230.651L173.328 229.278L173.154 229.321L173.718 230.976L173.79 230.651ZM176.79 207.592L176.622 207.646L178.026 211.112H178.062L178.116 210.871L176.79 207.592ZM177.732 207.288L178.47 209.098C178.47 208.997 178.512 208.895 178.53 208.789L177.9 207.235L177.732 207.288ZM180.36 198.264L180.456 198.547L180.51 198.226L180.36 198.264ZM176.412 198.055L176.172 201.729H176.346L176.586 198.05L176.412 198.055ZM177.354 201.793H177.528L177.768 198.114H177.594L177.354 201.793ZM172.308 197.895L172.392 197.756L170.352 196.779V196.961L172.308 197.895ZM170.352 195.759L172.866 196.961L172.95 196.822L170.4 195.62L170.352 195.759ZM171.924 201.318L171.81 201.201L170.4 202.386V202.594L171.924 201.318ZM171.15 200.522L171.036 200.4L170.352 200.934V201.142L171.15 200.522ZM170.4 206.84V207.005L174.132 205.707L174.066 205.563L170.4 206.84ZM170.4 205.707V205.878L173.7 204.73L173.634 204.581L170.4 205.707ZM172.602 212.393L172.644 212.238L170.4 211.79V211.95L172.602 212.393ZM172.86 211.368L172.902 211.213L170.4 210.711V210.871L172.86 211.368ZM172.566 223.746L172.614 223.596L170.37 223.089V223.255L172.566 223.746ZM170.4 222.144L172.89 222.71L172.932 222.555L170.4 221.989V222.144ZM173.178 226.913L173.124 226.763L170.4 227.564V227.735L173.178 226.913ZM172.806 225.914L172.752 225.765L170.4 226.459V226.624L172.806 225.914ZM178.14 194.611L178.614 193.132H178.428L177.972 194.568L178.14 194.611ZM179.838 193.132H179.658L179.112 194.851L179.28 194.899L179.838 193.132ZM174.378 194.995L174.552 194.953L173.952 193.132H173.766L174.378 194.995ZM175.68 194.648L175.17 193.132H174.984L175.512 194.696L175.68 194.648ZM176.67 245.565L178.074 249.026L178.242 248.972L176.838 245.512L176.67 245.565ZM179.352 248.614L177.948 245.154L177.78 245.207L179.19 248.668L179.352 248.614ZM181.338 249.469L181.164 249.426L180.912 250.227H181.098L181.338 249.469ZM170.4 234.88L172.356 235.814L172.44 235.676L170.4 234.698V234.88ZM170.4 233.684L172.8 234.853L172.836 234.693L170.4 233.508V233.684ZM171.942 239.232L171.828 239.109L170.4 240.247V240.45L171.942 239.232ZM171.168 238.431L171.054 238.314L170.37 238.848V239.056L171.168 238.431ZM174.036 243.429L170.4 244.722V244.892L174.132 243.589L174.036 243.429ZM170.37 243.744L173.67 242.596L173.604 242.452L170.37 243.573V243.744ZM170.37 249.656V249.821L172.356 250.216H172.584L172.614 250.11L170.37 249.656ZM172.83 249.234L172.872 249.079L170.37 248.577V248.743L172.83 249.234ZM128.688 179.76L128.85 179.819L130.368 176.391L130.2 176.332L128.688 179.76ZM129.786 180.145L129.954 180.204L131.466 176.775L131.304 176.717L129.786 180.145ZM168.558 184.924L170.358 185.335V185.175L168.588 184.775L168.558 184.924ZM168.894 183.755L168.846 183.904L170.37 184.251V184.086L168.894 183.755ZM170.4 189.848V189.682L169.2 190.04L169.254 190.189L170.4 189.848ZM168.792 189.036L168.846 189.186L170.37 188.737V188.571L168.792 189.036ZM165.6 193.137H165.804L166.584 191.93L166.434 191.85L165.6 193.137ZM166.968 193.137H167.172L167.61 192.454L167.46 192.373L166.968 193.137ZM158.046 191.663L157.908 191.765L159.174 193.137H159.402L158.046 191.663ZM158.826 191.097L160.704 193.137H160.932L158.964 191.001L158.826 191.097ZM154.35 192.897L154.188 192.95L154.26 193.137H154.452L154.35 192.897ZM155.298 192.592L155.52 193.126H155.706L155.466 192.528L155.298 192.592ZM148.806 193.126L149.316 191.338L149.142 191.3L148.62 193.126H148.806ZM150.288 191.556L149.838 193.126H150L150.438 191.599L150.288 191.556ZM136.686 191.06L136.512 191.017L135.84 193.126H136.026L136.686 191.06ZM137.82 191.348L137.652 191.305L137.052 193.126H137.238L137.82 191.348ZM130.62 191.466L131.184 193.126H131.37L130.77 191.418L130.62 191.466ZM131.922 191.119L131.754 191.161L132.42 193.126H132.6L131.922 191.119ZM136.758 183.274L138.816 180.07L138.66 179.99L136.602 183.194L136.758 183.274ZM137.634 183.723L137.784 183.797L139.842 180.593L139.686 180.513L137.634 183.723ZM161.112 186.072L164.922 187.509L164.988 187.365L161.178 185.928L161.112 186.072ZM160.65 187.039L164.46 188.475L164.526 188.331L160.686 186.9L160.65 187.039ZM163.86 181.507L164.028 181.549L165.156 178.009L164.982 177.961L163.86 181.507ZM164.994 181.795L165.168 181.838L166.29 178.292L166.122 178.249L164.994 181.795ZM158.802 175.205L160.002 178.73L160.17 178.687L159 175.152L158.802 175.205ZM159.93 174.901L161.13 178.425L161.298 178.383L160.098 174.858L159.93 174.901ZM146.856 189.997L145.656 186.473L145.488 186.516L146.688 190.045L146.856 189.997ZM147.99 189.693L146.79 186.168L146.616 186.211L147.816 189.741L147.99 189.693ZM152.67 187.653L156.768 187.119V186.964L152.67 187.498V187.653ZM152.838 188.694L156.936 188.16V188.005L152.838 188.539V188.694ZM155.838 184.203L156.012 184.241L156.936 180.652L156.762 180.615L155.838 184.203ZM157.914 180.85L156.99 184.438L157.164 184.476L158.088 180.887L157.914 180.85ZM143.4 182.158L143.55 182.244L145.764 179.13L145.614 179.05L143.4 182.158ZM146.766 179.696L146.616 179.611L144.402 182.724L144.552 182.81L146.766 179.696ZM142.92 176.113L146.712 174.639V174.602H146.388L142.866 175.969L142.92 176.113ZM143.322 176.93L143.394 177.074L147.186 175.606L147.114 175.462L143.322 176.93ZM139.722 174.602H139.536L138.6 177.496L138.774 177.539L139.722 174.602ZM137.652 177.272L138.492 174.602H138.306L137.478 177.208L137.652 177.272ZM153.888 175.734L153.48 174.618H153.294L153.684 175.771L153.888 175.734ZM152.586 176.081L152.76 176.038L152.28 174.623H152.094L152.586 176.081ZM139.002 188.288L139.14 188.385L141.66 185.464L141.516 185.367L139.002 188.288ZM139.938 188.929L140.082 189.025L142.596 186.099L142.458 186.003L139.938 188.929ZM134.046 185.132L136.914 187.802L137.046 187.696L134.178 185.026L134.046 185.132ZM133.158 185.832L136.026 188.502L136.152 188.395L133.29 185.725L133.158 185.832ZM148.866 181.111L148.794 181.256L152.604 182.697L152.676 182.548L148.866 181.111ZM149.256 180.289L153.066 181.726L153.138 181.581L149.328 180.145L149.256 180.289ZM130.002 185.832L130.044 185.677L127.8 185.191V185.351L130.002 185.832ZM127.806 184.23L130.29 184.791L130.338 184.636L127.8 184.102L127.806 184.23ZM130.584 188.999L130.524 188.849L127.8 189.682V189.848L130.584 188.999ZM130.152 187.845L127.806 188.539V188.705L130.206 187.995L130.152 187.845ZM130.2 214.193L128.688 217.621L128.85 217.68L130.368 214.251L130.2 214.193ZM131.304 214.577L129.786 218.005L129.954 218.064L131.466 214.636L131.304 214.577ZM168.684 196.149L170.37 196.961V196.779L168.768 196.01L168.684 196.149ZM169.326 195.081L169.242 195.214L170.37 195.748V195.567L169.326 195.081ZM170.4 202.386L168.726 203.678L168.84 203.796L170.4 202.594V202.386ZM168.066 203L170.4 201.206V200.998L167.952 202.877L168.066 203ZM170.214 206.93L170.274 207.08L170.4 207.032V206.866L170.214 206.93ZM169.782 205.953L169.842 206.097L170.4 205.905V205.734L169.782 205.953ZM170.382 211.827L168.582 211.464L168.54 211.619L170.376 211.987L170.382 211.827ZM170.382 210.759L168.846 210.449L168.81 210.604L170.382 210.919V210.759ZM170.382 223.121L168.6 222.678L168.558 222.833L170.358 223.244L170.382 223.121ZM168.906 221.701L168.858 221.856L170.4 222.144V221.984L168.906 221.701ZM170.4 227.735V227.564L169.2 227.922L169.254 228.071L170.4 227.735ZM170.4 226.624V226.459L168.822 226.923L168.876 227.073L170.4 226.624ZM146.04 195.006L142.23 193.564L142.164 193.708L145.974 195.15L146.04 195.006ZM141.702 194.68L145.512 196.117L145.578 195.973L141.768 194.536L141.702 194.68ZM166.572 229.812L166.422 229.737L165.6 231.024H165.804L166.572 229.812ZM167.598 230.346L167.448 230.266L166.956 231.035H167.16L167.598 230.346ZM157.896 229.657L159.162 231.035H159.39L158.034 229.556L157.896 229.657ZM158.814 228.99L160.692 231.035H160.92L158.952 228.899L158.814 228.99ZM154.338 230.795L154.176 230.848L154.248 231.035H154.44L154.338 230.795ZM155.286 230.49L155.508 231.024H155.694L155.454 230.426L155.286 230.49ZM149.286 229.246L149.112 229.203L148.59 231.035H148.8L149.286 229.246ZM150.258 229.465L149.808 231.035H150L150.438 229.503L150.258 229.465ZM136.656 228.963L136.482 228.92L135.81 231.056H135.996L136.656 228.963ZM137.79 229.252L137.622 229.209L137.022 231.035H137.208L137.79 229.252ZM130.59 229.369L131.154 231.035H131.34L130.74 229.326L130.59 229.369ZM131.724 229.07L132.39 231.035H132.57L131.892 229.022L131.724 229.07ZM138.63 217.909L136.572 221.113L136.728 221.193L138.786 217.989L138.63 217.909ZM139.83 218.507L139.674 218.427L137.622 221.631L137.772 221.711L139.83 218.507ZM156.564 200.96L153.924 198.114L153.792 198.215L156.408 201.067L156.564 200.96ZM155.652 201.628L153 198.765L152.862 198.867L155.484 201.718L155.652 201.628ZM149.166 200.068L150.57 203.529L150.738 203.475L149.334 200.015L149.166 200.068ZM150.282 199.711L151.686 203.171L151.848 203.118L150.444 199.657L150.282 199.711ZM164.976 225.268L161.166 223.831L161.1 223.976L164.91 225.412L164.976 225.268ZM164.514 226.24L160.704 224.798L160.638 224.947L164.448 226.384L164.514 226.24ZM164.97 215.869L163.848 219.415L164.016 219.458L165.144 215.912L164.97 215.869ZM166.278 216.201L166.11 216.158L164.982 219.698L165.156 219.741L166.278 216.201ZM160.176 216.58L158.976 213.055L158.808 213.098L160.008 216.628L160.176 216.58ZM161.31 216.275L160.11 212.751L159.936 212.794L161.136 216.323L161.31 216.275ZM149.31 207.053L147.252 210.257L147.402 210.332L149.46 207.128L149.31 207.053ZM148.434 206.61L148.278 206.53L146.226 209.734L146.376 209.809L148.434 206.61ZM141.444 209.52L138.822 206.658L138.684 206.759L141.306 209.611L141.444 209.52ZM142.356 208.853L139.74 206.001L139.602 206.103L142.218 208.954L142.356 208.853ZM134.076 207.694L135.48 211.16L135.648 211.106L134.238 207.641L134.076 207.694ZM135.186 207.336L136.59 210.802L136.758 210.748L135.354 207.283L135.186 207.336ZM163.8 210.14L163.974 210.177L164.994 206.61L164.82 206.567L163.8 210.14ZM166.14 206.866L165.966 206.829L164.946 210.396L165.12 210.433L166.14 206.866ZM159.372 209.862L155.562 208.426L155.496 208.57L159.306 210.012L159.372 209.862ZM159.834 208.895L156 207.459L155.934 207.603L159.744 209.04L159.834 208.895ZM146.856 227.884L145.656 224.355L145.488 224.403L146.688 227.927L146.856 227.884ZM147.99 227.58L146.79 224.05L146.616 224.098L147.816 227.623L147.99 227.58ZM156.768 225.022V224.867L152.67 225.401V225.556L156.768 225.022ZM156.936 226.064V225.909L152.838 226.443V226.598L156.936 226.064ZM156 222.144L156.924 218.556L156.75 218.518L155.826 222.112L156 222.144ZM157.152 222.379L158.076 218.79L157.902 218.753L156.978 222.347L157.152 222.379ZM145.752 217.039L145.602 216.954L143.4 220.045L143.55 220.131L145.752 217.039ZM146.754 217.6L146.604 217.514L144.39 220.627L144.54 220.713L146.754 217.6ZM146.7 212.543L146.634 212.398L142.836 213.872L142.908 214.017L146.7 212.543ZM147.174 213.509L147.102 213.365L143.31 214.839L143.382 214.983L147.174 213.509ZM139.884 211.907L139.716 211.859L138.6 215.378L138.774 215.421L139.884 211.907ZM137.622 215.165L138.744 211.619L138.576 211.576L137.448 215.122L137.622 215.165ZM153.852 213.6L152.652 210.076L152.478 210.118L153.678 213.648L153.852 213.6ZM151.362 210.396L152.562 213.92L152.736 213.878L151.536 210.353L151.362 210.396ZM145.608 201.318L142.302 203.539L142.41 203.662L145.716 201.446L145.608 201.318ZM143.124 204.522L146.424 202.301L146.322 202.178L143.016 204.394L143.124 204.522ZM140.268 201.473L139.122 197.932L138.948 197.98L140.1 201.516L140.268 201.473ZM137.814 198.269L138.96 201.852L139.134 201.809L138 198.258L137.814 198.269ZM133.866 198.061L133.626 201.735H133.8L134.04 198.055L133.866 198.061ZM134.802 201.799H134.982L135.222 198.119H135.042L134.802 201.799ZM141.6 223.324L141.456 223.228L138.942 226.154L139.08 226.25L141.6 223.324ZM142.536 223.965L142.398 223.869L139.878 226.795L140.022 226.891L142.536 223.965ZM133.986 222.993L136.854 225.663L136.986 225.551L134.118 222.881L133.986 222.993ZM133.158 223.746L136.026 226.416L136.152 226.309L133.29 223.639L133.158 223.746ZM163.29 203.235L163.152 203.139L160.548 206.001L160.686 206.103L163.29 203.235ZM162.234 202.477L159.63 205.339L159.768 205.44L162.366 202.573L162.234 202.477ZM162.96 197.046H162.786L162.318 200.704H162.498L162.96 197.046ZM161.61 196.907L161.148 200.57H161.322L161.784 196.912L161.61 196.907ZM152.676 220.457L148.866 219.02L148.794 219.164L152.604 220.601L152.676 220.457ZM149.256 218.192L153.066 219.629L153.138 219.485L149.328 218.048L149.256 218.192ZM129.762 197.948L129.846 197.81L127.806 196.832V197.014L129.762 197.948ZM127.806 195.812L130.32 197.014L130.404 196.875L127.8 195.62L127.806 195.812ZM129.378 201.371L129.258 201.254L127.8 202.386V202.594L129.378 201.371ZM128.604 200.576L128.484 200.453L127.806 200.987V201.195L128.604 200.576ZM131.466 205.574L127.806 206.85V207.016L131.532 205.718L131.466 205.574ZM131.1 204.741L131.04 204.591L127.8 205.707V205.878L131.1 204.741ZM130.008 212.404L130.044 212.249L127.806 211.8V211.961L130.008 212.404ZM127.8 210.871L130.26 211.368L130.302 211.213L127.8 210.711V210.871ZM130.002 223.746L130.044 223.596L127.806 223.089V223.255L130.002 223.746ZM127.8 222.144L130.284 222.71L130.332 222.555L127.8 221.989V222.144ZM130.578 226.913L130.518 226.763L127.8 227.564V227.735L130.578 226.913ZM130.206 225.914L130.146 225.765L127.8 226.459V226.624L130.206 225.914ZM164.358 195.043L164.508 195.118L165.786 193.132H165.6L164.358 195.043ZM165.384 195.577L165.534 195.652L167.154 193.142H166.95L165.384 195.577ZM160.65 194.509L159.384 193.132H159.156L160.512 194.606L160.65 194.509ZM161.43 193.943L161.568 193.842L160.914 193.132H160.686L161.43 193.943ZM155.742 196.357L154.434 193.153H154.242L155.574 196.432L155.742 196.357ZM156.684 196.053L156.852 195.999L155.688 193.132H155.502L156.684 196.053ZM148.104 194.873L148.278 194.91L148.788 193.132H148.602L148.104 194.873ZM149.25 195.134L149.424 195.172L150.024 193.132H149.838L149.25 195.134ZM135.54 194.6L136.008 193.121H135.822L135.366 194.558L135.54 194.6ZM137.238 193.121H137.052L136.506 194.841L136.68 194.889L137.238 193.121ZM131.778 194.985L131.946 194.942L131.346 193.121H131.16L131.778 194.985ZM133.08 194.638L132.564 193.121H132.384L132.906 194.686L133.08 194.638ZM168.762 233.913L168.678 234.052L170.364 234.864V234.682L168.762 233.913ZM169.32 232.99L169.236 233.128L170.364 233.662V233.486L169.32 232.99ZM170.4 240.45V240.247L168.726 241.534L168.84 241.651L170.4 240.45ZM170.4 239.061V238.853L167.952 240.738L168.066 240.855L170.4 239.061ZM170.214 244.786L170.274 244.935L170.4 244.892V244.722L170.214 244.786ZM169.782 243.808L169.842 243.958L170.4 243.76V243.589L169.782 243.808ZM168.582 249.314L168.54 249.469L170.376 249.837V249.672L168.582 249.314ZM170.382 248.593L168.846 248.283L168.81 248.438L170.382 248.759V248.593ZM146.04 232.888L142.23 231.452L142.164 231.596L145.974 233.032L146.04 232.888ZM141.702 232.562L145.512 234.004L145.578 233.855L141.768 232.418L141.702 232.562ZM153.792 236.081L156.408 238.933L156.546 238.831L153.924 235.985L153.792 236.081ZM155.634 239.499L153 236.653L152.862 236.749L155.484 239.6L155.634 239.499ZM150.72 241.368L149.316 237.902L149.148 237.956L150.552 241.421L150.72 241.368ZM151.83 241.01L150.426 237.545L150.264 237.598L151.668 241.064L151.83 241.01ZM149.43 245.021L149.28 244.94L147.222 248.144L147.372 248.225L149.43 245.021ZM148.404 244.487L148.248 244.412L146.196 247.616L146.346 247.696L148.404 244.487ZM141.414 247.397L138.822 244.572L138.684 244.668L141.306 247.52L141.414 247.397ZM142.326 246.729L139.71 243.883L139.572 243.979L142.188 246.831L142.326 246.729ZM135.618 248.983L134.208 245.523L134.046 245.576L135.45 249.036L135.618 248.983ZM136.728 248.625L135.324 245.165L135.156 245.218L136.56 248.678L136.728 248.625ZM164.928 244.497L164.754 244.46L163.734 248.027L163.908 248.064L164.928 244.497ZM166.074 244.754L165.9 244.716L164.88 248.289L165.054 248.326L166.074 244.754ZM159.372 247.776L155.562 246.34L155.496 246.484L159.306 247.92L159.372 247.776ZM159.834 246.804L156 245.341L155.934 245.485L159.744 246.927L159.834 246.804ZM139.71 249.746L139.542 250.28H139.728L139.878 249.811L139.71 249.746ZM138.738 249.501L138.57 249.458L138.312 250.259H138.498L138.738 249.501ZM152.49 248.027L153.246 250.259H153.432L152.664 247.979L152.49 248.027ZM151.53 248.283L151.362 248.326L152.01 250.259H152.196L151.53 248.283ZM145.716 239.403L145.608 239.28L142.302 241.496L142.41 241.624L145.716 239.403ZM146.424 240.247L146.322 240.118L143.016 242.335L143.124 242.463L146.424 240.247ZM140.1 239.462L140.268 239.414L139.122 235.878L138.948 235.921L140.1 239.462ZM139.134 239.707L138 236.145L137.832 236.188L138.978 239.723L139.134 239.707ZM133.8 239.707L134.04 236.033H133.866L133.626 239.713L133.8 239.707ZM135 239.771L135.24 236.092H135.06L134.82 239.766L135 239.771ZM163.308 241.149L163.17 241.048L160.566 243.91L160.704 244.011L163.308 241.149ZM162.252 240.385L159.648 243.248L159.786 243.349L162.384 240.487L162.252 240.385ZM162.978 234.96H162.804L162.336 238.618H162.516L162.978 234.96ZM161.628 234.826L161.166 238.484H161.34L161.802 234.821L161.628 234.826ZM129.78 235.862L129.864 235.724L127.824 234.746V234.928L129.78 235.862ZM130.422 234.794L127.8 233.508V233.684L130.314 234.891L130.422 234.794ZM129.378 239.232L129.258 239.109L127.8 240.241V240.45L129.378 239.232ZM128.604 238.431L128.484 238.314L127.806 238.848V239.056L128.604 238.431ZM131.466 243.429L127.806 244.705V244.876L131.532 243.573L131.466 243.429ZM127.806 243.744L131.1 242.596L131.04 242.452L127.806 243.573V243.744ZM127.806 249.656V249.821L129.792 250.216H130.014L130.044 250.11L127.806 249.656ZM130.266 249.234L130.308 249.079L127.806 248.577V248.743L130.266 249.234ZM164.514 232.995L165.792 231.008H165.6L164.4 232.915L164.514 232.995ZM166.956 231.008L165.39 233.438L165.54 233.518L167.16 231.008H166.956ZM160.518 232.482L160.656 232.381L159.39 231.008H159.162L160.518 232.482ZM161.436 231.815L161.574 231.713L160.92 231.008H160.692L161.436 231.815ZM155.748 234.228L154.44 231.024H154.248L155.58 234.298L155.748 234.228ZM156.69 233.929L156.858 233.871L155.694 231.008H155.508L156.69 233.929ZM148.29 232.787L148.8 231.008H148.614L148.116 232.749L148.29 232.787ZM149.262 233.006L149.436 233.043L150.036 231.008H149.85L149.262 233.006ZM135.552 232.472L136.02 230.998H135.834L135.378 232.429L135.552 232.472ZM137.064 230.998L136.518 232.717L136.692 232.76L137.25 230.998H137.064ZM131.79 232.861L131.958 232.813L131.358 230.998H131.172L131.79 232.861ZM132.918 232.557L133.092 232.514L132.576 230.998H132.396L132.918 232.557ZM126 184.94L127.8 185.351V185.191L126.03 184.791L126 184.94ZM126.336 183.771L126.294 183.92L127.818 184.267V184.102L126.336 183.771ZM127.8 189.848V189.682L126.6 190.04L126.66 190.189L127.8 189.848ZM126.228 189.036L126.282 189.186L127.806 188.737V188.571L126.228 189.036ZM123 193.137H123.204L123.984 191.93L123.828 191.85L123 193.137ZM124.362 193.137H124.566L125.01 192.454L124.854 192.373L124.362 193.137ZM115.446 191.663L115.308 191.765L116.574 193.137H116.802L115.446 191.663ZM116.226 191.097L118.098 193.137H118.332L116.364 191.001L116.226 191.097ZM111.75 192.897L111.582 192.95L111.66 193.137H111.846L111.75 192.897ZM112.698 192.592L112.914 193.126H113.106L112.866 192.528L112.698 192.592ZM106.2 193.126L106.71 191.338L106.542 191.3L106.02 193.126H106.2ZM107.688 191.556L107.238 193.126H107.424L107.856 191.599L107.688 191.556ZM93.4261 193.126L94.0801 191.06L93.9121 191.017L93.2401 193.126H93.4261ZM95.2261 191.348L95.0521 191.305L94.4521 193.126H94.6381L95.2261 191.348ZM118.494 186.072L122.304 187.509L122.376 187.365L118.566 185.928L118.494 186.072ZM118.032 187.039L121.86 188.502L121.932 188.358L118.122 186.9L118.032 187.039ZM121.242 181.507L121.416 181.549L122.538 178.009L122.37 177.961L121.242 181.507ZM122.382 181.795L122.55 181.838L123.678 178.292L123.51 178.249L122.382 181.795ZM116.232 175.205L117.432 178.73L117.6 178.687L116.4 175.152L116.232 175.205ZM117.366 174.901L118.566 178.425L118.734 178.383L117.534 174.858L117.366 174.901ZM102.93 186.516L104.13 190.045L104.298 189.997L103.098 186.473L102.93 186.516ZM105.426 189.72L104.226 186.195L104.058 186.238L105.258 189.768L105.426 189.72ZM110.106 187.68L114.204 187.146V186.991L110.106 187.525V187.68ZM110.244 188.566V188.721L114.342 188.187V188.032L110.244 188.566ZM114.36 180.679L114.186 180.642L113.268 184.23L113.436 184.267L114.36 180.679ZM115.344 180.876L114.42 184.465L114.588 184.502L115.512 180.914L115.344 180.876ZM100.8 182.158L100.95 182.244L103.164 179.13L103.014 179.05L100.8 182.158ZM101.802 182.724L101.952 182.81L104.166 179.696L104.016 179.611L101.802 182.724ZM111.27 175.713L110.886 174.575H110.706L111.102 175.734L111.27 175.713ZM109.968 176.06L110.136 176.017L109.71 174.746L109.536 174.778L109.968 176.06ZM96.3841 188.267L96.5221 188.363L99.0361 185.442L98.8981 185.346L96.3841 188.267ZM99.9841 186.078L99.8401 185.982L97.3261 188.908L97.4701 189.004L99.9841 186.078ZM106.284 181.117L106.218 181.261L110.028 182.703L110.094 182.553L106.284 181.117ZM106.68 180.294L110.49 181.731L110.556 181.587L106.746 180.15L106.68 180.294ZM87.6241 214.23L86.1121 217.658L86.2741 217.717L87.7861 214.289L87.6241 214.23ZM88.7221 214.615L87.2101 218.043L87.3721 218.102L88.8901 214.673L88.7221 214.615ZM126.102 196.186L127.794 196.998V196.816L126.186 196.047L126.102 196.186ZM126.75 195.118L126.666 195.252L127.794 195.786V195.604L126.75 195.118ZM127.8 202.386L126.12 203.678L126.24 203.796L127.8 202.594V202.386ZM125.466 203L127.8 201.206V200.998L125.352 202.877L125.466 203ZM127.608 206.93L127.674 207.08L127.8 207.032V206.866L127.608 206.93ZM127.8 205.734L127.2 205.953L127.266 206.097L127.824 205.905L127.8 205.734ZM127.8 211.816L126 211.453L125.964 211.608L127.8 211.977V211.816ZM126.264 210.428L126.222 210.583L127.8 210.898V210.738L126.264 210.428ZM127.8 223.073L126.03 222.673L125.982 222.828L127.782 223.239L127.8 223.073ZM126.318 221.653L126.276 221.808L127.8 222.144V221.984L126.318 221.653ZM127.8 227.735V227.564L126.6 227.922L126.66 228.071L127.8 227.735ZM127.8 226.624V226.459L126.222 226.923L126.276 227.073L127.8 226.624ZM99.6001 193.708L103.41 195.15L103.482 195.006L99.6721 193.564L99.6001 193.708ZM99.1381 194.68L102.948 196.117L103.02 195.973L99.2101 194.536L99.1381 194.68ZM124.014 229.812L123.858 229.737L123 231.024H123.204L124.014 229.812ZM125.04 230.346L124.884 230.266L124.392 231.035H124.596L125.04 230.346ZM115.338 229.657L116.604 231.035H116.832L115.476 229.556L115.338 229.657ZM116.256 228.99L118.128 231.035H118.362L116.394 228.899L116.256 228.99ZM111.78 230.795L111.612 230.848L111.69 231.035H111.876L111.78 230.795ZM112.728 230.49L112.944 231.024H113.136L112.896 230.426L112.728 230.49ZM106.05 231.024H106.23L106.74 229.236L106.572 229.193L106.05 231.024ZM107.718 229.454L107.268 231.024H107.454L107.886 229.492L107.718 229.454ZM88.2001 229.316L88.0321 229.358L88.3621 230.33L88.5061 230.213L88.2001 229.316ZM89.3341 229.011L89.1601 229.059L89.3221 229.519L89.4601 229.396L89.3341 229.011ZM96.2281 217.973L96.0721 217.899L94.0141 221.103L94.1701 221.183L96.2281 217.973ZM95.1961 221.711L97.2541 218.507L97.0981 218.427L95.0401 221.631L95.1961 221.711ZM114 200.95L111.36 198.114L111.222 198.215L113.844 201.067L114 200.95ZM113.082 201.617L110.46 198.765L110.328 198.867L112.944 201.718L113.082 201.617ZM106.602 200.058L108.006 203.518L108.174 203.465L106.77 200.004L106.602 200.058ZM107.712 199.7L109.116 203.16L109.284 203.107L107.88 199.647L107.712 199.7ZM122.4 225.257L118.59 223.821L118.518 223.965L122.328 225.401L122.4 225.257ZM121.938 226.229L118.128 224.787L118.056 224.937L121.866 226.373L121.938 226.229ZM122.394 215.859L121.266 219.405L121.44 219.447L122.562 215.902L122.394 215.859ZM123.702 216.19L123.534 216.147L122.4 219.688L122.568 219.73L123.702 216.19ZM117.6 216.569L116.4 213.045L116.232 213.087L117.432 216.617L117.6 216.569ZM118.734 216.265L117.534 212.74L117.366 212.783L118.566 216.313L118.734 216.265ZM106.734 207.042L104.676 210.246L104.832 210.321L106.89 207.117L106.734 207.042ZM105.708 206.508L103.65 209.712L103.806 209.787L105.864 206.583L105.708 206.508ZM96.1081 206.749L98.7301 209.6L98.8621 209.499L96.2581 206.658L96.1081 206.749ZM97.0201 206.081L99.6421 208.933L99.7801 208.831L97.2001 205.99L97.0201 206.081ZM91.4941 207.683L92.8981 211.149L93.0661 211.096L91.6621 207.63L91.4941 207.683ZM92.6101 207.325L94.0141 210.791L94.1761 210.738L92.7721 207.272L92.6101 207.325ZM121.2 210.14L121.374 210.177L122.388 206.61L122.22 206.567L121.2 210.14ZM123.54 206.866L123.366 206.829L122.346 210.396L122.52 210.433L123.54 206.866ZM116.808 209.862L112.998 208.426L112.926 208.57L116.736 210.012L116.808 209.862ZM117.27 208.895L113.46 207.459L113.388 207.603L117.198 209.04L117.27 208.895ZM104.07 224.098L105.27 227.623L105.438 227.58L104.238 224.05L104.07 224.098ZM114.21 225.022V224.867L110.112 225.401V225.556L114.21 225.022ZM114.372 226.064V225.909L110.274 226.443V226.598L114.372 226.064ZM113.436 222.144L114.36 218.556L114.186 218.518L113.268 222.112L113.436 222.144ZM114.588 222.379L115.512 218.79L115.344 218.753L114.42 222.347L114.588 222.379ZM103.032 216.954L101.472 219.148L101.538 219.351L103.2 217.018L103.032 216.954ZM104.034 217.514L101.922 220.483L101.988 220.681L104.184 217.6L104.034 217.514ZM100.266 213.872L100.338 214.017L104.13 212.543L104.058 212.398L100.266 213.872ZM104.604 213.509L104.532 213.365L100.74 214.839L100.806 214.983L104.604 213.509ZM97.3141 211.907L97.1401 211.859L96.0001 215.378L96.1681 215.421L97.3141 211.907ZM95.0461 215.165L96.1741 211.619L96.0061 211.576L94.8781 215.122L95.0461 215.165ZM111.288 213.6L110.088 210.076L109.92 210.118L111.12 213.648L111.288 213.6ZM108.792 210.396L109.992 213.92L110.16 213.878L108.96 210.353L108.792 210.396ZM103.038 201.318L99.7381 203.539L99.8461 203.662L103.146 201.446L103.038 201.318ZM100.446 204.378L100.554 204.506L103.86 202.285L103.752 202.162L100.446 204.378ZM96.3841 197.97L97.5301 201.505L97.7041 201.462L96.5521 197.922L96.3841 197.97ZM95.2501 198.258L96.3961 201.799L96.5641 201.756L95.4001 198.258H95.2501ZM91.0501 201.724H91.2301L91.4701 198.045H91.2901L91.0501 201.724ZM92.6461 198.119H92.4721L92.2321 201.799H92.4061L92.6461 198.119ZM94.0981 225.188L91.5661 222.844L91.4401 222.95L93.9781 225.3L94.0981 225.188ZM90.7141 223.586L90.6001 223.746L93.1681 226.122L93.2881 226.01L90.7141 223.586ZM120.714 203.187L120.576 203.091L117.978 205.953L118.116 206.055L120.714 203.187ZM119.658 202.429L117.054 205.291L117.192 205.392L119.796 202.525L119.658 202.429ZM120.396 197.046H120.216L119.754 200.704H119.928L120.396 197.046ZM119.04 196.907L118.578 200.57H118.758L119.22 196.912L119.04 196.907ZM110.106 220.457L106.296 219.02L106.23 219.164L110.04 220.601L110.106 220.457ZM110.568 219.485L106.758 218.048L106.692 218.192L110.502 219.629L110.568 219.485ZM86.8081 201.377L86.6941 201.259L86.5561 201.366L86.2561 201.804L86.8081 201.377ZM88.9021 205.579L85.2421 206.856V207.021L88.9681 205.723L88.9021 205.579ZM88.5361 204.746L88.4701 204.597L85.2421 205.723V205.894L88.5361 204.746ZM87.4381 212.409L87.4801 212.254L85.2421 211.806V211.966L87.4381 212.409ZM87.7021 211.384L87.7381 211.229L85.2421 210.727V210.887L87.7021 211.384ZM87.4321 223.746L87.4801 223.596L85.2421 223.089V223.255L87.4321 223.746ZM85.2421 222.144L87.7261 222.71L87.7681 222.555L85.2421 221.984V222.144ZM88.0141 226.913L87.9601 226.763L85.2421 227.559V227.73L88.0141 226.913ZM87.6421 225.914L87.5881 225.765L85.2421 226.453V226.619L87.6421 225.914ZM121.8 195.049L121.956 195.124L123.234 193.137H123L121.8 195.049ZM122.826 195.583L122.982 195.658L124.596 193.148H124.392L122.826 195.583ZM118.098 194.515L116.832 193.137H116.604L117.96 194.611L118.098 194.515ZM118.872 193.949L119.01 193.847L118.362 193.137H118.128L118.872 193.949ZM113.184 196.362L111.876 193.158H111.69L113.016 196.437L113.184 196.362ZM114.132 196.058L114.3 196.005L113.136 193.137H112.944L114.132 196.058ZM105.552 194.878L105.726 194.915L106.23 193.137H106.05L105.552 194.878ZM106.698 195.14L106.866 195.177L107.466 193.137H107.28L106.698 195.14ZM92.8141 194.574L92.9881 194.616L93.4561 193.137H93.2701L92.8141 194.574ZM94.6861 193.137H94.5001L93.9541 194.857L94.1221 194.905L94.6861 193.137ZM126.12 234.068L127.812 234.88V234.698L126.204 233.929L126.12 234.068ZM126.768 233L126.684 233.139L127.812 233.673V233.497L126.768 233ZM127.8 240.45V240.241L126.12 241.534L126.24 241.651L127.8 240.45ZM127.8 239.061V238.853L125.352 240.738L125.466 240.855L127.8 239.061ZM127.608 244.786L127.674 244.935L127.8 244.892V244.722L127.608 244.786ZM127.176 243.808L127.242 243.958L127.8 243.76V243.589L127.176 243.808ZM125.976 249.314L125.94 249.469L127.776 249.837V249.672L125.976 249.314ZM127.776 248.593L126.24 248.283L126.198 248.438L127.776 248.759V248.593ZM111.222 236.081L113.844 238.933L113.982 238.831L111.36 235.985L111.222 236.081ZM113.064 239.499L110.442 236.653L110.31 236.749L112.926 239.6L113.064 239.499ZM108.156 241.368L106.956 238.388L106.872 238.65L107.994 241.421L108.156 241.368ZM109.266 241.01L107.862 237.545L107.694 237.598L109.098 241.064L109.266 241.01ZM106.866 245.021L106.71 244.94L104.652 248.144L104.808 248.225L106.866 245.021ZM105.666 244.422L104.4 246.441L104.202 247.066L105.864 244.481L105.666 244.422ZM122.352 244.508L122.184 244.471L121.164 248.038L121.338 248.075L122.352 244.508ZM123.504 244.764L123.33 244.727L122.31 248.299L122.484 248.337L123.504 244.764ZM116.808 247.776L112.998 246.34L112.926 246.484L116.736 247.92L116.808 247.776ZM117.27 246.804L113.46 245.368L113.388 245.512L117.198 246.954L117.27 246.804ZM109.926 248.027L110.682 250.259H110.868L110.094 247.979L109.926 248.027ZM108.966 248.283L108.792 248.326L109.446 250.259H109.632L108.966 248.283ZM120.72 241.128L120.582 241.026L117.984 243.888L118.122 243.99L120.72 241.128ZM119.664 240.364L117.06 243.226L117.198 243.328L119.802 240.466L119.664 240.364ZM120.396 234.939H120.216L119.754 238.597H119.928L120.396 234.939ZM119.04 234.805L118.578 238.463H118.758L119.22 234.8L119.04 234.805ZM121.95 233.038L123.228 231.051H123L121.8 232.957L121.95 233.038ZM124.386 231.051L122.82 233.481L122.976 233.561L124.59 231.051H124.386ZM117.954 232.525L118.092 232.423L116.826 231.051H116.598L117.954 232.525ZM118.866 231.857L119.004 231.756L118.356 231.051H118.122L118.866 231.857ZM113.178 234.271L111.87 231.067H111.684L113.01 234.341L113.178 234.271ZM114.126 233.972L114.294 233.913L113.13 231.051H112.938L114.126 233.972ZM105.786 231.938L105.888 232.231L106.224 231.051H106.044L105.786 231.938ZM106.692 233.048L106.86 233.086L107.46 231.051H107.274L106.692 233.048ZM85.0501 206.93L85.1161 207.08L85.2421 207.032V206.866L85.0501 206.93ZM85.2421 205.734L84.6421 205.953L84.7081 206.097L85.2661 205.905L85.2421 205.734ZM83.4001 211.608L85.2421 211.977V211.816L83.4421 211.453L83.4001 211.608ZM83.6641 210.583L85.2421 210.898V210.738L83.7001 210.396L83.6641 210.583ZM85.2421 223.1L83.4421 222.699L83.4001 222.854L85.2001 223.265L85.2421 223.1ZM83.7601 221.679L83.7181 221.834L85.2421 222.176V222.016L83.7601 221.679ZM85.2421 227.762V227.591L84.0421 227.949L84.0961 228.098L85.2421 227.762ZM85.2421 226.651V226.485L83.6581 226.95L83.7121 227.1L85.2421 226.651ZM81.4381 229.855L81.2881 229.78L80.4601 231.067H80.6641L81.4381 229.855ZM82.4641 230.389L82.3141 230.309L81.8221 231.078H82.0261L82.4641 230.389ZM72.7681 229.7L74.0281 231.078H74.2621L72.9061 229.599L72.7681 229.7ZM73.6801 229.033L75.5581 231.078H75.7861L73.8181 228.942L73.6801 229.033ZM70.3201 230.48L70.1521 230.533L70.3741 231.067H70.5661L70.3201 230.48ZM67.7401 198.92L68.3401 199.604L67.7401 198.894V198.92ZM64.0141 200.111L65.4241 203.571L65.5861 203.518L64.2001 200.004L64.0141 200.111ZM65.1301 199.753L66.5341 203.214L66.7021 203.16L65.2981 199.7L65.1301 199.753ZM79.8001 225.257L75.9901 223.821L75.9241 223.965L79.7341 225.401L79.8001 225.257ZM79.3381 226.229L75.5341 224.787L75.4621 224.937L79.2721 226.373L79.3381 226.229ZM79.8001 215.859L78.6721 219.405L78.8401 219.447L79.9681 215.902L79.8001 215.859ZM81.1081 216.19L80.9341 216.147L79.8121 219.688L79.9801 219.73L81.1081 216.19ZM75.0061 216.569L73.8061 213.045L73.6381 213.087L74.8381 216.617L75.0061 216.569ZM76.1341 216.265L74.9341 212.74L74.7661 212.783L75.9661 216.313L76.1341 216.265ZM64.3021 207.123L64.1521 207.042L62.0941 210.246L62.2501 210.321L64.3021 207.123ZM63.2761 206.589L63.1261 206.508L61.0681 209.712L61.2241 209.787L63.2761 206.589ZM74.2381 209.862L70.4281 208.426L70.3621 208.57L74.1721 210.012L74.2381 209.862ZM74.7001 208.895L70.8901 207.459L70.8241 207.603L74.6341 209.04L74.7001 208.895ZM67.5361 225.535L71.6341 225.001V224.846L67.5361 225.38V225.535ZM67.7041 226.576L71.8021 226.042V225.887L67.7041 226.421V226.576ZM70.7041 222.091L70.8781 222.123L71.8021 218.534L71.6281 218.497L70.7041 222.091ZM72.7801 218.732L71.8561 222.326L72.0301 222.358L72.9541 218.769L72.7801 218.732ZM61.5001 212.377L59.9221 212.991L59.9821 213.141L61.5721 212.521L61.5001 212.377ZM61.9681 213.344L60.3061 213.99L60.3661 214.139L62.0401 213.488L61.9681 213.344ZM67.3681 210.14L68.5681 213.669L68.7421 213.621L67.5421 210.097L67.3681 210.14ZM66.2341 210.444L67.4341 213.968L67.6081 213.926L66.4081 210.401L66.2341 210.444ZM57.1741 203.614L57.2821 203.737L60.5881 201.521L60.4801 201.393L57.1741 203.614ZM61.3021 202.359L61.1941 202.236L57.8881 204.453L57.9961 204.581L61.3021 202.359ZM67.5481 220.467L63.7381 219.031L63.6661 219.175L67.4761 220.611L67.5481 220.467ZM64.1281 218.203L67.9381 219.64L68.0101 219.495L64.2001 218.032L64.1281 218.203ZM83.6401 233.956L83.5561 234.095L83.7061 233.988L83.6401 233.956ZM84.1981 233.032L84.1141 233.171L84.5521 233.379L84.6961 233.267L84.1981 233.032ZM77.4001 236.888H77.5801L77.8261 234.912H77.6521L77.4001 236.888ZM76.2001 236.706L76.3741 236.754L76.6201 234.794H76.4461L76.2001 236.706ZM80.6341 231.024H80.4301L79.2301 232.931L79.3801 233.011L80.6341 231.024ZM81.9961 231.024H81.7921L80.2261 233.454L80.3821 233.534L81.9961 231.024ZM75.3601 232.498L75.4921 232.397L74.2321 231.024H73.9981L75.3601 232.498ZM76.2721 231.831L76.4101 231.729L75.7561 231.024H75.5281L76.2721 231.831ZM70.3441 231.024L71.2021 233.16L71.5321 233.502L70.5361 231.046L70.3441 231.024Z" fill="white"/>
<path d="M120.096 174.618C120.096 174.618 110.352 173.411 105.852 176.001C101.352 178.591 79.1161 212.415 79.1161 212.415L66.8341 197.703L56.1841 201.959C56.1841 201.959 61.1761 219.154 66.9841 227.708C72.7921 236.263 76.1041 237.128 78.0961 236.845C84.0241 236.007 101.196 218.326 101.196 218.326L107.436 236.802L103.2 250.232H182.1L172.53 236.028C172.53 236.028 185.016 184.764 181.836 179.333C178.656 173.902 160.128 174.618 154.302 174.618H137.622C135.094 175.064 132.525 175.3 129.948 175.323C126.653 175.237 123.364 175.002 120.096 174.618V174.618Z" stroke="#263238" stroke-width="0.985332"/>
<path d="M101.202 218.326C98.9179 214.264 98.0309 209.693 98.6521 205.184C99.8101 197.991 104.814 190.115 104.814 190.115C104.814 190.115 94.8301 202.931 94.8301 207.203C94.8301 211.475 97.8001 217.722 97.8001 217.722L95.2081 224.307L101.202 218.326Z" fill="#263238" stroke="#263238" stroke-width="0.985332" stroke-linecap="round" stroke-linejoin="round"/>
<path d="M128.358 167.532L128.622 175.072L121.476 175.307C121.476 175.307 120 202.973 126.36 207.924C132.72 212.874 151.92 174.618 151.92 174.618L145.32 173.438L143.202 158.123L128.358 167.532Z" fill="#CFCFCF" stroke="#263238" stroke-width="0.985332" stroke-linecap="round" stroke-linejoin="round"/>
<path d="M143.964 161.113L128.682 173.929V169.395L143.964 161.113Z" fill="#263238" stroke="#263238" stroke-width="0.985332" stroke-linecap="round" stroke-linejoin="round"/>
<path d="M126.36 207.924C126.36 207.924 127.128 203.47 130.974 197.649L126.36 207.924Z" fill="white"/>
<path d="M126.36 207.924C126.36 207.924 127.128 203.47 130.974 197.649" stroke="#263238" stroke-width="0.985332" stroke-linecap="round" stroke-linejoin="round"/>
<path d="M125.28 125.015L107.88 141.115C109.247 144.541 109.91 148.159 109.836 151.795C109.632 157.498 115.458 165.887 120.222 169.785C124.986 173.684 134.706 167.692 138.336 165.577C140.76 164.115 143.021 162.449 145.086 160.601C146.41 160.549 147.698 160.2 148.829 159.586C149.96 158.971 150.898 158.111 151.554 157.087C151.554 157.087 126.27 133.041 125.28 125.015Z" fill="#CFCFCF" stroke="#263238" stroke-width="0.985332" stroke-linecap="round" stroke-linejoin="round"/>
<path d="M120.564 141.547C121.166 142.638 121.555 143.812 121.716 145.018C121.77 146.508 118.836 153.488 119.256 153.952C119.676 154.417 120.99 155.955 122.016 155.757" stroke="#263238" stroke-width="0.985332" stroke-linecap="round" stroke-linejoin="round"/>
<path d="M127.8 149.178C130.252 148.361 132.947 148.332 135.42 149.098" stroke="#263238" stroke-width="0.492666" stroke-linecap="round" stroke-linejoin="round"/>
<path d="M114.258 149.734C115.569 149.406 116.923 149.237 118.284 149.232" stroke="#263238" stroke-width="0.492666" stroke-linecap="round" stroke-linejoin="round"/>
<path d="M118.368 137.601C117.696 137.557 117.021 137.651 116.396 137.877C115.772 138.103 115.215 138.455 114.768 138.904C113.262 140.447 112.53 141.793 112.152 140.704C111.774 139.614 113.454 137.612 114.048 137.206C114.642 136.8 117.426 135.209 118.368 137.601Z" fill="#263238"/>
<path d="M125.814 136.704C127.579 136.698 129.32 137.064 130.896 137.772C133.194 138.893 132.096 136.619 130.482 135.967C128.868 135.316 126.072 135.38 125.814 136.704Z" fill="#263238"/>
<path d="M152.454 163.484C152.562 165.086 151.632 166.421 150.39 166.485C149.148 166.549 148.05 165.31 147.942 163.719C147.834 162.128 148.584 158.021 149.826 157.957C151.068 157.893 152.352 161.887 152.454 163.484Z" fill="#636C3F" stroke="#263238" stroke-width="0.985332" stroke-linecap="round" stroke-linejoin="round"/>
<path d="M117.654 146.85C117.738 147.918 117.282 148.783 116.64 148.82C115.998 148.858 115.44 148.041 115.338 146.994C115.236 145.948 115.71 145.061 116.352 145.024C116.994 144.986 117.6 145.825 117.654 146.85Z" fill="#263238"/>
<path d="M130.602 146.439C130.686 147.507 130.23 148.367 129.594 148.409C128.958 148.452 128.394 147.63 128.286 146.578C128.178 145.526 128.664 144.65 129.3 144.613C129.936 144.575 130.524 145.392 130.602 146.439Z" fill="#263238"/>
<path d="M121.932 158.796C121.932 158.796 124.986 159.666 129.132 156.51" stroke="#263238" stroke-width="0.985332" stroke-linecap="round" stroke-linejoin="round"/>
<path d="M66.8341 197.713L61.2481 191.055C60.9901 189.282 60.4921 185.618 60.4081 183.146C60.2941 179.782 60.4801 177.726 58.3321 174.741C56.1841 171.756 50.1901 167.041 49.6261 165.946C49.0621 164.851 47.4301 167.938 48.4561 169.94C49.4821 171.943 50.4181 172.557 50.4181 172.557C50.4181 172.557 39.3841 167.676 39.0181 168.472C38.6521 169.267 44.1541 183.338 46.6741 187.05C47.7241 188.598 50.6341 190.67 52.0381 192.464C52.7248 193.35 53.3136 194.292 53.7961 195.278C55.1041 200.229 56.6281 205.675 57.3961 205.873C59.1421 206.327 66.5521 206.434 66.8341 197.713Z" fill="#CFCFCF" stroke="#263238" stroke-width="0.985332" stroke-miterlimit="10"/>
<path d="M51.1501 182.414C51.0493 182.439 50.944 182.445 50.8405 182.433C50.7369 182.42 50.6371 182.39 50.5468 182.343C50.4564 182.297 50.3774 182.235 50.3141 182.161C50.2508 182.087 50.2046 182.002 50.1781 181.912L41.4001 153.028C41.3532 152.854 41.383 152.67 41.4833 152.514C41.5837 152.358 41.7471 152.242 41.9401 152.19C42.143 152.142 42.3587 152.168 42.5406 152.261C42.7225 152.354 42.856 152.507 42.9121 152.687L51.7141 181.56C51.7638 181.74 51.7326 181.93 51.6272 182.089C51.5219 182.249 51.3507 182.365 51.1501 182.414Z" fill="#263238" stroke="#263238" stroke-width="0.985332" stroke-miterlimit="10"/>
<path d="M44.8201 164.039C44.8201 164.039 36.3481 168.023 36.8701 168.803C37.3921 169.582 38.9401 172.365 39.6481 172.3C40.3561 172.236 45.4981 168.498 45.8701 168.028C46.2421 167.559 44.8201 164.039 44.8201 164.039Z" fill="#CFCFCF" stroke="#263238" stroke-width="0.985332" stroke-miterlimit="10"/>
<path d="M46.332 168.931C46.332 168.931 39.294 173.55 39.522 174.223C39.75 174.896 43.2 182.858 43.8 183.504C44.4 184.15 49.908 181.902 49.908 181.902L46.332 168.931Z" fill="#CFCFCF" stroke="#263238" stroke-width="0.985332" stroke-miterlimit="10"/>
<path d="M47.4 173.224C47.4 173.224 40.662 177.934 41.106 178.084" stroke="#263238" stroke-width="0.985332" stroke-miterlimit="10"/>
<path d="M48.6721 178.329L43.0081 181.282" stroke="#263238" stroke-width="0.985332" stroke-miterlimit="10"/>
<path d="M50.4001 172.557L53.5081 175.259C53.5081 175.259 49.3801 183.103 53.3341 187.434" stroke="#263238" stroke-width="0.985332" stroke-miterlimit="10"/>
<path d="M173.034 176.289C173.034 176.289 180.576 175.414 183.834 180.962C187.092 186.51 207.45 235.547 207.78 240.236C208.11 244.924 194.328 246.073 189.738 244.033C185.148 241.993 172.338 217.76 171.042 214.545" fill="#636C3F"/>
<path d="M175.432 210.246L174.314 213.783L174.487 213.826L175.605 210.289L175.432 210.246Z" fill="white"/>
<path d="M178.038 200.271L176.892 196.731L176.718 196.779L177.87 200.314L178.038 200.271Z" fill="white"/>
<path d="M177.477 210.597L176.347 214.141L176.52 214.185L177.65 210.64L177.477 210.597Z" fill="white"/>
<path d="M179.214 208.276L176.592 205.424L176.454 205.526L179.076 208.372L179.214 208.276Z" fill="white"/>
<path d="M184.873 212.097L181.079 213.57L181.151 213.717L184.945 212.243L184.873 212.097Z" fill="white"/>
<path d="M184.518 216.345L184.368 216.259L182.154 219.373L182.304 219.458L184.518 216.345Z" fill="white"/>
<path d="M175.584 197.067L176.73 200.608L176.904 200.56L175.752 197.025L175.584 197.067Z" fill="white"/>
<path d="M181.152 218.806L181.302 218.892L183.516 215.784L183.366 215.699L181.152 218.806Z" fill="white"/>
<path d="M180.126 207.609L177.51 204.757L177.372 204.858L179.988 207.705L180.126 207.609Z" fill="white"/>
<path d="M184.094 200.962L180.785 203.176L180.893 203.304L184.202 201.09L184.094 200.962Z" fill="white"/>
<path d="M183.264 185.282L184.458 188.812L184.626 188.764L183.438 185.239L183.264 185.282Z" fill="white"/>
<path d="M183.486 200.261L183.378 200.133L180.072 202.349L180.18 202.477L183.486 200.261Z" fill="white"/>
<path d="M181.302 181.026L182.544 179.28C182.502 179.242 182.466 179.2 182.424 179.157L181.152 180.941L181.302 181.026Z" fill="white"/>
<path d="M177.672 187.674L177.816 187.77L180.33 184.844L180.192 184.748L177.672 187.674Z" fill="white"/>
<path d="M179.928 192.475L183.738 193.911L183.81 193.767L180 192.331L179.928 192.475Z" fill="white"/>
<path d="M184.398 184.978L185.592 188.507L185.76 188.459L184.572 184.935L184.398 184.978Z" fill="white"/>
<path d="M184.146 208.559L186.204 205.36L186.048 205.286L183.996 208.479L184.146 208.559Z" fill="white"/>
<path d="M179.543 193.313L179.475 193.455L183.286 194.894L183.354 194.752L179.543 193.313Z" fill="white"/>
<path d="M184.39 211.153L180.595 212.626L180.667 212.773L184.462 211.3L184.39 211.153Z" fill="white"/>
<path d="M193.8 244.107L193.734 244.252L195.648 244.978H196.116L193.8 244.107Z" fill="white"/>
<path d="M194.628 232.653L193.464 229.786L193.224 229.193L193.056 229.246L193.278 229.786L194.46 232.707L194.628 232.653Z" fill="white"/>
<path d="M190.644 235.515L193.266 238.367L193.398 238.265L190.782 235.414L190.644 235.515Z" fill="white"/>
<path d="M193.512 233.011L192.21 229.786L192.108 229.551L191.946 229.599L192.018 229.786L193.35 233.064L193.512 233.011Z" fill="white"/>
<path d="M194.676 224.675L190.578 225.188L190.602 225.343L194.7 224.83L194.676 224.675Z" fill="white"/>
<path d="M206.58 240.417L207.69 239.563L207.654 239.387L206.454 240.3L206.58 240.417Z" fill="white"/>
<path d="M176.736 187.034L176.874 187.13L179.394 184.203L179.25 184.107L176.736 187.034Z" fill="white"/>
<path d="M172.013 206.399L171.844 206.454L173.25 209.919L173.419 209.865L172.013 206.399Z" fill="white"/>
<path d="M205.8 239.622L207.384 238.404C207.365 238.348 207.349 238.291 207.336 238.233L205.686 239.504L205.8 239.622Z" fill="white"/>
<path d="M194.316 237.598L191.694 234.752L191.556 234.848L194.178 237.699L194.316 237.598Z" fill="white"/>
<path d="M172.824 196.931L172.583 200.609L172.763 200.618L173.003 196.94L172.824 196.931Z" fill="white"/>
<path d="M191.622 212.361L190.434 208.837L190.26 208.879L191.454 212.409L191.622 212.361Z" fill="white"/>
<path d="M188.198 198.402L188.035 198.455L189.44 201.921L189.603 201.868L188.198 198.402Z" fill="white"/>
<path d="M187.596 191.904L187.026 193.906L187.2 193.943L187.782 191.904L188.22 190.371L188.046 190.334L187.596 191.904Z" fill="white"/>
<path d="M186.378 191.904L185.88 193.644L186.054 193.682L186.558 191.904L187.074 190.115L186.9 190.077L186.378 191.904Z" fill="white"/>
<path d="M189.126 209.184L190.32 212.708L190.488 212.666L189.3 209.136L189.126 209.184Z" fill="white"/>
<path d="M187.077 198.775L186.913 198.828L188.319 202.293L188.482 202.241L187.077 198.775Z" fill="white"/>
<path d="M173.133 206.032L172.964 206.086L174.369 209.552L174.538 209.498L173.133 206.032Z" fill="white"/>
<path d="M182.304 181.56L183.312 180.145L183.204 179.995L182.154 181.48L182.304 181.56Z" fill="white"/>
<path d="M187.026 216.943L190.836 218.379L190.902 218.235L187.092 216.799L187.026 216.943Z" fill="white"/>
<path d="M176.556 178.858L176.4 178.778L174.342 181.971L174.498 182.051L176.556 178.858Z" fill="white"/>
<path d="M204.6 230.314L204.522 230.117L203.172 232.221L203.322 232.295L204.6 230.314Z" fill="white"/>
<path d="M200.73 233.678L200.556 233.662L200.088 237.32L200.268 237.336L200.73 233.678Z" fill="white"/>
<path d="M198.464 223.571L198.396 223.714L202.207 225.153L202.275 225.011L198.464 223.571Z" fill="white"/>
<path d="M203.562 229.786L204.084 228.979L204.012 228.776L203.358 229.786L202.128 231.697L202.284 231.772L203.562 229.786Z" fill="white"/>
<path d="M201.06 239.867L200.922 239.766L198.318 242.628L198.456 242.73L201.06 239.867Z" fill="white"/>
<path d="M202.086 223.783L198.918 222.587L198.852 222.731L202.164 223.981L202.086 223.783Z" fill="white"/>
<path d="M200.136 239.205L199.998 239.104L197.4 241.966L197.538 242.068L200.136 239.205Z" fill="white"/>
<path d="M195.852 217.536L195.678 217.498L194.754 221.087L194.928 221.124L195.852 217.536Z" fill="white"/>
<path d="M198.288 231.265L198.426 231.163L197.16 229.786L195.804 228.312L195.666 228.413L196.932 229.786L198.288 231.265Z" fill="white"/>
<path d="M175.368 182.495L175.524 182.575L177.582 179.376L177.426 179.301L175.368 182.495Z" fill="white"/>
<path d="M187.076 236.655L186.912 236.707L188.318 240.173L188.481 240.12L187.076 236.655Z" fill="white"/>
<path d="M202.74 243.258L202.566 243.216L202.248 244.326L202.446 244.278L202.74 243.258Z" fill="white"/>
<path d="M188.202 236.284L188.039 236.337L189.444 239.802L189.607 239.75L188.202 236.284Z" fill="white"/>
<path d="M193.728 206.37L195.312 206.968C195.312 206.898 195.252 206.829 195.228 206.765L193.794 206.231L193.728 206.37Z" fill="white"/>
<path d="M203.886 243.504L203.712 243.467L203.568 243.963L203.772 243.899L203.886 243.504Z" fill="white"/>
<path d="M183.348 232.621L180.204 231.436L180.336 231.655L183.276 232.765L183.348 232.621Z" fill="white"/>
<path d="M172.602 184.636L174.648 186.532L174.78 186.425L172.614 184.422L172.602 184.636Z" fill="white"/>
<path d="M190.644 197.633L192.048 199.155L191.85 198.696L190.8 197.532L190.644 197.633Z" fill="white"/>
<path d="M173.796 187.263L173.922 187.151L172.542 185.869L172.53 186.088L173.796 187.263Z" fill="white"/>
<path d="M196.566 211.854L197.76 215.384L197.928 215.335L196.74 211.811L196.566 211.854Z" fill="white"/>
<path d="M183.81 231.655L180 230.213L179.928 230.357L183.738 231.799L183.81 231.655Z" fill="white"/>
<path d="M179.394 222.091L179.25 221.994L176.736 224.915L176.874 225.012L179.394 222.091Z" fill="white"/>
<path d="M185.76 226.347L184.572 222.817L184.398 222.865L185.592 226.389L185.76 226.347Z" fill="white"/>
<path d="M184.626 226.651L183.438 223.121L183.264 223.169L184.458 226.694L184.626 226.651Z" fill="white"/>
<path d="M180.33 222.726L180.192 222.635L177.672 225.556L177.816 225.652L180.33 222.726Z" fill="white"/>
<path d="M174.282 193.623L174.456 193.666L175.014 191.904L175.578 190.125L175.41 190.077L174.828 191.904L174.282 193.623Z" fill="white"/>
<path d="M173.598 191.904L173.142 193.34L173.316 193.383L173.784 191.904L174.438 189.837L174.27 189.794L173.598 191.904Z" fill="white"/>
<path d="M176.556 216.74L176.4 216.66L174.342 219.858L174.498 219.933L176.556 216.74Z" fill="white"/>
<path d="M177.582 217.263L177.426 217.183L175.368 220.382L175.524 220.457L177.582 217.263Z" fill="white"/>
<path d="M187.08 205.809L185.022 209.002L185.172 209.082L187.23 205.884L187.08 205.809Z" fill="white"/>
<path d="M194.526 217.263L193.602 220.852L193.776 220.889L194.7 217.301L194.526 217.263Z" fill="white"/>
<path d="M195.786 208.116L193.332 207.192L193.266 207.336L195.87 208.319C195.84 208.26 195.816 208.185 195.786 208.116Z" fill="white"/>
<path d="M194.538 223.789L194.514 223.634L190.416 224.147L190.44 224.301L194.538 223.789Z" fill="white"/>
<path d="M196.722 227.644L196.584 227.746L198.462 229.786L199.206 230.597L199.344 230.496L198.69 229.786L196.722 227.644Z" fill="white"/>
<path d="M187.782 229.786L188.22 228.258L188.046 228.221L187.596 229.786L187.026 231.788L187.2 231.825L187.782 229.786Z" fill="white"/>
<path d="M186.633 217.783L186.565 217.926L190.377 219.365L190.445 219.222L186.633 217.783Z" fill="white"/>
<path d="M186.558 229.786L187.074 227.997L186.9 227.959L186.378 229.786L185.88 231.526L186.054 231.569L186.558 229.786Z" fill="white"/>
<path d="M199.092 237.219L199.554 233.561L199.38 233.545L198.912 237.203L199.092 237.219Z" fill="white"/>
<path d="M173.034 176.289C173.034 176.289 180.576 175.414 183.834 180.962C187.092 186.51 207.45 235.547 207.78 240.236C208.11 244.924 194.328 246.073 189.738 244.033C185.148 241.993 172.338 217.76 171.042 214.545" stroke="#263238" stroke-width="0.985332"/>
<path d="M127.44 243.141C127.44 243.141 112.026 241.389 109.398 241.678C106.77 241.966 94.968 248.977 94.968 248.977H128.4L127.44 243.141Z" fill="#CFCFCF" stroke="#263238" stroke-width="0.985332" stroke-linecap="round" stroke-linejoin="round"/>
<path d="M191.07 233.796L127.47 243.141L128.4 248.977H206.82C207.43 246.089 207.759 243.159 207.804 240.22C207.804 235.841 204.852 230.88 204.852 230.88" fill="#636C3F"/>
<path d="M196.338 243.435L197.532 246.959L197.7 246.916L196.512 243.387L196.338 243.435Z" fill="white"/>
<path d="M200.694 233.459L198.09 236.322L198.228 236.423L200.832 233.561L200.694 233.459Z" fill="white"/>
<path d="M197.172 235.66L197.31 235.761L199.908 232.899L199.77 232.797L197.172 235.66Z" fill="white"/>
<path d="M188.898 240.759L190.092 244.289L190.26 244.241L189.072 240.717L188.898 240.759Z" fill="white"/>
<path d="M198.834 246.612L197.64 243.082L197.472 243.13L198.666 246.655L198.834 246.612Z" fill="white"/>
<path d="M191.394 243.942L190.206 240.412L190.032 240.46L191.226 243.985L191.394 243.942Z" fill="white"/>
<path d="M202.342 236.911L201.323 240.483L201.498 240.522L202.517 236.951L202.342 236.911Z" fill="white"/>
<path d="M201.612 248.977H201.798L202.668 246.243L202.494 246.201L201.612 248.977Z" fill="white"/>
<path d="M186.864 248.374L186.798 248.518L188.01 248.977H188.466L186.864 248.374Z" fill="white"/>
<path d="M203.473 237.145L202.453 240.716L202.627 240.755L203.647 237.184L203.473 237.145Z" fill="white"/>
<path d="M172.899 237.607L172.73 237.661L174.135 241.127L174.304 241.073L172.899 237.607Z" fill="white"/>
<path d="M193.038 238.917L196.842 240.353L196.914 240.209L193.104 238.767L193.038 238.917Z" fill="white"/>
<path d="M194.298 248.844L194.262 248.977H194.442L194.472 248.876L194.298 248.844Z" fill="white"/>
<path d="M193.567 237.813L193.499 237.955L197.31 239.394L197.378 239.252L193.567 237.813Z" fill="white"/>
<path d="M176.226 237.101L178.848 239.953L178.986 239.851L176.364 237L176.226 237.101Z" fill="white"/>
<path d="M179.898 239.184L177.276 236.338L177.144 236.434L179.76 239.285L179.898 239.184Z" fill="white"/>
<path d="M205.578 233.315L205.944 233.032L205.872 232.877L205.464 233.198L205.578 233.315Z" fill="white"/>
<path d="M176.111 241.888L174.981 245.433L175.154 245.477L176.284 241.932L176.111 241.888Z" fill="white"/>
<path d="M206.34 240.898L207.786 241.192C207.786 241.138 207.786 241.085 207.786 241.032L206.37 240.743L206.34 240.898Z" fill="white"/>
<path d="M184.14 247.84L183.33 248.977H183.54L184.29 247.92L184.14 247.84Z" fill="white"/>
<path d="M207.744 242.1L206.118 241.774L206.076 241.923L207.732 242.26C207.738 242.206 207.744 242.153 207.744 242.1Z" fill="white"/>
<path d="M206.352 234.111L206.394 234.079L206.328 233.919L206.238 233.993L206.352 234.111Z" fill="white"/>
<path d="M184.159 242.725L180.365 244.197L180.436 244.344L184.231 242.871L184.159 242.725Z" fill="white"/>
<path d="M183.288 247.359L183.138 247.274L181.926 248.978H182.136L183.288 247.359Z" fill="white"/>
<path d="M177.262 242.203L176.132 245.748L176.305 245.791L177.435 242.247L177.262 242.203Z" fill="white"/>
<path d="M184.645 243.676L180.851 245.15L180.923 245.296L184.717 243.823L184.645 243.676Z" fill="white"/>
<path d="M187.002 237.464L186.852 237.384L184.794 240.583L184.944 240.663L187.002 237.464Z" fill="white"/>
<path d="M183.768 240.06L183.918 240.134L185.976 236.941L185.82 236.861L183.768 240.06Z" fill="white"/>
<path d="M141.598 242.727L137.803 244.2L137.875 244.347L141.67 242.874L141.598 242.727Z" fill="white"/>
<path d="M133.764 248.315L133.608 248.241L133.134 248.977H133.338L133.764 248.315Z" fill="white"/>
<path d="M132.588 245.48L133.62 242.233L133.428 242.26L132.42 245.437L132.588 245.48Z" fill="white"/>
<path d="M134.79 248.839L134.634 248.764L134.496 248.977H134.7L134.79 248.839Z" fill="white"/>
<path d="M154.74 239.382L154.812 239.237L154.584 239.157L154.26 239.2L154.74 239.382Z" fill="white"/>
<path d="M159.048 248.977H159.234L160.098 246.243L159.93 246.201L159.048 248.977Z" fill="white"/>
<path d="M160.602 238.271L159.9 240.738L160.068 240.781L160.794 238.244L160.602 238.271Z" fill="white"/>
<path d="M140.724 247.359L140.574 247.274L139.362 248.978H139.572L140.724 247.359Z" fill="white"/>
<path d="M141.726 247.92L141.576 247.84L140.76 248.977H140.97L141.726 247.92Z" fill="white"/>
<path d="M177.198 248.764L177.06 248.977H177.264L177.354 248.839L177.198 248.764Z" fill="white"/>
<path d="M203.634 246.489L202.842 248.977H203.028L203.802 246.532L203.634 246.489Z" fill="white"/>
<path d="M171.785 237.972L171.616 238.027L173.022 241.493L173.191 241.438L171.785 237.972Z" fill="white"/>
<path d="M161.064 246.489L160.278 248.977H160.458L161.238 246.532L161.064 246.489Z" fill="white"/>
<path d="M144.3 248.374L144.228 248.518L145.446 248.977H145.896L144.3 248.374Z" fill="white"/>
<path d="M176.328 248.315L176.172 248.241L175.698 248.977H175.902L176.328 248.315Z" fill="white"/>
<path d="M133.78 241.957L132.662 245.494L132.835 245.537L133.952 242L133.78 241.957Z" fill="white"/>
<path d="M167.91 244.636L167.742 244.577L166.23 248.006L166.392 248.064L167.91 244.636Z" fill="white"/>
<path d="M142.07 243.69L138.275 245.163L138.347 245.31L142.142 243.837L142.07 243.69Z" fill="white"/>
<path d="M169.008 245.015L168.84 244.962L167.328 248.39L167.496 248.443L169.008 245.015Z" fill="white"/>
<path d="M163.512 241.929L165.348 242.297L167.544 242.735L167.586 242.58L165.348 242.132L163.548 241.774L163.512 241.929Z" fill="white"/>
<path d="M167.808 241.71L167.85 241.555L165.348 241.053L163.812 240.743L163.77 240.898L165.348 241.213L167.808 241.71Z" fill="white"/>
<path d="M158.928 240.519L159.522 238.431L159.33 238.458L158.754 240.482L158.928 240.519Z" fill="white"/>
<path d="M154.35 240.209L152.406 239.472L152.082 239.52L154.278 240.353L154.35 240.209Z" fill="white"/>
<path d="M148.656 243.985L148.83 243.942L147.636 240.412L147.468 240.46L148.656 243.985Z" fill="white"/>
<path d="M147.696 244.241L146.502 240.717L146.334 240.759L147.528 244.289L147.696 244.241Z" fill="white"/>
<path d="M153.774 243.435L154.968 246.959L155.136 246.916L153.942 243.387L153.774 243.435Z" fill="white"/>
<path d="M151.728 248.844L151.692 248.977H151.878L151.902 248.876L151.728 248.844Z" fill="white"/>
<path d="M156.27 246.612L155.076 243.082L154.908 243.13L156.096 246.655L156.27 246.612Z" fill="white"/>
<path d="M191.07 233.796L127.47 243.141L128.4 248.977H206.82C207.43 246.089 207.759 243.159 207.804 240.22C207.804 235.841 204.852 230.88 204.852 230.88" stroke="#263238" stroke-width="0.985332"/>
<path d="M205.056 248.032H126L123.408 209.328C123.338 208.951 123.36 208.565 123.474 208.196C123.588 207.828 123.791 207.486 124.068 207.194C124.346 206.903 124.691 206.668 125.081 206.507C125.47 206.347 125.895 206.263 126.324 206.263H204.72C205.15 206.262 205.575 206.345 205.965 206.506C206.355 206.666 206.701 206.901 206.978 207.192C207.256 207.484 207.459 207.827 207.572 208.196C207.686 208.564 207.708 208.951 207.636 209.328L205.056 248.032Z" fill="#263238" stroke="#263238" stroke-width="0.985332" stroke-linecap="round" stroke-linejoin="round"/>
<path d="M129.882 207.192H204.15C204.569 207.188 204.985 207.266 205.367 207.419C205.749 207.573 206.089 207.799 206.362 208.082C206.636 208.365 206.837 208.697 206.951 209.056C207.066 209.416 207.091 209.793 207.024 210.161" stroke="white" stroke-width="0.985332" stroke-linecap="round" stroke-linejoin="round"/>
<path d="M123.996 209.568C124.052 208.919 124.383 208.312 124.922 207.871C125.461 207.43 126.168 207.187 126.9 207.192" stroke="white" stroke-width="0.985332" stroke-linecap="round" stroke-linejoin="round"/>
<path d="M205.386 244.262H125.658V248.032H205.386V244.262Z" fill="white" stroke="#263238" stroke-width="0.985332" stroke-linecap="round" stroke-linejoin="round"/>
<path d="M170.892 227.302C170.892 228.969 168.36 230.32 165.24 230.32C162.12 230.32 159.594 228.969 159.594 227.302C159.594 225.636 162.126 224.285 165.24 224.285C168.354 224.285 170.892 225.636 170.892 227.302Z" fill="white" stroke="#263238" stroke-width="0.985332" stroke-linecap="round" stroke-linejoin="round"/>
<path d="M47.3641 244.145C45.6885 244.071 44.0427 243.721 42.5101 243.114C42.1197 242.947 41.8169 242.652 41.6651 242.291C41.5132 241.93 41.5239 241.53 41.6951 241.176C41.8662 240.822 42.1845 240.54 42.5834 240.39C42.9824 240.24 43.4312 240.232 43.8361 240.369C45.3841 240.957 47.3701 241.32 47.9041 241.117C48.8761 240.14 50.3821 234.239 48.4381 231.425C48.336 231.226 48.1819 231.052 47.9888 230.918C47.7957 230.783 47.5691 230.691 47.3281 230.651C46.2241 230.517 44.5921 231.526 44.0161 232.007C43.6876 232.261 43.2612 232.392 42.8265 232.372C42.3919 232.352 41.983 232.182 41.6859 231.899C41.3888 231.616 41.2267 231.242 41.2339 230.854C41.241 230.467 41.4167 230.097 41.7241 229.823C42.0301 229.567 44.8141 227.34 47.7721 227.687C48.5063 227.785 49.2056 228.031 49.8162 228.407C50.4268 228.782 50.9324 229.278 51.2941 229.855C54.1561 233.999 52.2001 241.902 49.9981 243.451C49.2336 243.941 48.305 244.185 47.3641 244.145Z" fill="#263238" stroke="#263238" stroke-width="0.985332" stroke-linecap="round" stroke-linejoin="round"/>
<path d="M44.394 226.469H25.884V248.337H44.394V226.469Z" fill="#263238" stroke="#263238" stroke-width="0.985332" stroke-linecap="round" stroke-linejoin="round"/>
<path d="M27.564 225.273C27.564 225.273 27.564 223.452 31.314 221.631C35.064 219.81 37.11 217.082 35.064 211.923C33.018 206.765 33.36 203.123 37.464 200.084" stroke="#263238" stroke-width="0.985332" stroke-linecap="round" stroke-linejoin="round"/>
<path d="M28.416 205.862C28.608 203.646 29.718 201.772 32.016 200.084" stroke="#263238" stroke-width="0.985332" stroke-linecap="round" stroke-linejoin="round"/>
<path d="M29.6101 211.923C29.2355 211.003 28.9328 210.061 28.7041 209.104" stroke="#263238" stroke-width="0.985332" stroke-linecap="round" stroke-linejoin="round"/>
<path d="M42.7922 213.701C42.6484 213.098 42.458 212.504 42.2222 211.923L41.9102 211.101" stroke="#263238" stroke-width="0.985332" stroke-linecap="round" stroke-linejoin="round"/>
<path d="M34.7219 225.273C34.7219 225.273 34.7219 223.452 38.4719 221.631C40.9319 220.435 42.6719 218.849 42.9779 216.446" stroke="#263238" stroke-width="0.985332" stroke-linecap="round" stroke-linejoin="round"/>
<path d="M288.018 247.963H8.75391V253.463H288.018V247.963Z" fill="#263238"/>
</svg>
