<svg width="54" height="47" viewBox="0 0 54 47"  xmlns="http://www.w3.org/2000/svg">
<path d="M32.654 28.9467L35.0423 16.9104L32.6118 12.8064L27.2552 10.8564L22.7552 12.4396L16.8302 23.1869L32.654 28.9467Z" />
<path d="M34.4341 31.812L34.7177 31.0338L13.9157 23.4612L13.3497 25.0174L23.7712 28.812L32.8392 32.1131L34.1505 32.5901L34.1517 32.5866H34.1529L34.4341 31.812Z" />
<path d="M33.6618 41.2244C23.6247 45.1326 12.2798 40.1451 8.3716 30.108C8.30832 29.9463 8.25207 29.7834 8.19348 29.6205C10.6673 31.0854 13.5525 32.794 13.5525 32.794C14.3798 33.2838 15.4497 33.0108 15.9396 32.1811C16.4306 31.3526 16.1564 30.2838 15.3279 29.794L5.82629 24.1678C5.36457 23.8947 4.80442 23.849 4.30637 24.0436C3.80598 24.2369 3.42512 24.6506 3.26926 25.1627L0.0747275 35.7319C-0.203007 36.6529 0.317305 37.6256 1.23957 37.9045C2.16066 38.1834 3.13332 37.6619 3.41223 36.7408C3.41223 36.7408 4.27707 33.8779 5.07394 31.2412C5.09152 31.2846 5.10559 31.3291 5.12316 31.3737C9.72863 43.2014 23.0986 49.0783 34.9263 44.474C42.8353 41.3944 48.0771 34.3947 49.3111 26.5596L46.0392 24.6225C45.4345 31.8283 40.8419 38.4295 33.6618 41.2244Z" />
<path d="M51.9102 8.13891C50.9891 7.86 50.0165 8.38149 49.7376 9.30258C49.7376 9.30258 48.8727 12.1643 48.0747 14.801C48.0583 14.7577 48.043 14.7131 48.0266 14.6698C43.4212 2.84086 30.0512 -3.03609 18.2223 1.56938C10.3134 4.64907 5.07156 11.6487 3.83875 19.485L7.11062 21.4221C7.71414 14.2151 12.3079 7.61391 19.4868 4.81782C29.5251 0.910784 40.87 5.89711 44.7782 15.9342C44.8415 16.0971 44.8977 16.26 44.9563 16.4241C42.4813 14.9592 39.5973 13.2506 39.5973 13.2506C38.7688 12.7608 37.7001 13.0338 37.2102 13.8623C36.7192 14.6909 36.9923 15.7596 37.8208 16.2506L47.3223 21.8768C47.7841 22.1498 48.3442 22.1956 48.8423 22.001C49.3427 21.8065 49.7247 21.394 49.8794 20.8819L53.0739 10.3116C53.3528 9.39047 52.8313 8.41782 51.9102 8.13891Z" />
</svg>
