<svg width="63" height="49" viewBox="0 0 63 49"  xmlns="http://www.w3.org/2000/svg">
<path d="M61.774 20.9227L49.0179 8.62034C44.6645 3.66325 37.9396 0.895392 31.3769 0.823095C18.0861 0.674016 7.8535 11.2133 7.66721 24.9349L0.834365 26.6634C0.834365 26.6634 -0.0500842 27.1051 0.547816 27.7817C1.14572 28.4561 10.7448 37.5412 10.7448 37.5412C17.189 44.3205 22.1411 47.7604 31.188 48.2156C44.2531 48.8726 55.4146 37.6159 55.1895 23.9515C55.1895 23.9515 59.9561 22.7784 61.4316 22.323C62.9089 21.8689 61.774 20.9227 61.774 20.9227V20.9227ZM13.2275 35.9562L5.10727 28.216L15.6961 25.4149L13.2275 35.9562V35.9562ZM31.4397 45.159C25.1024 45.1342 19.1938 41.9627 15.7059 37.9183C18.6165 25.4705 18.6165 25.4705 19.036 23.5035C19.4606 21.514 17.8756 22.3195 17.8756 22.3195L10.8121 24.1288C10.9335 12.8677 20.6809 3.74531 31.4373 3.91418C37.0688 4.00178 43.036 6.65909 46.8943 11.0623L43.4426 25.5349C43.1494 27.056 44.5136 26.6534 44.5136 26.6534L51.8881 24.8222C51.8881 36.2594 42.2114 45.2052 31.4397 45.159V45.159ZM46.964 23.3668L49.4005 12.8225L57.5093 20.6871L46.964 23.3668V23.3668Z" />
<path d="M35.9134 8.60136C26.8552 6.36623 24.5145 15.0105 24.5145 15.0105C24.5145 15.0105 22.8622 22.0821 21.0129 30.5411C19.1616 38.9982 26.5298 40.9149 26.5298 40.9149C35.0881 43.0962 37.1023 34.8689 37.1023 34.8689C37.1023 34.8689 41.7694 19.6871 41.8924 19.3393C43.1167 15.9028 40.738 9.78977 35.9134 8.60136V8.60136ZM29.36 38.504L25.7121 37.5766L26.1317 35.9924L29.7492 36.9483L29.36 38.504V38.504ZM32.6012 27.7883L31.4933 27.5194L31.1666 28.6849L29.5808 28.2366L29.851 27.1608L28.6848 26.8616L29.0428 25.2769L30.2088 25.5463L30.4782 24.351L32.0933 24.7394L31.8231 25.875L32.9608 26.2051L32.6012 27.7883V27.7883ZM38.5224 21.3554C36.2609 23.2465 33.1384 23.1726 31.3218 22.6444C29.5027 22.1151 27.8193 20.7607 26.6612 18.282C25.5071 15.8041 26.9602 13.8542 26.9602 13.8542C28.3465 11.1782 30.6605 10.4845 30.6605 10.4845C35.3852 8.9982 38.2923 11.5423 39.5488 13.8542C40.8037 16.1675 40.738 19.5045 38.5224 21.3554V21.3554Z" />
<path d="M34.6247 12.4672C31.7415 11.8146 30.8921 14.1851 30.8921 14.1851L30.6589 14.9123C30.6589 14.9123 30.3697 16.0941 30.2301 16.5976C30.0644 17.192 30.2301 19.3069 32.2792 19.8681C35.3352 20.7061 36.144 18.3156 36.144 18.3156C36.144 18.3156 36.6382 16.5234 36.7738 15.9693C37.2347 14.0851 35.6497 12.698 34.6247 12.4672ZM34.9255 17.7681C34.8819 17.8646 34.1864 19.1863 32.7534 18.6726C31.3209 18.1578 31.5441 16.9461 31.5705 16.7944C31.5705 16.7944 33.0188 18.2686 34.8822 17.6839C34.8819 17.6839 34.9648 17.6694 34.9255 17.7681ZM33.907 16.5013C33.907 16.5013 32.8083 16.4881 32.2528 15.5129C32.2528 15.5129 31.6956 14.706 32.7399 13.9548C32.78 13.9413 33.199 13.5651 34.145 13.7738C34.145 13.7738 35.536 14.15 35.5215 15.3179C35.5086 16.4881 34.3408 16.529 33.907 16.5013V16.5013Z" />
</svg>
