<svg xmlns="http://www.w3.org/2000/svg" xmlns:xlink="http://www.w3.org/1999/xlink" width="1024" zoomAndPan="magnify" viewBox="0 0 768 767.999994" height="1024" preserveAspectRatio="xMidYMid meet" version="1.0"><path fill="#b3cd4a" d="M 197.007812 663.425781 C 286.789062 721.152344 401.503906 738.257812 506.246094 698.347656 C 721.433594 616.390625 790.546875 342.726562 649.464844 165.273438 C 586.765625 86.167969 491.285156 36.992188 390.105469 34.855469 C 280.375 32.71875 171.359375 86.878906 106.515625 175.25 C 41.675781 263.621094 23.152344 384.773438 58.777344 488.109375 C 83.714844 562.941406 134.304688 622.804688 197.007812 663.425781 Z M 396.519531 582.183594 L 437.84375 627.792969 C 441.40625 631.355469 447.109375 632.070312 451.382812 629.21875 C 453.519531 627.792969 454.945312 624.941406 455.65625 621.378906 L 472.757812 453.191406 C 472.757812 450.339844 472.046875 447.488281 469.910156 445.351562 C 468.484375 443.925781 467.058594 443.214844 465.632812 442.5 C 464.921875 442.5 463.496094 441.789062 462.070312 441.789062 L 292.488281 441.789062 C 286.789062 441.789062 282.511719 446.0625 281.800781 451.765625 C 281.800781 454.617188 282.511719 457.464844 284.648438 459.605469 L 325.976562 505.214844 C 229.074219 577.195312 132.167969 552.25 115.066406 530.871094 C 69.464844 473.859375 66.617188 373.371094 82.292969 305.667969 C 100.105469 230.125 148.558594 161.710938 213.398438 118.949219 C 197.007812 168.125 188.457031 223.710938 199.144531 286.425781 L 139.292969 299.253906 C 134.304688 300.679688 130.742188 304.957031 131.457031 310.65625 C 131.457031 313.507812 133.59375 316.359375 135.730469 317.785156 L 273.25 417.558594 C 275.386719 418.984375 278.949219 419.695312 281.800781 418.984375 C 283.226562 418.269531 285.363281 417.558594 286.789062 416.84375 C 287.5 416.132812 288.214844 415.417969 288.925781 413.992188 L 373.003906 267.183594 C 375.855469 262.195312 374.429688 256.496094 369.441406 252.929688 C 367.304688 251.507812 364.453125 250.792969 361.605469 251.507812 L 301.75 265.046875 C 287.5 144.605469 357.328125 73.339844 384.40625 69.777344 C 461.359375 58.375 555.414062 111.824219 606.003906 164.5625 C 656.589844 217.296875 687.230469 287.851562 691.503906 360.542969 L 691.503906 361.257812 C 657.304688 322.773438 613.128906 287.140625 553.988281 265.046875 L 572.511719 206.609375 C 573.9375 201.621094 571.800781 195.917969 566.8125 193.78125 C 563.960938 192.355469 561.113281 193.066406 558.261719 193.78125 L 404.355469 262.910156 C 401.503906 264.332031 399.367188 266.472656 398.65625 269.324219 C 397.941406 270.746094 397.941406 272.886719 398.65625 274.3125 C 398.65625 275.738281 399.367188 276.449219 400.082031 277.160156 L 484.871094 423.972656 C 487.722656 428.960938 493.421875 430.386719 498.410156 428.246094 C 500.546875 426.820312 502.683594 424.683594 503.398438 421.832031 L 521.921875 363.394531 C 633.078125 411.144531 660.15625 508.066406 649.464844 533.007812 C 648.753906 533.722656 648.753906 534.433594 648.042969 535.148438 C 609.566406 600.710938 546.148438 650.597656 473.472656 672.691406 C 398.65625 695.496094 315.289062 689.082031 245.460938 654.164062 C 244.75 654.164062 244.035156 653.449219 243.324219 653.449219 C 295.339844 642.761719 347.351562 622.09375 396.519531 582.183594 Z M 396.519531 582.183594 " fill-opacity="1" fill-rule="nonzero"/></svg>