<svg width="57" height="58" viewBox="0 0 57 58" fill="none" xmlns="http://www.w3.org/2000/svg">
<path d="M46.1323 18.4123C48.0136 21.611 49.0976 25.3575 49.0976 29.3575C49.0976 41.0736 39.8056 50.604 28.3848 50.604C23.7052 50.604 19.3874 48.9994 15.9152 46.307L18.0265 43.8962H8.21484L8.32306 54.9674L11.085 51.8162C15.8457 55.6823 21.8552 57.9988 28.3848 57.9988C43.7809 57.9988 56.3075 45.1505 56.3075 29.3575C56.3075 24.0273 54.8811 19.0329 52.399 14.7542L46.1323 18.4123V18.4123Z" fill="#636C3F"/>
<path d="M7.6709 29.3576C7.6709 17.6419 16.9632 8.11114 28.3843 8.11114C33.1848 8.11114 37.6092 9.79857 41.1252 12.6218L38.8505 15.2672H48.7709L48.6616 3.86046L45.8976 7.07433C41.1045 3.10268 35.0112 0.71582 28.3843 0.71582C12.9881 0.71582 0.462036 13.5647 0.462036 29.3576C0.462036 34.5939 1.83861 39.5072 4.24033 43.7353L10.6644 40.3514C8.76579 37.1415 7.6709 33.3778 7.6709 29.3576V29.3576Z" fill="#636C3F"/>
<path d="M21.1869 28.596C21.1869 28.596 18.3064 29.0175 17.642 29.2125C16.9776 29.4071 14.3517 30.3808 14.3191 32.8481C14.2875 35.3158 16.2484 36.5168 18.1804 36.5168C20.1108 36.5168 21.3086 35.8412 21.6937 35.4458C21.789 35.3484 21.9791 35.6402 22.0096 35.7054C22.0417 35.771 22.0733 36.3879 22.7687 36.3879L25.2384 36.3553C25.2384 36.3553 25.6184 36.2253 25.3336 35.7383C25.0479 35.2519 25.111 34.7644 25.111 34.1795V28.4008C25.111 28.4008 25.3646 24.1799 20.3949 24.1475C15.4265 24.1154 15.1732 26.8426 15.0459 28.4658H17.9274C17.9274 28.4658 17.9584 27.0373 19.256 26.8423C19.256 26.8423 20.3622 26.6147 21.1232 26.9723C21.1235 26.9723 22.7059 28.0446 21.1869 28.596V28.596ZM21.8205 32.1659C21.789 32.7194 21.598 33.6278 19.5411 33.9528C19.5411 33.9528 17.7682 34.0809 17.7051 32.8481C17.7051 32.8481 17.2935 31.8094 19.4774 31.1924L21.7887 30.8023C21.789 30.8023 21.8526 31.6142 21.8205 32.1659Z" fill="#636C3F"/>
<path d="M30.3186 20.0566H26.6178V36.3231H30.3186V20.0566Z" fill="#636C3F"/>
<path d="M34.5421 36.3697C36.9796 37.1596 38.8795 35.3875 38.8795 35.3875L39.0681 36.1472H42.266V24.4378H38.8471C38.8471 24.4378 38.8795 27.4121 38.8795 30.5448C38.8795 33.6775 37.1387 33.3624 37.1387 33.3624C35.1118 33.4563 35.2081 31.5267 35.2081 31.5267L35.081 24.4375H31.7587L31.7902 30.956C31.726 33.1402 31.6955 35.4453 34.5421 36.3697V36.3697Z" fill="#636C3F"/>
</svg>
