<svg width="57" height="55" viewBox="0 0 57 55" fill="none" xmlns="http://www.w3.org/2000/svg">
<path d="M48.3502 21.435L48.1919 21.3655L48.2479 20.4834L54.4698 8.65276L33.0352 0.313721L28.0047 10.92L21.1858 0.797513L0.82251 11.3746L8.75308 23.5259L1.09438 32.9198L9.52068 37.0084L9.90447 44.8207L28.8455 54.9729L46.8227 42.5213L47.2644 35.683L56.4431 29.9099L48.2351 21.5074L48.3502 21.435V21.435ZM47.4169 33.333L45.4231 34.5873L37.1843 39.7684L30.2516 32.819L46.187 22.7962L46.584 22.5466L48.0203 24.0176L53.4263 29.5529L47.4169 33.333V33.333ZM4.09579 32.2569L8.99126 26.2531L10.3663 24.5675L10.8301 24.7813L28.1108 32.7349L21.1277 40.5212L11.3704 35.7865L9.41405 34.8364L4.09579 32.2569ZM28.4912 14.8784L44.1611 21.6928L44.2757 21.7435L29.2832 31.1735L13.0046 23.6811L13.2897 23.5193L28.4912 14.8784V14.8784ZM33.9986 2.73586L51.7869 9.65562L46.3718 19.9542L46.3326 20.5568L29.1004 13.0628L33.9986 2.73586ZM3.57036 12.0963L20.554 3.27482L27.3358 13.3408L10.5944 22.857L3.57036 12.0963V12.0963ZM11.4768 37.9593L21.5881 42.8648L28.1559 35.5427L27.8549 52.2796L11.7574 43.6504L11.4768 37.9593ZM44.9762 41.4784L29.7691 52.0128L30.0683 35.3377L36.9095 42.1959L45.2714 36.9362L44.9762 41.4784V41.4784Z" fill="#636C3F"/>
</svg>
