<svg width="56" height="60" viewBox="0 0 56 60" fill="none" xmlns="http://www.w3.org/2000/svg">
<path d="M40.2032 16.8705C37.98 16.8705 36.0146 17.4941 34.4426 18.6699L29.2307 13.4946V8.64048L32.0523 0.864014H23.7233L26.4234 8.31504V13.6068L21.4346 18.5373C19.6936 17.1755 17.316 16.4063 14.7554 16.4063C12.9327 16.4063 11.0744 16.7933 9.38036 17.5256C7.42425 18.3709 5.71082 19.7738 3.98493 21.9426C-0.908688 28.0988 0.992792 38.7289 1.07634 39.179C1.17925 39.727 1.59567 40.162 2.13835 40.289C2.25479 40.3166 5.0228 40.9521 8.48599 40.9521C12.4019 40.9521 15.6354 40.1111 18.0061 38.5265C17.2783 40.4909 16.8515 42.7077 16.8346 45.0834C16.773 53.1185 26.6136 59.2778 27.0313 59.5367C27.2584 59.6752 27.5125 59.7439 27.7679 59.7439C28.0249 59.7439 28.2835 59.6752 28.5098 59.533C28.9254 59.2741 38.7015 53.0978 38.7015 45.0938C38.7015 42.8106 38.2988 40.654 37.5999 38.7249C39.9735 40.3662 43.1887 41.2089 47.2195 41.2089C50.6827 41.2089 53.4529 40.575 53.5682 40.5476C54.0886 40.4262 54.4958 40.0201 54.617 39.4994C54.7287 39.0217 57.2741 27.7423 51.6129 22.0832C48.3001 18.7701 44.1409 16.8705 40.2032 16.8705V16.8705ZM6.1832 23.69C7.60832 21.8967 8.97853 20.756 10.4928 20.1019C11.8402 19.5205 13.313 19.2139 14.7554 19.2139C16.5486 19.2139 18.1865 19.6918 19.4108 20.5382L3.5518 36.2094C3.30566 32.9613 3.35817 27.2407 6.1832 23.69V23.69ZM17.5703 35.3013C15.2203 37.6531 11.333 38.1464 8.48599 38.1464C7.48737 38.1464 6.54631 38.0868 5.72673 38.0043L21.2555 22.6604C22.9684 26.0657 21.5521 31.3209 17.5703 35.3013ZM26.4231 55.6465C23.7923 53.567 19.606 49.5575 19.6402 45.1057C19.6864 39.2443 22.6223 34.3764 26.4231 33.4295V55.6465ZM26.4231 30.5617C25.3837 30.7278 24.3901 31.0792 23.4668 31.6033C25.1797 27.6842 25.1847 23.5958 23.3093 20.6308L26.4231 17.5532V30.5617ZM29.2307 17.4495L32.5135 20.7095C30.5515 23.642 30.4855 27.7388 32.1546 31.6837C31.239 31.1423 30.2569 30.7742 29.2307 30.5893V17.4495V17.4495ZM29.2307 55.5407V33.4515C33.0143 34.4607 35.8955 39.2923 35.8955 45.0941C35.8955 49.4652 31.8562 53.4249 29.2307 55.5407V55.5407ZM47.2193 38.4035C44.3722 38.4035 40.4836 37.9104 38.1341 35.562C34.0779 31.5041 32.6777 26.1238 34.5436 22.7256L50.1735 38.2419C49.3107 38.3332 48.3033 38.4035 47.2193 38.4035V38.4035ZM52.2787 36.3787L36.4605 20.6737C37.4936 20.0191 38.7654 19.6764 40.203 19.6764C43.3566 19.6764 46.88 21.3177 49.6279 24.0672C52.7869 27.2251 52.6611 33.0574 52.2787 36.3787V36.3787Z" fill="#636C3F"/>
</svg>
