<svg width="47" height="57" viewBox="0 0 47 57" fill="none" xmlns="http://www.w3.org/2000/svg">
<path d="M16.1525 43.8721V28.7729C14.2231 30.7139 13.0291 33.3859 13.0291 36.329C13.0291 39.1962 14.2043 41.8969 16.1525 43.8721V43.8721Z" fill="#636C3F"/>
<path d="M18.0837 35.0857L21.3379 33.2481C20.7493 31.631 20.735 30.1178 21.2997 28.7304C21.8636 27.3461 22.9192 26.3356 23.9698 25.617C23.8977 25.6154 23.826 25.6067 23.7523 25.6067C21.5996 25.6067 19.5971 26.2504 17.9158 27.3474H18.0839V35.0857H18.0837Z" fill="#636C3F"/>
<path d="M23.084 29.4657C22.7442 30.303 22.74 31.2473 23.0535 32.2798L30.5528 28.044C29.5446 27.2152 28.3813 26.5733 27.1177 26.1553C26.209 26.4919 23.8718 27.5178 23.084 29.4657V29.4657Z" fill="#636C3F"/>
<path d="M44.6251 21.9757L44.3485 21.6632C42.7202 19.8273 37.1927 13.8334 34.37 13.8334C33.8555 13.8334 32.8502 13.8181 31.5506 13.7976C30.4382 13.7807 29.1372 13.7621 27.754 13.7467C29.9406 12.3728 36.607 7.87357 36.9187 7.66298L37.6823 7.14842L33.3521 1.45856L32.3712 0.269775L31.7346 1.30764C30.6204 3.12319 25.0531 12.1996 24.8271 12.6465C24.7743 12.7502 24.7377 12.8571 24.7099 12.964C23.9354 11.3896 20.5743 4.59764 19.4797 2.95158L18.9964 2.22483L11.9427 6.96859L12.8838 7.70727C13.1538 7.91787 18.3407 11.9824 20.5812 13.7197C15.817 13.7586 14.5041 13.9387 13.9471 14.0796C11.4096 14.7114 4.35428 20.4216 3.55778 21.0704L3.15435 21.3998L5.15423 44.2879C3.68509 45.4836 0.590576 48.2298 0.590576 50.134C0.590576 52.1705 2.77984 55.5994 3.02942 55.9851L3.31827 56.432L40.4519 56.4981H41.7571L42.0494 56.1856C44.9333 53.0945 46.3959 51.0581 46.3959 50.1342C46.3959 49.2544 45.1917 47.4575 42.8191 44.7895L44.6251 21.9757ZM32.5593 3.28949L35.1819 6.73571C32.702 8.40696 28.9764 10.9002 27.2195 12.0245C28.4287 10.0305 30.7013 6.31955 32.5593 3.28949ZM14.899 7.07521L18.4845 4.66342C19.6481 6.6946 21.8474 11.1004 22.8206 13.0656C22.6914 13.0725 22.5946 13.0571 22.5795 13.0571C22.5768 13.0571 22.5768 13.0571 22.5768 13.0571C22.1286 12.7327 17.7882 9.33927 14.899 7.07521V7.07521ZM23.4916 48.9298C16.5178 48.9298 10.8653 43.2773 10.8653 36.3019C10.8653 29.3299 16.5178 23.6774 23.4916 23.6774C30.4652 23.6774 36.1179 29.3299 36.1179 36.3019C36.1177 43.2776 30.4652 48.9298 23.4916 48.9298Z" fill="#636C3F"/>
<path d="M22.1649 34.9978L18.0837 37.3009V45.2086L18.0784 45.4258C18.5608 45.7367 18.9515 45.9253 19.3775 46.117C23.2078 42.9804 24.9488 39.9522 22.1649 34.9978V34.9978Z" fill="#636C3F"/>
<path d="M27.1143 32.2018L32.8993 41.8999C33.8929 40.2745 34.477 38.3723 34.477 36.3289C34.477 33.7166 33.5351 31.3201 31.9753 29.459L27.1143 32.2018V32.2018Z" fill="#636C3F"/>
<path d="M23.8473 34.0467C27.1654 39.9538 24.8384 43.8382 21.5317 46.8154C22.2577 46.9682 22.999 47.0531 23.7523 47.0531C26.8773 47.0531 29.6841 45.7046 31.646 43.5647L25.4347 33.1497L23.8473 34.0467V34.0467Z" fill="#636C3F"/>
</svg>
