<svg width="59" height="58" viewBox="0 0 59 58" fill="none" xmlns="http://www.w3.org/2000/svg">
<path d="M45.2817 6.2738C45.2883 6.26451 46.0023 5.33618 46.7094 4.51528C47.4216 3.68933 46.5765 2.88487 46.5765 2.88487C46.0222 2.40135 45.0894 3.14507 45.0894 3.14507L43.6417 5.00835L42.9444 4.47045L41.9235 3.63522C41.9235 3.63522 43.0606 2.21647 43.3229 1.82366C43.5849 1.42952 43.8125 0.91655 43.1409 0.291122C42.4694 -0.334306 41.6675 0.576518 41.6675 0.576518L40.2281 2.37615L38.7391 1.22741L1.13278 49.984L1.85184 50.5389L2.5319 51.1303C2.5319 51.1303 1.38157 52.6875 0.838632 53.4098C0.296754 54.1278 1.13092 54.8224 1.13092 54.8224C1.91815 55.4349 2.6738 54.5649 2.6738 54.5649L4.31641 52.5337L5.96062 53.8811C5.96062 53.8811 5.07074 54.9908 4.42251 55.9072C3.77586 56.8236 4.53842 57.3944 4.53842 57.3944C5.23281 57.9633 5.94629 57.3955 5.94629 57.3955L7.70189 55.2155L8.9676 56.0574L8.98298 56.0377L9.17475 56.1855L46.7797 7.42917L45.2817 6.2738V6.2738ZM9.79408 52.5881L4.466 48.4562L37.71 5.35714L43.1383 9.35717L9.79408 52.5881V52.5881Z" fill="#636C3F"/>
<path d="M48.0672 19.26H47.9842C41.8254 19.26 37.524 23.3412 37.524 29.1846C37.524 32.6552 39.3502 34.9228 40.8175 36.7441C41.9689 38.1708 42.8778 39.2992 42.7832 40.6118L42.8062 40.6139L42.9542 45.598L45.7093 48.8891H50.461L53.3329 45.4508V39.8548C53.5502 38.8445 54.309 37.891 55.2336 36.7439C56.7012 34.9225 58.5273 32.655 58.5273 29.1844C58.5273 23.3415 54.226 19.26 48.0672 19.26V19.26ZM46.2559 39.5832L45.1289 39.5729V28.2298C45.1289 27.9189 45.3827 27.6664 45.6933 27.6664C46.0037 27.6664 46.2559 27.9189 46.2559 28.2298V39.5832V39.5832ZM50.8742 39.5946H49.7472V28.2298C49.7472 27.9189 50.0002 27.6664 50.3106 27.6664C50.622 27.6664 50.8742 27.9189 50.8742 28.2298V39.5946ZM54.0151 35.7633C53.3314 36.6113 52.6754 37.438 52.2338 38.3239V28.2298C52.2338 27.1694 51.3715 26.3068 50.3106 26.3068C49.2507 26.3068 48.3873 27.1691 48.3873 28.2298V39.593L47.6155 39.5914V28.2298C47.6155 27.1694 46.754 26.3068 45.6933 26.3068C44.6324 26.3068 43.7693 27.1691 43.7693 28.2298V38.2244C43.3293 37.377 42.6951 36.5808 42.0362 35.7633C40.587 33.9637 39.0879 32.1044 39.0879 29.1849C39.0879 24.1841 42.663 20.8249 47.9842 20.8249H48.0672C53.3892 20.8249 56.9632 24.1841 56.9632 29.1849C56.9635 32.1044 55.4644 33.9634 54.0151 35.7633Z" fill="#636C3F"/>
<path d="M49.1329 57.5842L49.8135 56.2864H46.2378L46.8303 57.5842H49.1329Z" fill="#636C3F"/>
<path d="M50.2037 51.2293L45.5122 52.4244C45.1488 52.5167 44.9286 52.8865 45.0207 53.2512C45.0997 53.5588 45.3761 53.7631 45.6795 53.7631C45.7352 53.7631 45.7917 53.757 45.8482 53.7418L50.5389 52.5462C50.9023 52.4544 51.1232 52.0831 51.0304 51.72C50.9376 51.3563 50.5673 51.1335 50.2037 51.2293Z" fill="#636C3F"/>
<path d="M50.2037 49.1971L45.5122 50.3928C45.1488 50.4846 44.9286 50.8549 45.0207 51.219C45.0997 51.5272 45.3761 51.7315 45.6795 51.7315C45.7352 51.7315 45.7917 51.7248 45.8482 51.7097L50.5389 50.5146C50.9023 50.4223 51.1232 50.0515 51.0304 49.6878C50.9376 49.3244 50.5673 49.1003 50.2037 49.1971Z" fill="#636C3F"/>
<path d="M50.2037 53.2104L45.5122 54.4061C45.1488 54.4989 44.9286 54.8692 45.0207 55.2323C45.0997 55.5395 45.3761 55.7447 45.6795 55.7447C45.7352 55.7447 45.7917 55.7381 45.8482 55.7241L50.5389 54.5289C50.9023 54.4355 51.1232 54.0658 51.0304 53.7022C50.9376 53.3372 50.5673 53.1141 50.2037 53.2104V53.2104Z" fill="#636C3F"/>
</svg>
