<svg width="58" height="60" viewBox="0 0 58 60" fill="none" xmlns="http://www.w3.org/2000/svg">
<path d="M30.9521 46.6982C30.132 46.6982 29.0154 46.6982 29.0154 46.6982V49.9747C29.0154 49.9747 30.4307 49.9747 30.989 49.9747C31.5471 49.9747 32.0696 49.3042 32.0696 48.4103C32.0698 47.5165 31.7704 46.6982 30.9521 46.6982Z" fill="#636C3F"/>
<path d="M15.0096 28.5654H0.807739V49.7607H15.0096V28.5654Z" fill="#636C3F"/>
<path d="M0.800537 55.1178C0.800537 55.1178 0.853584 56.7174 1.06736 58.0237C1.28061 59.3303 2.71952 59.7833 3.17334 59.8623C3.62557 59.943 5.19869 58.7157 5.19869 58.7157L4.29264 57.1423C4.29264 57.1423 3.86614 56.4768 4.0526 56.3172C4.23959 56.1572 4.47963 56.3697 4.47963 56.3697L6.45193 59.5427C6.45193 59.5427 7.1991 59.8623 7.78501 59.8623C8.37198 59.8623 9.25124 59.5952 9.25124 59.5952L10.958 56.7418C10.958 56.7418 11.3837 55.9694 11.7041 56.1838C12.0243 56.3962 11.8108 56.6368 11.8108 56.6368L10.6111 58.7701C11.8906 59.6761 12.69 59.9167 13.8096 59.2756C14.9294 58.6367 15.0093 55.0106 15.0093 55.0106V50.8774H0.853321L0.800537 55.1178V55.1178Z" fill="#636C3F"/>
<path d="M10.2056 7.92534V6.77979H5.49022V7.97016C5.49022 7.97016 1.12655 15.5952 0.774048 22.3829V27.4521H15.0098L14.9663 22.2494C14.9661 22.2494 15.4074 17.1367 10.2056 7.92534Z" fill="#636C3F"/>
<path d="M5.19533 0.96167L4.91418 1.35767L4.91684 4.7519H10.9112L10.8237 1.40143L10.5581 0.96167H5.19533Z" fill="#636C3F"/>
<path d="M4.76801 6.09147C4.76801 6.09147 10.9149 6.10287 11.0048 6.09147C11.0947 6.08086 11.252 5.94585 11.252 5.75435C11.252 5.56285 11.0162 5.41724 11.0162 5.41724H4.77942C4.77942 5.41724 4.54309 5.48487 4.54309 5.75435C4.54336 6.02489 4.76801 6.09147 4.76801 6.09147Z" fill="#636C3F"/>
<path d="M23.2337 40.8655H23.2329V59.6585H57.4466V41.2185L57.5089 1.1333H23.2947L23.2337 40.8655V40.8655ZM31.9931 52.8791C30.5428 52.9544 28.9785 52.916 28.9785 52.916V57.5358H25.2906V43.6802C25.2906 43.6802 30.8404 43.6433 31.8088 43.6433C32.7764 43.6433 35.8685 44.4634 35.8685 48.2998C35.8685 52.1346 33.4464 52.8053 31.9931 52.8791ZM44.9165 57.683H36.8905V43.6799H44.8805V46.8826H40.5611V49.044H44.5829V52.1712H40.5611V54.4432H44.9165V57.683V57.683ZM55.643 46.8826H52.7389V57.6462H48.976V46.8826H46.1085V43.6059H55.6427V46.8826H55.643ZM26.3301 15.2861C27.2234 13.2976 28.218 14.8463 28.218 14.8463L33.5023 20.1929C33.5023 20.1929 32.4496 23.375 34.2583 26.1722C35.4311 27.9877 37.0183 29.733 40.4881 30.0104C42.9392 30.2072 47.9734 27.8702 47.9137 22.648C47.8644 18.3657 44.7672 15.6014 40.6778 15.3484C40.6778 15.3484 40.6147 16.9218 40.5513 17.7408C40.4881 18.5583 39.733 19.1243 39.1657 19.25C38.6002 19.3765 37.5941 19.4397 36.5231 18.244C35.4537 17.0483 31.0481 12.7061 30.4829 12.0141C29.9158 11.3224 29.7912 10.0002 30.8606 9.37155C30.8606 9.37155 36.46 4.77818 37.5944 3.95993C38.727 3.14167 39.3537 2.8897 40.4266 3.70795C41.495 4.52594 41.1799 6.16245 41.1799 6.6656L44.855 7.3645L44.8197 7.39951C51.5888 9.23442 56.5684 15.4221 56.5684 22.771C56.5684 31.5679 49.4385 38.6985 40.6444 38.6985C32.8886 38.6985 26.4282 33.1553 25.0081 25.8138L24.9941 25.756C24.814 24.8131 24.6907 23.7999 24.6315 22.7129C24.6318 22.7129 24.4153 19.5468 26.3301 15.2861V15.2861Z" fill="#636C3F"/>
</svg>
