<svg width="64" height="49" viewBox="0 0 64 49" fill="none" xmlns="http://www.w3.org/2000/svg">
<path d="M62.6082 20.6637L49.7854 8.29709C45.4092 3.31409 38.6492 0.531765 32.0522 0.45909C18.692 0.309231 8.40583 10.9036 8.21857 24.6969L1.35001 26.4345C1.35001 26.4345 0.460937 26.8785 1.06196 27.5586C1.66299 28.2365 11.3123 37.3691 11.3123 37.3691C17.7902 44.1839 22.7681 47.6417 31.8623 48.0993C44.9957 48.7597 56.2155 37.4442 55.9893 23.7084C55.9893 23.7084 60.7808 22.5292 62.264 22.0714C63.749 21.6149 62.6082 20.6637 62.6082 20.6637V20.6637ZM13.8079 35.7759L5.64525 27.9951L16.2895 25.1794L13.8079 35.7759V35.7759ZM32.1153 45.0268C25.7449 45.0018 19.8054 41.8137 16.2993 37.7482C19.2251 25.2354 19.2251 25.2354 19.6468 23.258C20.0736 21.2581 18.4803 22.0679 18.4803 22.0679L11.3799 23.8866C11.5019 12.5666 21.3003 3.39658 32.1129 3.56633C37.7739 3.65439 43.7722 6.32559 47.6508 10.7519L44.1809 25.3001C43.8863 26.8292 45.2575 26.4244 45.2575 26.4244L52.6706 24.5837C52.6706 36.0806 42.9433 45.0732 32.1153 45.0268V45.0268ZM47.7208 23.1206L50.17 12.5212L58.3212 20.4269L47.7208 23.1206V23.1206Z" fill="#636C3F"/>
<path d="M36.6124 8.27809C27.5068 6.03128 25.1539 14.7207 25.1539 14.7207C25.1539 14.7207 23.493 21.8293 21.6339 30.3325C19.773 38.8339 27.1797 40.7605 27.1797 40.7605C35.7827 42.9533 37.8075 34.6829 37.8075 34.6829C37.8075 34.6829 42.499 19.4217 42.6226 19.0722C43.8533 15.6177 41.4622 9.47272 36.6124 8.27809V8.27809ZM30.0247 38.3371L26.3578 37.4048L26.7795 35.8123L30.4159 36.7732L30.0247 38.3371V38.3371ZM33.2828 27.5653L32.1691 27.295L31.8407 28.4666L30.2467 28.0159L30.5183 26.9346L29.3459 26.6338L29.7059 25.0408L30.8779 25.3116L31.1487 24.1101L32.7723 24.5005L32.5007 25.6421L33.6444 25.9739L33.2828 27.5653V27.5653ZM39.235 21.0988C36.9617 22.9998 33.8229 22.9255 31.9967 22.3945C30.1682 21.8624 28.476 20.501 27.3118 18.0094C26.1517 15.5185 27.6123 13.5584 27.6123 13.5584C29.0059 10.8684 31.332 10.1711 31.332 10.1711C36.0813 8.67701 39.0037 11.2344 40.2668 13.5584C41.5282 15.8837 41.4622 19.2382 39.235 21.0988V21.0988Z" fill="#636C3F"/>
<path d="M35.317 12.164C32.4187 11.5081 31.5649 13.891 31.5649 13.891L31.3304 14.622C31.3304 14.622 31.0397 15.81 30.8994 16.3161C30.7329 16.9136 30.8994 19.0395 32.9593 19.6037C36.0312 20.4461 36.8442 18.043 36.8442 18.043C36.8442 18.043 37.341 16.2415 37.4773 15.6845C37.9407 13.7905 36.3474 12.3961 35.317 12.164ZM35.6193 17.4926C35.5756 17.5897 34.8764 18.9183 33.4359 18.4019C31.9959 17.8844 32.2203 16.6664 32.2468 16.5139C32.2468 16.5139 33.7027 17.9958 35.5758 17.408C35.5756 17.408 35.6588 17.3934 35.6193 17.4926ZM34.5955 16.2192C34.5955 16.2192 33.4911 16.206 32.9327 15.2257C32.9327 15.2257 32.3726 14.4146 33.4224 13.6594C33.4627 13.6459 33.8839 13.2677 34.8348 13.4775C34.8348 13.4775 36.2331 13.8557 36.2185 15.0297C36.2055 16.206 35.0316 16.2471 34.5955 16.2192V16.2192Z" fill="#636C3F"/>
</svg>
