<svg width="55" height="59" viewBox="0 0 55 59" fill="none" xmlns="http://www.w3.org/2000/svg">
<path d="M51.2504 21.1289C50.6289 19.7972 50.0433 18.5391 49.8414 17.7135C49.3529 15.7115 49.3391 12.5329 49.3391 12.1766V6.90852L49.6966 6.47804V3.73497L49.3128 3.33181C49.3155 3.26895 49.3163 3.20715 49.3163 3.15277C49.3163 2.16662 48.6354 1.81519 47.9986 1.81519H43.2617C42.6251 1.81519 41.9448 2.16662 41.9448 3.15277C41.9448 3.20715 41.9456 3.26895 41.9475 3.33181L41.5637 3.73497V6.47804L41.922 6.90852V12.1766C41.922 12.5329 41.9085 15.7115 41.4199 17.7135C41.2181 18.5391 40.6324 19.7972 40.011 21.1289C39.3656 22.5129 38.6328 24.0823 38.1397 25.5714C37.6565 27.0296 37.2971 28.2245 37.0536 29.3698C36.526 29.3642 35.9489 29.3624 35.3136 29.3624C34.6309 29.3624 33.8954 29.3645 33.1055 29.3711H32.1464C31.3563 29.3645 31.4372 29.3624 30.7548 29.3624C24.9962 29.3624 23.0011 29.5801 22.612 29.8037C21.799 30.1623 21.799 30.8554 21.799 31.1175L21.8118 31.7789C21.5606 31.9251 21.267 32.3855 21.267 32.7834C21.267 32.929 21.3155 33.0813 21.4004 33.2083C21.6131 33.5343 22.0643 33.4497 22.1019 34.0541C21.9921 34.3998 21.8943 34.6629 21.6184 34.9488C21.3068 35.2737 20.9187 35.6771 20.7195 36.3039C20.7052 36.3609 20.6898 36.4328 20.6898 36.5174C20.6898 38.935 20.8601 44.4984 20.976 48.052L21.0943 51.7414C21.303 52.8578 22.0988 53.8132 22.5695 54.3851L22.7186 54.5633C22.773 54.6399 22.848 54.7052 22.939 54.7545C24.2124 55.4916 27.1942 55.8661 31.7992 55.8752L32.4226 55.8725L33.2856 55.8767C34.5879 55.8767 35.7566 55.8462 36.8011 55.7882C37.0538 57.3377 37.8907 57.8286 38.7063 58.0899L38.7599 58.1069C39.3582 58.301 40.8987 58.3607 45.3592 58.3607H45.9024C50.3618 58.3607 51.9034 58.301 52.502 58.1069L52.5545 58.0899C53.5038 57.7854 54.482 57.174 54.538 54.9439C54.59 52.8382 54.5926 33.2961 54.5926 33.0993C54.5926 30.4708 54.1184 28.5783 53.1216 25.5716C52.6285 24.0823 51.8965 22.5129 51.2504 21.1289V21.1289ZM36.6693 33.099C36.6693 33.2828 36.6709 50.2742 36.7136 54.2843C35.703 54.3397 34.5667 54.3681 33.3241 54.3681H31.9287C27.8167 54.3681 24.8485 54.0474 23.8567 53.5382C23.5859 53.2626 22.7552 52.4218 22.6072 51.5749C22.6096 51.5133 22.603 50.6725 22.5791 50.0222L22.5221 48.1883C22.4064 44.6474 22.2335 39.1008 22.2157 36.7039C22.3086 36.4447 22.5019 36.2325 22.7486 35.9718C23.2021 35.4968 23.5111 34.843 23.5411 33.5924C23.5411 33.3303 23.4252 31.484 23.4252 31.2663L23.5027 31.1315C23.804 31.0273 25.154 30.8249 32.1348 30.8734H33.1177C34.5787 30.8626 35.7905 30.8641 36.8011 30.8724C36.7136 31.5821 36.6693 32.3062 36.6693 33.099V33.099ZM38.3018 33.099C38.3018 32.311 38.3469 31.5983 38.4405 30.8978C40.8892 30.9517 41.5509 31.0631 41.7491 31.132L41.8276 31.2668C41.8276 31.4843 41.7117 33.3306 41.7117 33.5929C41.7422 34.8435 42.0512 35.4973 42.505 35.9723C42.7509 36.2328 42.944 36.4453 43.0368 36.7044C43.0201 39.1013 42.8461 44.648 42.7304 48.1889L42.6734 50.0227C42.6506 50.6728 42.6437 51.5136 42.6456 51.5754C42.4981 52.4223 41.6674 53.2631 41.396 53.5387C40.8783 53.8034 39.8187 54.018 38.3442 54.162C38.3026 50.015 38.3018 33.2813 38.3018 33.099V33.099ZM52.9062 54.9052C52.8712 56.3107 52.4524 56.4454 52.0466 56.5743L51.9853 56.595C51.4363 56.7669 47.5583 56.7669 45.9024 56.7669H45.3592C43.7039 56.7669 39.8256 56.7669 39.2765 56.595L39.2145 56.5743C38.8994 56.4749 38.5768 56.3677 38.4323 55.6672C40.281 55.4834 41.5817 55.1792 42.3145 54.7545C42.405 54.7052 42.4806 54.6399 42.5352 54.5633L42.6832 54.3851C43.1548 53.8132 43.9497 52.8578 44.1593 51.7414L44.2765 48.052C44.3924 44.4984 44.5624 38.935 44.5624 36.5174C44.5624 36.4331 44.5481 36.3609 44.5327 36.3039C44.3346 35.6771 43.9463 35.2734 43.6338 34.9488C43.358 34.6629 43.2601 34.3998 43.1503 34.0541C43.1872 33.4497 43.6399 33.534 43.8527 33.2083C43.9375 33.0813 43.9853 32.929 43.9853 32.7834C43.9853 32.3855 43.6925 31.9251 43.4405 31.7789L43.4532 31.1175C43.4532 30.8554 43.4532 30.1621 42.6405 29.8037C42.3453 29.6332 41.5902 29.4674 38.7156 29.3971C38.9421 28.4099 39.2646 27.3551 39.693 26.0618C40.1569 24.6603 40.8677 23.1349 41.4958 21.7901C42.1793 20.3239 42.7692 19.0585 43.0073 18.0829C43.5386 15.9038 43.5548 12.5517 43.5548 12.1766V6.34198L43.1957 5.91203V4.36172L43.6126 3.92461L43.5922 3.5859C43.5922 3.58325 43.5879 3.5058 43.5837 3.40899H47.6782C47.6739 3.50607 47.6697 3.58352 47.6689 3.5859L47.6495 3.92461L48.0665 4.36172V5.91203L47.7079 6.34198V12.1766C47.7079 12.5517 47.7225 15.9038 48.2537 18.0829C48.4919 19.0585 49.0818 20.3237 49.7653 21.7901C50.3937 23.1349 51.1045 24.6603 51.5692 26.0618C52.5309 28.9648 52.9609 30.6689 52.9609 33.099C52.9606 33.2958 52.958 52.8175 52.9062 54.9052V54.9052Z" fill="#636C3F"/>
<path d="M3.78176 7.74691C4.82282 7.74691 5.64505 7.54374 6.45614 7.03873V3.5636H3.57143L3.80298 4.96299H4.64829V6.20615C4.46448 6.28758 4.17485 6.32816 3.94329 6.32816C3.06244 6.32816 2.68103 5.6099 2.68103 4.11848C2.68103 2.2894 3.20275 1.77511 4.04727 1.77511C4.58198 1.77511 5.07983 2.01276 5.46124 2.37003L6.50309 1.25153C5.82966 0.654751 4.92838 0.335938 4.00059 0.335938C1.68534 0.335938 0.667358 2.08331 0.667358 4.17948C0.667093 6.95704 2.42746 7.74691 3.78176 7.74691Z" fill="#636C3F"/>
<path d="M8.12292 7.62482H11.9755L12.3237 6.20606H9.92759V0.459717H8.12292V7.62482Z" fill="#636C3F"/>
<path d="M15.3437 0.459717L13.0743 7.62482H14.9854L15.3784 6.19546H17.115L17.499 7.62482H19.444L17.3118 0.459717H15.3437V0.459717ZM15.7386 4.94089L16.1071 3.29642C16.189 2.9479 16.2476 2.58771 16.2577 2.28958H16.2824C16.2943 2.58797 16.3386 2.9479 16.4203 3.29642L16.7924 4.94089H15.7386Z" fill="#636C3F"/>
<path d="M22.7876 6.36925C22.081 6.36925 21.4556 6.11436 20.9585 5.7852L20.1923 7.06921C20.8649 7.48033 21.7569 7.74689 22.7979 7.74689C24.4894 7.74689 25.8564 6.90423 25.8564 5.34226C25.8564 4.00626 24.9763 3.55377 24.1642 3.29649L23.3454 3.03974C22.8918 2.89625 22.5664 2.68087 22.5664 2.28938C22.5664 1.87827 22.9597 1.68252 23.4356 1.68252C23.9676 1.68252 24.4554 1.9093 24.9182 2.15517L25.7397 0.972752C25.1267 0.592668 24.2329 0.336182 23.2727 0.336182C21.7338 0.336182 20.5991 1.24143 20.5991 2.60687C20.5991 3.95348 21.5023 4.3447 22.3126 4.64309L22.8913 4.85793C23.413 5.055 23.8387 5.16747 23.8387 5.60988C23.8387 6.09341 23.4234 6.36925 22.7876 6.36925V6.36925Z" fill="#636C3F"/>
<path d="M4.14091 13.2845C4.02527 13.7465 3.90698 14.0547 3.79372 14.6712H3.76905C3.64147 14.055 3.55023 13.7261 3.44652 13.2845L2.61156 9.59399H0.610352L2.75214 16.7588H4.80108L7.01263 9.59399H5.1016L4.14091 13.2845Z" fill="#636C3F"/>
<path d="M10.0313 11.0019H12.1847L12.3704 9.59399H8.22583V16.7588H12.3916V15.3197H10.0313V13.7258H11.7917V12.3471H10.0313V11.0019Z" fill="#636C3F"/>
<path d="M17.4751 13.5821C18.1934 13.4275 18.9103 12.8426 18.9103 11.6408C18.9103 10.478 18.2618 9.59399 16.0518 9.59399H13.7809V16.7596H15.5879V13.9322C15.9821 13.9322 16.177 14.0343 16.4452 14.7749L17.1619 16.7594H19.2795C19.0506 16.2228 18.4469 14.899 18.1934 14.3542C18.0183 13.9823 17.7186 13.6534 17.4751 13.5821V13.5821ZM16.0391 12.606H15.5879V10.9923H16.0264C16.6409 10.9923 16.9303 11.1668 16.9303 11.7413C16.9303 12.2766 16.7327 12.606 16.0391 12.606V12.606Z" fill="#636C3F"/>
<path d="M25.4492 11.6408C25.4492 10.478 24.8023 9.59399 22.5899 9.59399H20.3206V16.7596H22.126V13.9322C22.5194 13.9322 22.7159 14.0343 22.9849 14.7749L23.7015 16.7594H25.8194C25.5871 16.2228 24.9861 14.899 24.7322 14.3542C24.5577 13.9823 24.2572 13.6532 24.0132 13.5818C24.7325 13.4275 25.4492 12.8426 25.4492 11.6408V11.6408ZM22.578 12.606H22.126V10.9923H22.566C23.179 10.9923 23.47 11.1668 23.47 11.7413C23.4702 12.2766 23.2726 12.606 22.578 12.606V12.606Z" fill="#636C3F"/>
<path d="M30.5881 12.3471H28.8267V11.0019H30.982L31.1661 9.59399H27.0231V16.7588H31.1915V15.3197H28.8267V13.7258H30.5881V12.3471Z" fill="#636C3F"/>
<path d="M4.14091 22.4177C4.02527 22.8816 3.90698 23.1901 3.79372 23.8052H3.76905C3.64147 23.1901 3.55023 22.8604 3.44652 22.4177L2.61156 18.728H0.610352L2.75214 25.8923H4.80108L7.01263 18.728H5.1016L4.14091 22.4177Z" fill="#636C3F"/>
<path d="M10.0313 20.1351H12.1847L12.3704 18.728H8.22583V25.8923H12.3916V24.4545H10.0313V22.8604H11.7917V21.4822H10.0313V20.1351Z" fill="#636C3F"/>
<path d="M16.9523 20.1261H18.5748L18.8064 18.728H13.4905V20.1261H15.1225V25.8937H16.9523V20.1261Z" fill="#636C3F"/>
<path d="M21.7688 23.0662C22.1629 23.0662 22.3594 23.1684 22.6257 23.9086L23.3416 25.8937H25.463C25.2306 25.3592 24.6269 24.0325 24.3734 23.4877C24.1989 23.1177 23.8975 22.7888 23.6551 22.7161C24.3734 22.5615 25.0919 21.9766 25.0919 20.7749C25.0919 19.6121 24.4423 18.728 22.2311 18.728H19.9644V25.8937H21.769V23.0662H21.7688ZM21.7688 20.1261H22.2088C22.8225 20.1261 23.1135 20.3014 23.1135 20.8759C23.1135 21.4106 22.9127 21.7395 22.2181 21.7395H21.7688V20.1261Z" fill="#636C3F"/>
<path d="M29.6269 26.0162C32.1398 26.0162 32.7774 24.093 32.7774 22.0385C32.7774 20.4648 31.9764 18.605 29.5784 18.605C27.727 18.605 26.4443 19.941 26.4443 22.4891C26.4443 24.6399 27.579 26.0162 29.6269 26.0162V26.0162ZM29.593 19.9317C30.3693 19.9317 30.7608 20.3118 30.7608 22.2448C30.7608 24.1346 30.403 24.659 29.6269 24.659C28.8864 24.659 28.4713 24.145 28.4713 22.2631C28.4713 20.8966 28.7707 19.9317 29.593 19.9317V19.9317Z" fill="#636C3F"/>
</svg>
